<?xml version="1.0" encoding="UTF-8"?>
<svg id="Layer_1" data-name="Layer 1" xmlns="http://www.w3.org/2000/svg" viewBox="0 0 420 420">
  <defs>
    <style>
      .cls-1 {
        fill: #fff;
      }

      .cls-2 {
        stroke: #feffff;
        stroke-width: 1.5px;
      }

      .cls-2, .cls-3 {
        fill: none;
        stroke-miterlimit: 10;
      }

      .cls-4 {
        fill: #00943f;
      }

      .cls-5 {
        fill: #4aae74;
      }

      .cls-3 {
        stroke: #00943f;
        stroke-width: 3px;
      }

      .cls-6 {
        fill: #0a7a37;
      }

      .cls-7 {
        fill: #feffff;
      }
    </style>
  </defs>
  <g>
    <circle class="cls-6" cx="216.45" cy="210.5" r="76.4" transform="translate(-85.45 214.71) rotate(-45)"/>
    <path class="cls-6" d="M175.79,135.16L106.5,41.49c31.62-20.61,69.39-32.59,109.95-32.59,46.58,0,89.47,15.79,123.6,42.33l-68.63,93.66c-14.87-12.48-34.04-19.99-54.97-19.99-14.72,0-28.57,3.71-40.66,10.26Z"/>
    <path class="cls-6" d="M135.74,239.07l-110,36.94c-7.06-20.54-10.89-42.58-10.89-65.51,0-66.67,32.37-125.79,82.25-162.49l68.99,93.26c-21.36,15.57-35.24,40.77-35.24,69.23,0,10.02,1.72,19.64,4.89,28.57Z"/>
    <path class="cls-6" d="M221.51,295.95v116.08c-1.68.05-3.37.07-5.06.07-84.37,0-156.63-51.83-186.69-125.38l110.52-37.11c14.21,27.61,42.98,46.49,76.17,46.49,1.7,0,3.38-.05,5.06-.15Z"/>
    <path class="cls-6" d="M405.44,280.83c-26.71,71.75-93.1,124.18-172.5,130.6v-116.93c28.67-5.58,52.21-25.48,62.9-51.95l109.6,38.28Z"/>
    <path class="cls-6" d="M418.05,210.5c0,20.71-3.12,40.69-8.92,59.5l-109.72-38.3h0c1.72-6.78,2.64-13.88,2.64-21.2,0-22.2-8.45-42.42-22.3-57.63l69.14-94.36c42.38,36.95,69.16,91.34,69.16,151.99Z"/>
    <circle class="cls-7" cx="216.45" cy="210.5" r="76.4" transform="translate(-85.45 214.71) rotate(-45)"/>
    <circle class="cls-3" cx="216.45" cy="210.5" r="76.4" transform="translate(-85.45 214.71) rotate(-45)"/>
  </g>
  <g>
    <path class="cls-1" d="M195.32,28.96h2.3v14h-1.8l-6.6-9.5v9.5h-2.3v-14h1.8l6.6,9.5v-9.5Z"/>
    <path class="cls-1" d="M209.38,36.82v6.14h-2.16v-5.92c0-1.5-.86-2.32-2.24-2.32-1.52,0-2.54.94-2.54,2.88v5.36h-2.16v-14h2.16v5.28c.66-1.02,1.68-1.54,3.1-1.54,2.3,0,3.84,1.56,3.84,4.12Z"/>
    <path class="cls-1" d="M219.62,32.96h2.16v10h-2.16v-1.44c-.82,1.14-1.98,1.7-3.5,1.7-1.38,0-2.54-.5-3.52-1.52s-1.46-2.28-1.46-3.74.48-2.72,1.46-3.74c.98-1.02,2.14-1.52,3.52-1.52,1.52,0,2.68.56,3.5,1.68v-1.42ZM216.46,41.16c.9,0,1.66-.3,2.26-.9.6-.62.9-1.38.9-2.3s-.3-1.68-.9-2.28c-.6-.62-1.36-.92-2.26-.92s-1.66.3-2.26.92c-.6.6-.9,1.36-.9,2.28s.3,1.68.9,2.3c.6.6,1.36.9,2.26.9ZM217.16,30.28l-1.06,1.48h-2.2l2.12-2.8h2.26l2.12,2.8h-2.2l-1.04-1.48Z"/>
    <path class="cls-1" d="M233.4,36.82v6.14h-2.16v-5.92c0-1.5-.86-2.32-2.24-2.32-1.52,0-2.54.94-2.54,2.88v5.36h-2.16v-10h2.16v1.28c.66-1.02,1.68-1.54,3.1-1.54,2.3,0,3.84,1.56,3.84,4.12Z"/>
    <path class="cls-1" d="M244.54,37.02c1.54.34,3.54.98,3.5,3.12,0,.96-.38,1.72-1.12,2.26s-1.66.82-2.78.82c-1.98,0-3.44-.88-4.08-2.34l1.86-1.08c.34.96,1.08,1.44,2.22,1.44s1.7-.38,1.7-1.12c0-.64-.84-1.02-1.9-1.28-1.5-.38-3.52-.98-3.48-3.08,0-.92.34-1.66,1.04-2.22s1.58-.84,2.62-.84c1.66,0,3,.78,3.7,2.08l-1.82,1.02c-.34-.76-.98-1.14-1.88-1.14-.82,0-1.46.36-1.46,1.06,0,.66.84,1,1.88,1.3Z"/>
    <path class="cls-1" d="M256.68,32.96h1.28c.74,0,.86-.32.86-1.08v-.34h1.82v.34c0,1.58-.48,2.38-1.8,2.6v8.48h-2.16v-1.28c-.66,1.02-1.68,1.54-3.1,1.54-2.3,0-3.84-1.56-3.84-4.12v-6.14h2.16v5.92c0,1.5.86,2.32,2.24,2.32,1.52,0,2.54-.94,2.54-2.88v-5.36ZM252.98,46.97c-.52-.56-.52-1.36,0-1.9.54-.54,1.38-.54,1.92,0,.52.54.52,1.34-.02,1.9-.54.52-1.34.52-1.9,0Z"/>
  </g>
  <g>
    <path class="cls-1" d="M66.64,132.28c-1.38-1.4-2.08-3.12-2.08-5.18s.7-3.78,2.08-5.16c1.38-1.4,3.14-2.1,5.24-2.1,2.54,0,4.82,1.28,6.02,3.34l-2,1.16c-.74-1.38-2.26-2.26-4.02-2.26-1.5,0-2.7.48-3.64,1.42-.92.94-1.38,2.14-1.38,3.6s.46,2.66,1.38,3.6c.94.94,2.14,1.42,3.64,1.42,1.76,0,3.3-.88,4.02-2.26l2,1.14c-.58,1.02-1.42,1.84-2.5,2.46-1.06.6-2.24.9-3.52.9-2.1,0-3.86-.7-5.24-2.08Z"/>
    <path class="cls-1" d="M80.74,132.84c-1.02-1.02-1.54-2.26-1.54-3.74s.52-2.72,1.54-3.74,2.28-1.52,3.74-1.52c.62,0,1.18.08,1.72.26h.88c.74,0,.86-.32.86-1.08v-.34h1.82v.34c0,1.4-.38,2.2-1.38,2.5.92,1,1.38,2.18,1.38,3.58,0,1.48-.52,2.72-1.54,3.74-1.02,1.02-2.26,1.52-3.74,1.52s-2.72-.5-3.74-1.52ZM84.48,132.26c.88,0,1.62-.3,2.22-.9s.9-1.36.9-2.26-.3-1.66-.9-2.26-1.34-.9-2.22-.9-1.62.3-2.22.9-.9,1.36-.9,2.26.3,1.66.9,2.26,1.34.9,2.22.9Z"/>
    <path class="cls-1" d="M100.54,128.16c1.54.34,3.54.98,3.5,3.12,0,.96-.38,1.72-1.12,2.26s-1.66.82-2.78.82c-1.98,0-3.44-.88-4.08-2.34l1.86-1.08c.34.96,1.08,1.44,2.22,1.44s1.7-.38,1.7-1.12c0-.64-.84-1.02-1.9-1.28-1.5-.38-3.52-.98-3.48-3.08,0-.92.34-1.66,1.04-2.22s1.58-.84,2.62-.84c1.66,0,3,.78,3.7,2.08l-1.82,1.02c-.34-.76-.98-1.14-1.88-1.14-.82,0-1.46.36-1.46,1.06,0,.66.84,1,1.88,1.3Z"/>
    <path class="cls-1" d="M106.92,132.84c-1.02-1.02-1.54-2.26-1.54-3.74s.52-2.72,1.54-3.74c1.02-1.02,2.28-1.52,3.74-1.52.62,0,1.18.08,1.72.26h.88c.74,0,.86-.32.86-1.08v-.34h1.82v.34c0,1.4-.38,2.2-1.38,2.5.92,1,1.38,2.18,1.38,3.58,0,1.48-.52,2.72-1.54,3.74-1.02,1.02-2.26,1.52-3.74,1.52s-2.72-.5-3.74-1.52ZM110.66,132.26c.88,0,1.62-.3,2.22-.9.6-.6.9-1.36.9-2.26s-.3-1.66-.9-2.26c-.6-.6-1.34-.9-2.22-.9s-1.62.3-2.22.9c-.6.6-.9,1.36-.9,2.26s.3,1.66.9,2.26c.6.6,1.34.9,2.22.9ZM110.42,122.9c0-.94.12-1.16.62-1.56,0,0,.26-.16.24-.14.1-.06.3-.16.3-.44,0-.16-.1-.26-.4-.26-.34,0-.72.14-.88.64l-1.32-.56c.42-.98,1.14-1.46,2.2-1.46s1.88.58,1.88,1.62c0,.78-.44,1.24-.84,1.46-.24.12-.38.22-.32.7h-1.48Z"/>
  </g>
  <g>
    <path class="cls-1" d="M91.36,294.54v2.2h-3.94v11.8h-2.3v-11.8h-3.96v-2.2h10.2Z"/>
    <path class="cls-1" d="M102.02,302.4v6.14h-2.16v-5.92c0-1.5-.86-2.32-2.24-2.32-1.52,0-2.54.94-2.54,2.88v5.36h-2.16v-14h2.16v5.28c.66-1.02,1.68-1.54,3.1-1.54,2.3,0,3.84,1.56,3.84,4.12Z"/>
    <path class="cls-1" d="M111.08,298.54h2.16v10h-2.16v-1.28c-.66,1.02-1.68,1.54-3.1,1.54-2.3,0-3.84-1.56-3.84-4.12v-6.14h2.16v5.92c0,1.5.86,2.32,2.24,2.32,1.52,0,2.54-.94,2.54-2.88v-5.36ZM108.06,297.34c0-.94.12-1.16.62-1.56,0,0,.26-.16.24-.14.1-.06.3-.16.3-.44,0-.16-.1-.26-.4-.26-.34,0-.72.14-.88.64l-1.32-.56c.42-.98,1.14-1.46,2.2-1.46s1.88.58,1.88,1.62c0,.78-.44,1.24-.84,1.46-.24.12-.38.22-.32.7h-1.48Z"/>
    <path class="cls-1" d="M126.34,300.62h-2.48v4.8c0,1.28.84,1.26,2.48,1.18v1.94c-3.3.4-4.64-.5-4.64-3.12v-4.8h-1.84v-2.08h1.84v-2.16l2.16-.64v2.8h2.48v2.08Z"/>
    <path class="cls-1" d="M135.14,298.54h2.16v10h-2.16v-1.28c-.66,1.02-1.68,1.54-3.1,1.54-2.3,0-3.84-1.56-3.84-4.12v-6.14h2.16v5.92c0,1.5.86,2.32,2.24,2.32,1.52,0,2.54-.94,2.54-2.88v-5.36ZM131.44,312.54c-.52-.56-.52-1.36,0-1.9.54-.54,1.38-.54,1.92,0,.52.54.52,1.34-.02,1.9-.54.52-1.34.52-1.9,0Z"/>
    <path class="cls-1" d="M140.76,307.28c-1-1.02-1.5-2.26-1.5-3.74s.5-2.74,1.5-3.74,2.28-1.52,3.78-1.52c1.94,0,3.66,1,4.46,2.58l-1.86,1.08c-.46-.96-1.42-1.54-2.62-1.54-.88,0-1.62.3-2.22.9-.58.6-.88,1.34-.88,2.24s.3,1.64.88,2.24c.6.6,1.34.9,2.22.9,1.18,0,2.18-.6,2.66-1.54l1.86,1.06c-.86,1.6-2.56,2.6-4.5,2.6-1.5,0-2.76-.5-3.78-1.52Z"/>
  </g>
  <g>
    <path class="cls-1" d="M296.43,300.84l1.48,1.52-1.62,1.46-1.54-1.58c-1.18.68-2.42,1.02-3.74,1.02-2.02,0-3.72-.7-5.14-2.1-1.42-1.42-2.12-3.14-2.12-5.16s.7-3.74,2.12-5.14c1.42-1.42,3.12-2.12,5.14-2.12s3.72.7,5.14,2.12c1.42,1.4,2.12,3.12,2.12,5.14,0,1.86-.62,3.48-1.84,4.84ZM293.11,300.56l-2.56-2.62,1.62-1.46,2.68,2.74c.74-.92,1.12-2,1.12-3.22,0-1.42-.48-2.62-1.44-3.58-.96-.96-2.14-1.44-3.52-1.44s-2.56.48-3.52,1.44-1.44,2.16-1.44,3.58.48,2.62,1.44,3.58c.96.96,2.14,1.44,3.52,1.44.74,0,1.44-.16,2.1-.46Z"/>
    <path class="cls-1" d="M307.07,293h2.16v10h-2.16v-1.28c-.66,1.02-1.68,1.54-3.1,1.54-2.3,0-3.84-1.56-3.84-4.12v-6.14h2.16v5.92c0,1.5.86,2.32,2.24,2.32,1.52,0,2.54-.94,2.54-2.88v-5.36Z"/>
    <path class="cls-1" d="M318.49,293h2.3l-3.84,10.32c-.96,2.58-2.58,3.82-4.88,3.68v-2.02c1.36.08,2.12-.58,2.66-1.96l.1-.2-4.24-9.82h2.36l2.98,7.26,2.56-7.26Z"/>
    <path class="cls-1" d="M332.73,295.08h-2.48v4.8c0,1.28.84,1.26,2.48,1.18v1.94c-3.3.4-4.64-.5-4.64-3.12v-4.8h-1.84v-2.08h1.84v-2.16l2.16-.64v2.8h2.48v2.08Z"/>
    <path class="cls-1" d="M336.95,294.68c.54-1.24,1.58-1.86,3.08-1.86v2.34c-.82-.06-1.54.14-2.16.6-.62.44-.92,1.18-.92,2.2v5.04h-2.16v-10h2.16v1.68Z"/>
    <path class="cls-1" d="M341.63,291.8l-1.32-2.8h2.5l.9,2.8h-2.08ZM343.79,293h-2.16v10h2.16v-10Z"/>
    <path class="cls-1" d="M355.39,296.86v6.14h-2.16v-5.92c0-1.5-.86-2.32-2.24-2.32-1.52,0-2.54.94-2.54,2.88v5.36h-2.16v-10h2.16v1.28c.66-1.02,1.68-1.54,3.1-1.54,2.3,0,3.84,1.56,3.84,4.12Z"/>
    <path class="cls-1" d="M366.81,296.86v6.14h-2.16v-5.92c0-1.5-.86-2.32-2.24-2.32-1.52,0-2.54.94-2.54,2.88v5.36h-2.16v-14h2.16v5.28c.66-1.02,1.68-1.54,3.1-1.54,2.3,0,3.84,1.56,3.84,4.12Z"/>
  </g>
  <g>
    <path class="cls-1" d="M305.24,146.23l1.98-1.16c.56,1.58,1.72,2.36,3.48,2.36s2.6-.74,2.6-1.84c0-.58-.24-1-.7-1.3s-1.3-.64-2.48-1c-1.34-.4-2-.66-2.94-1.28-.9-.64-1.36-1.56-1.36-2.82s.44-2.22,1.32-2.94c.88-.74,1.94-1.1,3.18-1.1,2.24,0,3.98,1.16,4.88,3.08l-1.94,1.12c-.58-1.3-1.56-1.96-2.94-1.96s-2.2.68-2.2,1.74.68,1.52,2.82,2.18c.54.18.92.3,1.16.4.26.08.6.22,1.04.4.46.18.8.38,1.02.56.74.58,1.54,1.54,1.44,2.88,0,1.26-.46,2.28-1.38,3.02-.9.74-2.1,1.1-3.58,1.1-2.7,0-4.66-1.3-5.4-3.44Z"/>
    <path class="cls-1" d="M325.38,139.41h2.16v10h-2.16v-1.44c-.82,1.14-1.98,1.7-3.5,1.7-1.38,0-2.54-.5-3.52-1.52s-1.46-2.28-1.46-3.74.48-2.72,1.46-3.74c.98-1.02,2.14-1.52,3.52-1.52,1.52,0,2.68.56,3.5,1.68v-1.42ZM322.22,147.61c.9,0,1.66-.3,2.26-.9.6-.62.9-1.38.9-2.3s-.3-1.68-.9-2.28c-.6-.62-1.36-.92-2.26-.92s-1.66.3-2.26.92c-.6.6-.9,1.36-.9,2.28s.3,1.68.9,2.3c.6.6,1.36.9,2.26.9ZM322.76,138.21c0-.94.12-1.16.62-1.56,0,0,.26-.16.24-.14.1-.06.3-.16.3-.44,0-.16-.1-.26-.4-.26-.34,0-.72.14-.88.64l-1.32-.56c.42-.98,1.14-1.46,2.2-1.46s1.88.58,1.88,1.62c0,.78-.44,1.24-.84,1.46-.24.12-.38.22-.32.7h-1.48Z"/>
    <path class="cls-1" d="M339.16,143.27v6.14h-2.16v-5.92c0-1.5-.86-2.32-2.24-2.32-1.52,0-2.54.94-2.54,2.88v5.36h-2.16v-10h2.16v1.28c.66-1.02,1.68-1.54,3.1-1.54,2.3,0,3.84,1.56,3.84,4.12Z"/>
    <path class="cls-1" d="M355.66,140.69c.98,1.02,1.46,2.26,1.46,3.72s-.48,2.72-1.46,3.74-2.14,1.52-3.52,1.52c-1.52,0-2.68-.56-3.5-1.68v5.42h-2.16v-14h2.16v1.44c.82-1.14,1.98-1.7,3.5-1.7,1.38,0,2.54.52,3.52,1.54ZM351.8,147.61c.9,0,1.66-.3,2.26-.9.6-.62.9-1.38.9-2.3s-.3-1.68-.9-2.28c-.6-.62-1.36-.92-2.26-.92s-1.66.3-2.26.92c-.6.6-.9,1.36-.9,2.28s.3,1.68.9,2.3c.6.6,1.36.9,2.26.9Z"/>
    <path class="cls-1" d="M368.18,143.27v6.14h-2.16v-5.92c0-1.5-.86-2.32-2.24-2.32-1.52,0-2.54.94-2.54,2.88v5.36h-2.16v-14h2.16v5.28c.66-1.02,1.68-1.54,3.1-1.54,2.3,0,3.84,1.56,3.84,4.12Z"/>
    <path class="cls-1" d="M378.42,139.41h2.16v10h-2.16v-1.44c-.82,1.14-1.98,1.7-3.5,1.7-1.38,0-2.54-.5-3.52-1.52-.98-1.02-1.46-2.28-1.46-3.74s.48-2.72,1.46-3.74c.98-1.02,2.14-1.52,3.52-1.52,1.52,0,2.68.56,3.5,1.68v-1.42ZM375.26,147.61c.9,0,1.66-.3,2.26-.9.6-.62.9-1.38.9-2.3s-.3-1.68-.9-2.28c-.6-.62-1.36-.92-2.26-.92s-1.66.3-2.26.92c-.6.6-.9,1.36-.9,2.28s.3,1.68.9,2.3c.6.6,1.36.9,2.26.9ZM375.96,136.83l-.98,1.38h-2.04l1.96-2.6h2.1l1.98,2.6h-2.04l-.98-1.38ZM378.1,136.31c0-.88.1-1.08.56-1.44,0,0,.24-.16.24-.14.08-.06.26-.14.26-.4,0-.16-.08-.24-.36-.24-.32,0-.68.12-.82.58l-1.22-.52c.38-.9,1.06-1.36,2.04-1.36s1.74.54,1.74,1.52c0,.72-.4,1.14-.78,1.36-.22.1-.34.2-.3.64h-1.36Z"/>
    <path class="cls-1" d="M397.8,143.21v6.2h-2.16v-6.06c0-1.38-.74-2.18-1.94-2.18-1.34,0-2.18.88-2.18,2.64v5.6h-2.16v-6.06c0-1.38-.68-2.18-1.88-2.18-1.3,0-2.22.9-2.22,2.64v5.6h-2.16v-10h2.16v1.2c.64-.98,1.6-1.46,2.86-1.46s2.22.52,2.84,1.58c.66-1.06,1.68-1.58,3.06-1.58,2.26,0,3.78,1.58,3.78,4.06Z"/>
  </g>
  <g>
    <g>
      <path class="cls-2" d="M205.52,52.3c9.08-.9,11.05,11.57,2.26,13.24-9.78,1.86-11.99-12.27-2.26-13.24Z"/>
      <path class="cls-2" d="M211.84,83.03l.08-1.2-3.07-11.55,1.16-2.59c3.2.18,6.2,2.02,7.81,4.59-4.32,3.29-3.95,10.07.07,13.38h-8.94l2.88-2.63Z"/>
      <path class="cls-2" d="M193.5,75.81c.45-4.16,4.66-7.95,9.14-8.12l1.13,2.69-3.18,12.03c0,.9,2.55,2.47,3.12,3.24h-10.21v-9.85Z"/>
      <path class="cls-2" d="M205.68,71.11c.4.03,1.05-.17,1.28.2l2.85,10.75-3.44,3.11c-.33.05-3.12-2.68-3.53-3.11l2.84-10.95Z"/>
      <polygon class="cls-2" points="207.77 67.68 207.1 69.12 205.74 69.15 205.53 69.07 204.89 67.68 207.77 67.68"/>
    </g>
    <g>
      <path class="cls-2" d="M239.78,52.5c9.08-.9,11.05,11.57,2.26,13.24-9.78,1.86-11.99-12.27-2.26-13.24Z"/>
      <path class="cls-2" d="M253.42,85.86h-10.21l2.89-2.62.09-1.2-3.07-11.55,1.16-2.59c3.73.21,7.19,2.66,8.49,5.91.2.49.65,1.87.65,2.33v9.72Z"/>
      <path class="cls-2" d="M237.97,85.85h-8.63c4.88-3.3,4.48-10.5.01-13.77,1.7-2.36,4.56-4.07,7.56-4.18l1.12,2.68-3.17,12.04c0,.89,2.55,2.47,3.11,3.24Z"/>
      <path class="cls-2" d="M239.94,71.31c.4.03,1.05-.17,1.28.2l2.85,10.75-3.44,3.11c-.33.05-3.12-2.68-3.53-3.11l2.84-10.95Z"/>
      <polygon class="cls-2" points="242.03 67.87 241.35 69.32 240 69.35 239.79 69.27 239.15 67.87 242.03 67.87"/>
    </g>
    <g>
      <path class="cls-2" d="M229.34,85.85c-1.01.69-2.25,1.21-3.72,1.49-3.27.62-5.89-.16-7.72-1.68-4.02-3.31-4.39-10.08-.07-13.38,1.24-.96,2.87-1.62,4.92-1.83,2.73-.27,4.95.41,6.6,1.62,4.47,3.27,4.86,10.47-.01,13.77Z"/>
      <path class="cls-2" d="M240.14,113h-13.02l3.68-3.35.11-1.53-3.92-14.73,1.48-3.3c4.76.27,9.16,3.39,10.83,7.54.25.63.83,2.38.83,2.97v12.4Z"/>
      <path class="cls-2" d="M207.42,100.44c.58-5.31,5.94-10.14,11.66-10.35l1.44,3.43-4.06,15.35c.01,1.14,3.25,3.15,3.98,4.13h-13.02v-12.56Z"/>
      <path class="cls-2" d="M222.95,94.44c.51.04,1.34-.21,1.64.25l3.64,13.71-4.38,3.96c-.42.07-3.98-3.42-4.51-3.96l3.62-13.96Z"/>
      <polygon class="cls-2" points="225.61 90.07 224.75 91.91 223.02 91.95 222.76 91.84 221.94 90.07 225.61 90.07"/>
    </g>
  </g>
  <circle class="cls-4" cx="216.45" cy="210.5" r="48.82"/>
  <g>
    <path class="cls-1" d="M98.32,149.41c2.43.69,3.51,3.72,1.6,5.58-1.45,1.41-2.96.65-4.63.9-1.44.22-1.52,2.24-.01,2.42,2.78.33,6.19-.25,9.04,0,3.06.26,4.36,3.42,2.22,5.67.23.17,4.88-.99,5.72-.95.78.04,1.72.68,1.9,1.48l.06,47.13.13.28c1.07.07,1.76.73,2.16,1.68v3.24c-.38.89-1.03,1.6-2.08,1.62h-57.31c-.85.03-1.43-.77-.99-1.54.08-.13.48-.49.59-.49h57.77v-2.43H49.51v2.43h3.71c.7,0,1.19,1.72-.03,1.99-.59.13-3.22.11-3.87.02-.91-.12-1.7-.9-1.82-1.82-.14-1.02-.18-3.31.57-4.05.09-.09.91-.58.97-.58h5.19v-20.36h-2.9c-.57,0-1.58-1.03-1.55-1.68v-16.45c.1-.83.84-1.58,1.69-1.69h7.35c-.51-1.91.28-3.85,2.26-4.41,4.48-.36,9.44.36,13.86-.03.96-.08,1.7-.46,1.54-1.55-.12-.81-.85-.97-1.54-1.03-2.19-.19-4.89.28-7,0-2.55-.35-3.41-3.98-1.47-5.63,1.07-.91,5.07-1.62,4.76.44-.17,1.16-1.75.64-2.61.76-1.58.22-1.57,2.25-.15,2.42,2.08.24,4.61-.19,6.74,0,4.65.42,4.32,6.44-.13,6.6l-13.59.03c-.82.18-1.03,1.34-.5,1.93.08.09.7.47.75.47h25.95v-2.43c-5.14.71-6.25-6.11-1.02-6.61h18.07c1.32-.59,1.06-2.25-.4-2.43-2.93-.35-6.66.39-9.56,0-2.5-.34-3.49-3.82-1.57-5.59,1.52-1.39,2.96-.62,4.65-.88,1.47-.23,1.29-2.45-.26-2.43l-20.44.07c-1.06.39-1.06,1.98,0,2.31s3.71-.07,5.06.06c3.8.38,4.13,5.66.39,6.46l-8.69-.05c-.95-.43-.71-1.65.24-1.93l8.19-.03c.86-.33,1.25-1.44.48-2.09-1.33-1.13-5.78.76-7.69-1.34-1.74-1.92-.64-4.82,1.75-5.46h21.44ZM101.69,164.78h-15.3c-1,0-1.59,1.67-.66,2.28.55.36,2.27.34,2.94.27,3.69-.4,8.8-1.53,12.51-2.32.16-.03.54-.02.51-.23ZM112.21,165.05l-22.52,4.04v38.43h4.72v-7.35c0-.05.28-.64.34-.74.42-.62,1.19-.86,1.9-.93,2.11-.23,6.33-.19,8.48-.02.6.05,1.26.17,1.73.57.22.19.76,1.02.76,1.26v7.21h4.58v-42.47ZM87.67,173.81h-35.86v15.77h35.86v-15.77ZM87.67,191.61h-31.41v15.91h2.43v-11.93c0-.56,1.44-1.67,2.09-1.55l22.83.09c.61.09,1.64.98,1.64,1.59v11.8h2.43v-15.91ZM83.22,196.06h-22.52v2.43h22.52v-2.43ZM83.22,200.51h-22.52v2.56h22.52v-2.56ZM105.6,211.97v-11.26l-.2-.2h-8.76l-.2.2v11.26h9.17ZM83.22,205.09h-22.52v2.43h22.52v-2.43ZM58.68,209.54h-2.43v2.43h2.43v-2.43ZM83.22,209.54h-22.52v2.43h22.52v-2.43ZM87.67,209.54h-2.43v2.43h2.43v-2.43ZM94.41,209.54h-4.72v2.43h4.72v-2.43ZM112.21,209.54h-4.58v2.43h4.58v-2.43Z"/>
    <path class="cls-1" d="M54.87,158.34c1.13-.15,4.83-.17,5.83.17,3.18,1.08,2.69,5.84-.35,6.25-1.15.16-4.47.14-5.65.01-3.56-.4-3.75-5.91.17-6.44ZM55,160.36c-1.21.24-1.4,1.8-.27,2.37,1.59-.12,3.69.26,5.22.02,1.2-.19,1.27-2.05-.05-2.36-.63-.15-4.25-.16-4.9-.03Z"/>
    <path class="cls-1" d="M107.63,185.13c.75,0,1.7.47,1.98,1.18.24.59.27,3.19.14,3.85-.18.86-1.11,1.38-1.92,1.45-4.36.41-9.34-.32-13.76,0-.99-.04-1.77-.92-1.91-1.86-.28-1.83-.21-4.67,2.26-4.62v-11.53c.07-.86.83-1.72,1.68-1.82,3.07.23,6.56-.29,9.58,0,1.18.11,1.93,1.08,1.95,2.23v11.12ZM105.6,173.81h-9.17v2.43h9.17v-2.43ZM99.94,178.26h-3.51v6.88h3.51v-6.88ZM105.6,178.26h-3.64v6.88h3.64v-6.88ZM107.76,187.16h-13.62v2.43h13.62v-2.43Z"/>
    <path class="cls-1" d="M55.81,176.27l27.95.03c.78.22,1.24.89,1.47,1.64l-.05,7.75c-.3.7-.95,1.39-1.75,1.48l-27.61-.03c-.74-.25-1.4-.73-1.55-1.55-.24-1.31-.18-6.09-.04-7.53.09-.96.67-1.51,1.59-1.78ZM60.84,178.26h-4.58v6.88h4.58v-6.88ZM65.42,178.26h-2.56v6.88h2.56v-6.88ZM72.03,178.26h-4.58v6.88h4.58v-6.88ZM76.48,178.26h-2.43v6.88h2.43v-6.88ZM83.22,178.26h-4.72v6.88h4.72v-6.88Z"/>
  </g>
  <g>
    <path class="cls-7" d="M381.61,191.81h3.17s.72.28.83.34c.69.36,1.21,1.02,1.5,1.74,1.39,3.4,1.99,7.8,3.19,11.33-.07,1.92-1.58,3.3-3.51,3.17v13.8c-.22,1.48-1.39,2.69-2.91,2.79h-48.98c-1.51-.04-2.76-1.22-3.03-2.67v-13.92c-2.59.36-4.74-1.12-4.23-3.89,1.46-3.35,2.28-7.45,3.8-10.71.38-.81,1.47-1.98,2.42-1.98h2.14c.31-2.92-1.26-7.4,2.67-8.28h40.15c.96.11,1.78.64,2.3,1.45.1.16.49.96.49,1.07v5.76ZM368.14,185.59h-29.34c-.15,0-.71.56-.71.71v5.51h30.06v-6.22ZM379.54,191.81v-5.51c0-.15-.56-.71-.71-.71h-8.61v6.22h9.33ZM367.62,193.89h-33.49c-.38,0-.64.49-.77.78-1.47,3.13-2.24,7-3.67,10.2-.13.55,0,1.09.52,1.36l32.62.04.71-.72,4.08-11.66ZM384.53,193.89h-13.93c.58,1.54,2.91,11.72,3.63,12.24.22.16.44.21.7.2,3.88-.28,8.23.35,12.06,0,.65-.06,1.04-.23,1.2-.88l-3.21-11.24c-.07-.08-.38-.3-.46-.32ZM368.14,222.9v-23.84c-.19-.03-.17.22-.23.36-.87,2.19-1.53,5.15-2.55,7.16-.38.74-1.48,1.81-2.34,1.81h-29.08v13.8c0,.15.56.71.71.71h33.49ZM384.72,208.39h-10.43c-.55,0-1.76-.94-2.03-1.46l-2.05-6.44v22.41h13.8c.15,0,.71-.56.71-.71v-13.8Z"/>
    <path class="cls-7" d="M357,170.05h1.88c.06,0,.97.38,1.1.46.72.46,1.35,1.46,1.43,2.33.09.93-.89,5.23-1.23,6.29-.39,1.22-1.3,2.16-2.61,2.31-1.52.18-5.05.16-6.6.02-.98-.09-1.74-.64-2.52-1.17v1.17h-7.26v-13.47h7.25v2.07l1.41-.02c.91-2.41,1.72-5.94,5.13-5.03,2.32.62,2.59,3.04,2.02,5.04ZM351.3,172.12h-2.85v5.64l2.53,1.61c1.96-.12,4.16.19,6.09.01.61-.06.83-.17,1.06-.75.31-.79,1.14-4.46,1.19-5.3.03-.42-.24-1.21-.7-1.21h-4.21c.15-1.18.91-3.09.78-4.21s-1.54-1.28-2.11-.42l-1.78,4.63ZM346.38,170.05h-3.11v9.33h3.11v-9.33Z"/>
    <path class="cls-7" d="M373.32,182.36l-4.1-2.69-4.19,2.69v-8.74c0-.09-.92-.96-1.14-1.32-2.04-3.32-.58-7.71,3.05-9.08,5.57-2.1,10.64,4.01,7.52,9.08-.22.36-1.14,1.23-1.14,1.32v8.74ZM368.63,164.9c-5.19.63-4.52,8.64.87,8.25s4.8-8.94-.87-8.25ZM371.25,174.84c-1.3.54-2.84.54-4.15,0v3.63l2.13-1.3,2.02,1.3v-3.63Z"/>
    <path class="cls-7" d="M328.11,176.4c3.92-2.62,7.95-.59,9.7,3.41l-1.59,1.11c-.22-.04-1.28-1.86-1.57-2.19-1.47-1.71-3.44-1.82-5.3-.65l-1.24-1.67Z"/>
    <path class="cls-7" d="M378.89,173.03l-.77-1.93c1.38-.48,2.66-1.53,4.11-1.79,1.99-.36,4.2.4,5.33,2.13.05.3-1.29,1.03-1.58,1.19-2.24-2.68-4.64-.63-7.08.4Z"/>
    <path class="cls-7" d="M329.79,166.94c3.28,0,6.38,1.77,8.03,4.59l-1.68,1.24c-1.21-2.31-3.75-3.75-6.35-3.76v-2.07Z"/>
    <path class="cls-7" d="M342.04,162.79c.46.04,3.66.86,3.7,1.11l-.79,1.87c-.08.06-1.05-.42-1.27-.48-.36-.1-1.49-.43-1.78-.43h-3.82v-2.07c1.28.09,2.69-.12,3.95,0Z"/>
    <path class="cls-7" d="M386.8,183.52h-2.07c-.02-1.94-1.6-2.95-3.37-3.11l.52-2.07c2.7.44,4.91,2.28,4.92,5.18Z"/>
    <path class="cls-7" d="M379.76,162.16c.3-.08,1.53,1.14,1.45,1.45-.05.2-2.81,2.97-3.01,2.93l-1.37-1.46,2.93-2.92Z"/>
    <path class="cls-7" d="M330.4,182.89c.25-.07,2.04,1.68,2.1,1.89.07.26-1.05,1.4-1.24,1.45-.25.07-2.04-1.68-2.1-1.89-.07-.26,1.05-1.4,1.24-1.45Z"/>
    <rect class="cls-7" x="358.81" y="162.79" width="2.07" height="2.07"/>
    <rect class="cls-7" x="376.43" y="176.27" width="2.07" height="2.07"/>
    <rect class="cls-7" x="337.05" y="217.72" width="8.29" height="2.07"/>
  </g>
  <g>
    <path class="cls-1" d="M178.16,336.11l16.94.07c.4.21.6.59.58,1.04l-.11,24.1c-.24.46-.56.53-1.04.58-5.08.46-10.85-.36-16.01,0-.68.03-1.17-.46-1.14-1.14v-23.54c-.02-.53.27-.96.77-1.11ZM181.69,338.23h-2.15v21.51h13.98v-21.51h-2.15v3.56c0,.36-.66.7-1.01.74-1.71.2-5.79.16-7.54,0-.38-.03-1.14-.3-1.14-.75v-3.56ZM189.22,338.23h-5.38v2.15h5.38v-2.15Z"/>
    <path class="cls-1" d="M161.62,355.47c.53-.12,2.74-.1,3.34-.03,1.8.21.81,3.23,2.44,3.6s2.58-1.8,3.88-1.05c.19.11,2.53,2.48,2.59,2.66.42,1.39-1.71,2.35-1.08,3.9.5,1.23,2.86.73,3.38,1.73.25.48.25,3.65,0,4.13-.53,1.03-3.11.47-3.45,1.93s1.79,2.6,1.05,3.88c-.11.19-2.48,2.53-2.66,2.59-1.4.42-2.31-1.73-3.9-1.08-1.23.5-.73,2.86-1.73,3.38-.48.25-3.65.25-4.13,0-1.03-.53-.47-3.11-1.93-3.45s-2.6,1.79-3.88,1.05c-.19-.11-2.53-2.48-2.59-2.66-.42-1.39,1.71-2.35,1.08-3.9-.5-1.23-2.86-.73-3.38-1.73-.25-.48-.25-3.65,0-4.13.53-1.03,3.11-.47,3.45-1.93s-1.79-2.6-1.05-3.88c.11-.19,2.48-2.53,2.66-2.59,1.39-.42,2.35,1.71,3.9,1.08,1.31-.53.65-3.19,2.01-3.5ZM162.82,357.61c-.26.09-.34.97-.46,1.28-.85,2.11-2.92,2.85-5,1.99-.29-.12-.86-.63-1.12-.58-1.36,1.02-.72.94-.29,1.99,1.12,2.73-.51,4.88-3.23,5.37-.33,1.77.13,1.28,1.24,1.73,2.11.85,2.85,2.93,1.99,5-.12.29-.63.86-.58,1.12,1.02,1.36.94.72,1.99.29,2.73-1.12,4.88.51,5.37,3.23,1.77.33,1.28-.13,1.73-1.24.85-2.11,2.93-2.85,5-1.99.29.12.86.63,1.12.58,1.36-1.02.72-.94.29-1.99-1.12-2.73.51-4.88,3.23-5.37.33-1.77-.13-1.28-1.24-1.73-2.11-.85-2.85-2.93-1.99-5,.12-.29.63-.86.58-1.12-1.02-1.36-.94-.72-1.99-.29-2.73,1.12-4.88-.51-5.37-3.23l-1.27-.04Z"/>
    <path class="cls-1" d="M176.01,336.18c-.88.88-2.51-.75-3.37-1.19-2.24-1.15-4.54-1.37-6.94-.58-1.15.38-2.06,1.11-3.14,1.56-2.77,1.16-6.06,1.11-8.79-.14-.9-.41-3.16-1.65-3.27-2.64.33-4.81-.43-10.19,0-14.93.07-.81.53-1.3,1.39-1.11.54.12,2.21,1.44,3.06,1.79,5.73,2.35,7.88-1.89,12.84-2.21,2.51-.17,6.3.99,8.13,2.76.35.34.37.6.41,1.06.43,4.65-.34,9.95,0,14.67,0,.27-.13.78-.31.96ZM174.16,333.39v-12.44c-2.28-1.89-5.31-2.56-8.17-1.72-1.44.43-2.6,1.38-4.03,1.88-3.12,1.1-6.46.73-9.31-.91v12.5c2.47,1.69,5.29,2.47,8.23,1.58,1.24-.38,2.26-1.2,3.43-1.68,3.22-1.32,6.9-1.07,9.85.77Z"/>
    <path class="cls-1" d="M133.29,343.21c-.19.2.73,1.24,1.13,1.06,4.65-.77,9.25-1.92,13.91-2.64.43-.07,1-.24,1.41-.15.81.17,1.04,1.33.44,1.86-.71.62-4.89.85-5.99,1.27-.39.26.16.97.53,1.09.43.13,4.66.14,5.15.03.79-.18,1.71-1.98,2.59-2.12.56-.09,3.21-.09,3.73.02.69.15.93.94.67,1.55-.46,1.07-2.78.32-3.7.6-.4.12-1.39,1.53-2.29,1.88-.96.38-4.78.35-5.95.25-1.67-.15-2.62-1.33-3.11-2.84l-7.26,1.34c-2.17-.03-3.61-1.67-3.41-3.83.1-1.05.62-1.02,1.45-1.37,3.63-1.54,8.62-3.64,12.33-4.74,2.79-.83,5.24,1.31,7.83,1.72.96.15,3.38-.27,3.94.37.52.58.28,1.61-.5,1.79-.58.13-2.94.1-3.6.03-1.93-.21-4.41-1.77-6.44-2.01l-12.85,4.84Z"/>
    <path class="cls-1" d="M146.22,351.8l7.45-1.33c1.74.1,3.12,1.25,3.29,3.03.06.65.11,1.52-.58,1.84-4.39,1.38-8.84,3.78-13.2,5.09-2.79.83-5.24-1.31-7.83-1.72-.96-.15-3.27.23-3.87-.3-.57-.5-.41-1.59.33-1.82.48-.15,3.1-.13,3.7-.06,1.93.21,4.41,1.77,6.44,2.01l12.85-4.84c.16-.17-.55-.99-.8-1.02l-15.52,2.77c-.92-.11-1.22-1.42-.48-1.95.93-.65,4.67-.71,5.92-1.21.36-.59-.31-1.08-.87-1.15-.9-.1-3.84-.13-4.7.01s-1.69,1.71-2.49,2.08c-1.06-.09-4.4.62-4.69-.71-.47-2.13,2.76-1.11,3.78-1.41.4-.12,1.39-1.53,2.29-1.88s4.95-.36,6.08-.24c1.47.16,2.62,1.4,2.91,2.81Z"/>
    <path class="cls-1" d="M135.14,361.79c1.3-.28,1.77,1.63,2.35,2.57,3.39,5.5,7.96,9.47,13.76,12.32.64.6.29,1.65-.56,1.75s-3.41-1.47-4.21-1.96c-4.22-2.61-7.96-6.33-10.55-10.55-.34-.55-1.54-2.52-1.57-3.02s.27-1,.78-1.11Z"/>
    <path class="cls-1" d="M147.38,321.05c.97-.19,1.6.82,1.12,1.66-.16.28-3.58,2.48-4.24,3.02-3.07,2.52-5.59,5.71-7.49,9.18-.42.76-.94,2.36-1.39,2.91-.67.81-1.89.22-1.94-.61-.03-.56,1.6-3.64,1.99-4.32,2.23-3.88,5.49-7.49,9.12-10.1.54-.39,2.3-1.64,2.83-1.75Z"/>
    <path class="cls-1" d="M175.54,376.58c5.97-2.62,10.75-7.16,14.14-12.68.62-.37,1.52-.08,1.67.65s-1.28,2.64-1.75,3.3c-2.81,3.93-6.98,7.63-11.31,9.79-.76.38-2.18,1.32-2.84.38-.36-.51-.19-.95.1-1.44Z"/>
    <path class="cls-1" d="M178.97,321.05c.73-.15,2.63,1.27,3.3,1.75,2.33,1.66,4.63,3.85,6.41,6.1.55.69,2.7,3.6,2.7,4.3,0,.85-.97,1.32-1.7.88-.29-.17-1.59-2.37-1.96-2.88-2.58-3.47-5.74-6.19-9.4-8.48-.37-.61-.09-1.52.65-1.67Z"/>
    <path class="cls-1" d="M184.61,345.79c1.03-.23,1.71.71,1.23,1.64-.1.19-2.29,2.39-2.49,2.49-1.07.56-2.07-.44-1.51-1.51.17-.32,2.47-2.55,2.77-2.61Z"/>
    <path class="cls-1" d="M184.61,352.24c1.03-.23,1.71.71,1.23,1.64-.1.19-2.29,2.39-2.49,2.49-1.07.56-2.07-.44-1.51-1.51.17-.32,2.47-2.55,2.77-2.61Z"/>
    <path class="cls-1" d="M187.84,347.94c.42-.09,2.48-.09,2.87.03.96.3.9,1.91-.22,2.08-.45.07-2.36.07-2.76-.05-.93-.29-.89-1.84.1-2.06Z"/>
    <path class="cls-1" d="M187.84,354.39c.42-.09,2.48-.09,2.87.03.96.3.9,1.91-.22,2.08-.45.07-2.36.07-2.76-.05-.93-.29-.89-1.84.1-2.06Z"/>
    <path class="cls-1" d="M162.71,363.01c7.37-.85,8.18,10.19,1.17,10.71s-7.89-9.94-1.17-10.71ZM162.83,365.15c-3.97.63-3.22,6.94,1.03,6.41s3.36-7.1-1.03-6.41Z"/>
    <path class="cls-1" d="M162.7,323.61c4.69-.8,5.26,6,1.03,6.41s-4.78-5.77-1.03-6.41ZM164.18,327.57c1.04-1.04-.61-2.6-1.58-1.51s.67,2.42,1.58,1.51Z"/>
    <path class="cls-1" d="M168.48,324.28c.52-.12,2.33.12,2.83.34,1.05.48.89,1.98-.3,2.06-.24.02-2.54-.3-2.72-.38-.85-.36-.74-1.81.2-2.02Z"/>
    <path class="cls-1" d="M155.71,326.83c.14-.03,2.7.38,2.85.46.7.34.7,1.36.08,1.81-.54.39-2.77.08-3.35-.29-.88-.55-.42-1.83.42-1.98Z"/>
  </g>
  <g>
    <path class="cls-1" d="M313.47,350.11v5.88h.87s.4,2.1.4,2.1c.67.13,1.71.95,2.34.71.38-.14.93-.74,1.35-.92.15-.06.23.02.35.1.2.13,2.14,2.06,2.17,2.22l-1.09,1.75.84,2.09,2.14.53-.02,3.29-2.08.42-.88,2.07,1.05,1.91-2.28,2.24-1.73-.99-2.15.78-.48,2.11h-3.43s-.36-2.06-.36-2.06c-.06-.09-1.81-.79-1.98-.81-.55-.07-1.24.72-1.75.96-.11.05-.18,0-.28-.04-.14-.07-2.21-2.1-2.22-2.26l1.09-1.75-.86-2.11c-.43-.25-1.92-.12-2.01-.64-.05-.28-.07-3.04.02-3.18l1.95-.42.88-2.06-1.04-1.92,2.28-2.24c.34-.09,1.17.79,1.54.92.67.25,1.59-.56,2.28-.68l.46-2.14h.87v-5.89c-3.38-.6-5.32-3.96-4.15-7.22,1.44-3.99,7.1-4.69,9.45-1.15,2.23,3.35.36,7.69-3.55,8.38ZM311.01,346.95c.25.2.8.23,1.09.1.54-.78,3.11-2.73,3.32-3.44.17-.56-.29-1.16-.88-1.14-.79.03-2.07,1.89-2.75,2.39-.22-1.38-2.24-1.51-2.01-.12.03.21,1.1,2.11,1.24,2.21ZM311.82,361.04c-6.5.84-5.59,11.19,1.58,10.34,6.44-.76,5.59-11.26-1.58-10.34Z"/>
    <path class="cls-1" d="M281.84,364.53l-.04,3.37-1.92.4-.89,2.07,1.05,1.91-2.38,2.35-1.63-1.1-2.15.78-.41,2.1h-3.49s-.41-2.1-.41-2.1c-.62-.07-1.39-.69-1.94-.76s-1.24.72-1.75.96c-.11.05-.18,0-.28-.04-.15-.07-2.21-2.12-2.24-2.28l1.06-1.73-.81-2.12-2.14-.53.02-3.29,2.08-.42.88-2.06-1.04-1.92,2.28-2.24c.34-.09,1.17.79,1.54.92.65.24,1.59-.58,2.29-.67l.53-2.15,3.31.06.43,1.95c.06.09,1.72.82,1.91.85.81.16,1.62-1.16,2.15-.92.14.07,2.21,2.1,2.22,2.26l-1.09,1.75.8,2.07,2.04.52ZM270.96,361.04c-6.47.78-5.66,11.2,1.58,10.34,6.37-.75,5.6-11.21-1.58-10.34Z"/>
    <path class="cls-1" d="M277.98,343.98h27.49v1.75h-27.49c-.92,4.52-6.49,6.1-9.5,2.44-2.06-2.5-1.33-6.35,1.42-7.97,3.33-1.97,7.44.02,8.08,3.78ZM274.32,342.5c-.39.12-2.23,2.36-2.4,2.35-.48-.54-.56-1.3-1.47-1.1-1.3.29,0,2.38.48,2.97.35.44.72.54,1.25.27l3.24-3.26c.3-.76-.3-1.47-1.1-1.23Z"/>
    <path class="cls-1" d="M278.36,317.93h34.55c.23,0,.62.54.56.81-.3,4.36.39,9.23,0,13.53-.04.46-.29,1.06-.82,1.06h-13.18v-1.75h12.25v-11.89h-33.24c1.04.85.38,2.3-.92,1.61-.41-.22-2.22-1.54-2.52-1.86-.34-.36-.41-.6-.17-1.05.16-.31,2.75-2.28,3.05-2.33,1.27-.2,1.33,1.27.43,1.88Z"/>
    <path class="cls-1" d="M287.11,333.33h-13.62v4.38h-1.75v-5.32c0-.24.47-.9.81-.82h14.36s.14-.12.14-.12c.66-3.53,4.47-5.44,7.73-3.87s3.91,5.78,1.64,8.37c-2.94,3.37-8.66,1.81-9.31-2.63ZM291.48,332.46c-.13-1.04-1.59-1.7-1.95-.5-.12.39.89,2.3,1.2,2.57.27.23.8.27,1.12.13.77-1.02,2.46-2.13,3.13-3.13.57-.86-.14-1.74-1.09-1.35-.38.16-2.27,2.38-2.4,2.28Z"/>
    <path class="cls-1" d="M262.36,328.89c-.17.61-1.57.7-1.74-.51.27-4.18-.4-8.9-.02-13.01.17-1.86,2.09-1.44,1.77.31,2.83,1.08,5.28-1.41,8.11-.36v5.88c-2.26-1.02-4.52.78-6.68.62-.47-.03-.95-.27-1.44-.25v7.32Z"/>
    <path class="cls-1" d="M302.19,355.15c.89-.2,3.4-.2,2.69,1.32-.25.54-2.46.54-2.9.34-.71-.32-.62-1.47.21-1.66Z"/>
    <path class="cls-1" d="M279.95,355.15c.37-.08,1.82-.08,2.17.03.88.28.71,1.55-.07,1.69-.34.06-2.01.05-2.32-.05-.78-.25-.58-1.49.22-1.67Z"/>
    <path class="cls-1" d="M279.82,375.55c.3-.09,1.98-.07,2.29.03.85.27.77,1.48-.1,1.67-.32.07-1.91.08-2.2,0-.78-.23-.78-1.47,0-1.7Z"/>
    <path class="cls-1" d="M285.45,375.56c.63-.14,2.58-.24,2.76.57.32,1.45-1.59,1.27-2.54,1.16-1.14-.13-1.08-1.54-.22-1.73Z"/>
    <path class="cls-1" d="M296.57,375.56c.4-.09,2.03-.08,2.38.07.68.28.61,1.5-.29,1.65-.38.06-1.96.06-2.27-.09-.62-.28-.56-1.46.18-1.63Z"/>
    <path class="cls-1" d="M302.19,375.55c.61-.14,2.44-.19,2.72.48.62,1.46-2,1.45-2.81,1.19s-.78-1.48.1-1.67Z"/>
    <path class="cls-1" d="M291.07,355.15c.37-.08,1.82-.08,2.17.03.7.22.86,1.2.19,1.58-.29.16-2.13.2-2.48.09-.74-.22-.79-1.5.13-1.7Z"/>
    <path class="cls-1" d="M296.14,355.4c.41-.44,3.75-.81,3.19,1.01-.2.67-2.81.61-3.16.21-.24-.28-.28-.95-.03-1.22Z"/>
    <path class="cls-1" d="M288.07,355.4c.25.27.2.94-.03,1.22-.35.41-2.95.46-3.16-.21-.55-1.79,2.77-1.46,3.19-1.01Z"/>
    <path class="cls-1" d="M291.07,375.55c.63-.14,2.39-.19,2.69.51.62,1.42-2.02,1.4-2.79,1.16-.85-.27-.78-1.48.1-1.67Z"/>
  </g>
  <g>
    <path class="cls-5" d="M157.66,189.34l.85.22c1.7.43,2.95,1.35,3.75,2.74.8,1.39.95,2.99.49,4.8-.49,1.91-1.51,3.33-3.06,4.27-1.55.92-3.23,1.15-5.04.7-1.79-.45-3.15-1.46-4.07-3.01-.94-1.58-1.16-3.27-.7-5.11.59-2.32,2.25-4.04,4.31-4.65l.56,2.01c-1.35.35-2.48,1.53-2.89,3.14-.33,1.29-.18,2.48.46,3.52.64,1.05,1.59,1.74,2.86,2.07,1.27.32,2.44.17,3.49-.45,1.05-.64,1.76-1.64,2.1-3,.56-2.19-.19-3.91-1.81-4.72l-1.05,4.14-1.82-.46,1.58-6.19Z"/>
    <path class="cls-5" d="M164.07,188.66c-1.25.41-2.47.33-3.68-.28-1.21-.61-2-1.54-2.41-2.79s-.3-2.48.3-3.67c.61-1.21,1.53-2.01,2.78-2.42s2.48-.33,3.68.28c1.21.61,2,1.54,2.41,2.79.41,1.25.31,2.47-.3,3.67-.6,1.19-1.53,2.01-2.78,2.42ZM165.14,185.37c.36-.72.42-1.44.18-2.18-.24-.74-.74-1.29-1.47-1.66s-1.48-.44-2.21-.2c-.74.24-1.28.72-1.65,1.44-.36.72-.42,1.44-.18,2.18.24.74.74,1.29,1.47,1.66s1.48.44,2.21.2c.74-.24,1.28-.72,1.65-1.44Z"/>
    <path class="cls-5" d="M169.13,179.4c-1.31.17-2.49-.14-3.57-.96-1.07-.82-1.68-1.89-1.85-3.19-.17-1.31.16-2.5.98-3.55.82-1.07,1.87-1.69,3.18-1.87s2.49.14,3.57.96c1.07.82,1.68,1.89,1.86,3.19.17,1.31-.15,2.48-.98,3.55-.81,1.06-1.87,1.69-3.18,1.87ZM170.79,176.37c.49-.64.68-1.34.58-2.11-.1-.77-.49-1.41-1.14-1.91-.65-.5-1.37-.7-2.14-.6s-1.4.47-1.89,1.11c-.49.64-.68,1.34-.58,2.11.1.77.49,1.41,1.14,1.91s1.37.7,2.14.6,1.4-.47,1.89-1.11Z"/>
    <path class="cls-5" d="M172.81,158.35l1.48-1.31,8.48,9.56-1.47,1.31-.87-.98c.13,1.28-.32,2.36-1.36,3.28-.94.84-2.04,1.2-3.32,1.09-1.29-.1-2.38-.67-3.26-1.67-.9-1.01-1.32-2.15-1.27-3.44s.54-2.33,1.48-3.17c1.04-.92,2.17-1.24,3.41-.97l-3.28-3.7ZM178.05,168.6c.61-.54.95-1.21,1-1.98.03-.79-.22-1.49-.78-2.12-.56-.63-1.22-.97-2-1.01-.79-.06-1.49.2-2.1.74-.61.55-.95,1.21-.99,2-.05.77.21,1.47.77,2.1.56.63,1.22.97,2.01,1.02.77.05,1.47-.21,2.09-.75Z"/>
    <path class="cls-5" d="M193.64,146.42l5.25,11.65-1.91.86-3.75-8.31-.9,7.46-.23.1-6.2-4.28,3.75,8.32-1.91.86-5.26-11.65,2.06-.93,6.14,4.24.9-7.42,2.05-.92Z"/>
    <path class="cls-5" d="M205.91,147.34l1.93-.39,1.79,8.95-1.93.39-.26-1.29c-.53,1.17-1.47,1.88-2.83,2.15-1.23.25-2.36,0-3.42-.73s-1.71-1.78-1.97-3.09c-.26-1.32-.06-2.52.64-3.61.7-1.09,1.64-1.74,2.88-1.99,1.36-.27,2.5.02,3.43.88l-.25-1.27ZM204.54,155.24c.81-.16,1.43-.56,1.86-1.21.43-.66.56-1.4.39-2.22-.16-.82-.57-1.45-1.21-1.88-.65-.45-1.38-.58-2.19-.42-.81.16-1.43.56-1.86,1.23-.43.64-.56,1.38-.4,2.2.16.82.57,1.45,1.22,1.9.64.43,1.38.56,2.18.4Z"/>
    <path class="cls-5" d="M219.57,150.06l.09,5.6-1.97.03-.09-5.4c-.02-1.37-.82-2.1-2.08-2.08-1.39.02-2.3.89-2.28,2.66l.08,4.89-1.97.03-.15-9.12,1.97-.03.02,1.17c.59-.94,1.51-1.43,2.81-1.45,2.1-.03,3.53,1.37,3.56,3.7Z"/>
    <path class="cls-5" d="M228.8,147.84l1.94.33-1.51,9-1.94-.33.19-1.15c-.75.82-1.75,1.13-3.02.92-2.07-.35-3.22-1.98-2.83-4.29l.93-5.53,1.94.33-.89,5.33c-.23,1.35.42,2.22,1.67,2.43,1.37.23,2.43-.46,2.72-2.21l.81-4.83Z"/>
    <path class="cls-5" d="M238.95,148.62c-1.34-.56-2.2-.2-2.6,1.07l-.06.17,2.05.65-.57,1.81-2.05-.65-2.19,6.89-1.88-.6,2.19-6.89-1.32-.42.57-1.81,1.32.42.05-.17c.76-2.38,2.53-3.26,5.05-2.28l-.57,1.81Z"/>
    <path class="cls-5" d="M246.37,154.14l1.78.86-3.97,8.22-1.78-.86.57-1.18c-1.13.61-2.3.61-3.55,0-1.13-.55-1.89-1.42-2.29-2.65-.4-1.23-.29-2.45.29-3.65.59-1.22,1.48-2.04,2.69-2.49,1.21-.45,2.36-.4,3.5.15,1.25.6,1.98,1.53,2.21,2.77l.56-1.17ZM240.51,159.63c.74.36,1.48.41,2.21.16.74-.27,1.29-.78,1.65-1.53.37-.76.42-1.5.17-2.23-.25-.75-.75-1.3-1.49-1.65-.74-.36-1.48-.41-2.22-.14-.73.25-1.28.76-1.65,1.52-.37.76-.42,1.5-.17,2.25.25.73.76,1.28,1.5,1.64Z"/>
    <path class="cls-5" d="M246.97,163.74c-.19-1.29.12-2.47.92-3.56.81-1.1,1.85-1.75,3.12-1.94,1.3-.2,2.5.11,3.6.92,1.43,1.05,2.16,2.71,1.89,4.31l-1.95-.21c.18-.96-.21-1.9-1.1-2.55-.65-.48-1.36-.65-2.12-.54-.75.13-1.37.51-1.86,1.17s-.67,1.37-.56,2.12c.12.77.5,1.39,1.15,1.86.87.64,1.93.74,2.79.3l.8,1.79c-1.5.71-3.29.53-4.72-.52-1.1-.81-1.76-1.86-1.96-3.16Z"/>
    <path class="cls-5" d="M261.74,168.32l-1.62-1.59-3.07,3.13c-.82.83-.26,1.36.86,2.35l-1.24,1.26c-2.41-1.85-2.7-3.29-1.03-5l3.07-3.13-1.2-1.18,1.33-1.35,1.2,1.18,1.38-1.41,1.82.96-1.79,1.82,1.62,1.59-1.33,1.36Z"/>
    <path class="cls-5" d="M268.67,173.89l1.19,1.57-7.29,5.5-1.19-1.57.93-.7c-1.11.08-2.05-.38-2.83-1.41-1.26-1.68-.98-3.66.89-5.06l4.47-3.38,1.19,1.57-4.31,3.26c-1.09.83-1.22,1.9-.46,2.91.84,1.11,2.08,1.33,3.5.27l3.91-2.95Z"/>
    <path class="cls-5" d="M271.05,180.65c1.23-.12,2.18.44,2.84,1.64l-1.87,1.03c-.31-.68-.79-1.17-1.43-1.46-.62-.3-1.35-.21-2.16.24l-4.03,2.22-.95-1.73,7.99-4.41.95,1.73-1.34.74Z"/>
    <path class="cls-5" d="M266.22,187.89l8.35-3.67.79,1.8-8.35,3.67-.79-1.8ZM275.92,183.75c.28-.64.95-.93,1.59-.7.65.25.96.95.71,1.6-.26.63-.93.93-1.59.68-.63-.26-.93-.93-.7-1.59Z"/>
    <path class="cls-5" d="M275.57,197.77l-5.37,1.59-.56-1.89,5.18-1.53c1.31-.39,1.81-1.35,1.45-2.56-.39-1.33-1.48-1.98-3.18-1.48l-4.69,1.39-.56-1.89,8.75-2.59.56,1.89-1.12.33c1.06.31,1.78,1.07,2.15,2.31.59,2.01-.37,3.76-2.61,4.43Z"/>
    <path class="cls-5" d="M280.33,207.17l.19,1.93-8.67.87c-1.38.14-2.48-.21-3.32-1.04-.84-.83-1.31-1.91-1.44-3.2-.21-2.09.37-3.6,1.77-4.53l1.15,1.59c-.88.56-1.26,1.5-1.13,2.79.17,1.69,1.2,2.62,2.78,2.46l1.11-.11c-1.13-.64-1.76-1.64-1.9-3-.13-1.29.22-2.41,1.04-3.39.84-.98,1.9-1.53,3.19-1.66,1.29-.13,2.44.2,3.44,1,1.02.8,1.58,1.82,1.71,3.11.14,1.36-.29,2.47-1.26,3.32l1.34-.13ZM272.74,205.01c.08.82.42,1.48,1.02,1.97.6.51,1.3.71,2.12.63.82-.08,1.46-.42,1.95-1.04.49-.6.69-1.32.61-2.14-.08-.82-.42-1.48-1.03-1.99-.6-.49-1.3-.7-2.12-.61-.82.08-1.46.42-1.95,1.02-.49.62-.69,1.34-.61,2.15Z"/>
    <path class="cls-5" d="M282.99,222.95c-.2,1.19-.76,2.11-1.69,2.77-.93.68-1.99.91-3.16.71-1.17-.2-2.08-.76-2.75-1.7-.66-.93-.89-1.98-.69-3.17l.43-2.58-4.32-.73.35-2.07,12.6,2.12-.78,4.65ZM276.65,221.88c-.21,1.22.56,2.26,1.84,2.48s2.35-.51,2.55-1.74l.43-2.57-4.39-.74-.43,2.58Z"/>
    <path class="cls-5" d="M275.86,230.18c.93.81,1.18,1.89.76,3.19l-2.03-.65c.28-.7.31-1.38.08-2.04-.21-.66-.77-1.13-1.66-1.41l-4.38-1.4.6-1.88,8.69,2.79-.6,1.88-1.46-.47Z"/>
    <path class="cls-5" d="M272.68,241.66l-.87,1.77-8.19-4.02.87-1.77,1.18.58c-.6-1.13-.6-2.31.01-3.55.55-1.13,1.43-1.88,2.66-2.27s2.46-.28,3.65.31c1.21.59,2.04,1.49,2.48,2.7s.38,2.36-.17,3.5c-.61,1.25-1.54,1.97-2.78,2.19l1.16.57ZM267.23,235.77c-.36.74-.42,1.48-.17,2.21.27.74.77,1.29,1.52,1.66s1.5.43,2.23.18c.75-.24,1.3-.75,1.66-1.48.36-.74.42-1.48.15-2.22-.25-.73-.75-1.28-1.51-1.65-.75-.37-1.5-.43-2.25-.19-.73.25-1.28.75-1.65,1.49Z"/>
    <path class="cls-5" d="M263.07,242.22c1.29-.18,2.47.13,3.56.93,1.1.82,1.74,1.86,1.93,3.13.19,1.3-.12,2.5-.94,3.6-1.06,1.42-2.72,2.14-4.32,1.87l.22-1.95c.95.18,1.9-.2,2.55-1.08.48-.65.66-1.35.55-2.12-.12-.75-.5-1.37-1.16-1.86-.66-.49-1.37-.67-2.12-.57-.77.11-1.39.49-1.87,1.14-.64.87-.75,1.92-.32,2.79l-1.79.79c-.71-1.5-.51-3.29.54-4.71.82-1.1,1.87-1.75,3.17-1.94Z"/>
    <path class="cls-5" d="M258.42,256.95l1.59-1.61-3.11-3.09c-.83-.82-1.36-.27-2.36.85l-1.26-1.25c1.86-2.4,3.31-2.69,5.01-1l3.11,3.09,1.18-1.19,1.35,1.34-1.18,1.19,1.4,1.39-.97,1.81-1.82-1.8-1.59,1.61-1.35-1.34Z"/>
    <path class="cls-5" d="M252.06,252.87l5.84,7.02-1.52,1.26-5.84-7.02,1.52-1.26ZM258.72,261.05c.69.09,1.16.65,1.11,1.33-.06.69-.65,1.18-1.35,1.12-.68-.08-1.15-.64-1.1-1.35.08-.68.64-1.15,1.33-1.11Z"/>
    <path class="cls-5" d="M249.02,256.82c1.27.29,2.27.99,3,2.12.74,1.15.97,2.35.7,3.61-.28,1.29-1,2.29-2.15,3.04-1.49.96-3.3,1.04-4.7.23l.89-1.75c.83.51,1.85.48,2.77-.12.67-.44,1.09-1.03,1.26-1.79.15-.75.01-1.46-.43-2.15-.45-.69-1.04-1.11-1.78-1.28-.76-.16-1.47-.03-2.15.41-.91.58-1.38,1.54-1.28,2.5l-1.95.11c-.13-1.65.68-3.26,2.16-4.22,1.15-.74,2.36-.98,3.65-.71Z"/>
    <path class="cls-5" d="M241.2,264.39c-.81-1.17-2.13-1.44-3.53-.86-.96.4-1.54,1.06-1.73,1.96l-1.87-.25c.31-1.58,1.28-2.7,2.92-3.38,1.36-.57,2.65-.62,3.84-.15,1.19.49,2.06,1.37,2.6,2.65.53,1.26.55,2.48.08,3.67-.46,1.2-1.37,2.08-2.66,2.62-1.23.52-2.42.5-3.57-.02-1.15-.53-2-1.42-2.52-2.65-.08-.18-.17-.44-.25-.79l6.7-2.81ZM236.89,267.94c.83,1.26,2.08,1.56,3.28,1.06,1.35-.57,1.96-1.75,1.67-3.14l-4.95,2.08Z"/>
    <path class="cls-5" d="M226.56,267.08c1.4,1.13,2.21,2.62,2.42,4.49.21,1.87-.25,3.5-1.36,4.89-1.11,1.41-2.63,2.23-4.54,2.44-2.3.26-4.5-.67-5.8-2.42l1.7-1.26c.81,1.18,2.28,1.82,3.88,1.64,1.36-.15,2.4-.71,3.16-1.66.74-.95,1.03-2.08.88-3.41-.15-1.32-.69-2.37-1.62-3.12-.95-.76-2.09-1.07-3.45-.92-1.6.18-2.9,1.14-3.42,2.46l-1.93-.83c.42-.98,1.1-1.81,2.02-2.49.9-.65,1.94-1.05,3.1-1.18,1.91-.21,3.57.24,4.97,1.35Z"/>
    <path class="cls-5" d="M213.22,269.96c-.17-1.41-1.21-2.27-2.72-2.41-1.04-.09-1.85.22-2.45.92l-1.53-1.09c1.01-1.25,2.4-1.78,4.16-1.62,1.47.13,2.63.7,3.46,1.67.83.99,1.18,2.18,1.05,3.56-.12,1.36-.68,2.45-1.65,3.28-.97.85-2.18,1.2-3.58,1.07-1.33-.12-2.38-.69-3.15-1.7-.77-1-1.1-2.19-.98-3.52.02-.2.06-.47.15-.81l7.24.66ZM207.75,271.08c.14,1.5,1.11,2.36,2.4,2.47,1.46.13,2.55-.63,2.95-1.99l-5.35-.48Z"/>
    <path class="cls-5" d="M201.31,272.11c-.74.99-1.8,1.32-3.13,1l.5-2.08c.72.23,1.4.2,2.05-.07.64-.26,1.07-.85,1.29-1.76l1.07-4.48,1.92.46-2.13,8.88-1.92-.46.36-1.49Z"/>
    <path class="cls-5" d="M191.81,268.68l2.12.78,1.52-4.11c.4-1.1-.32-1.34-1.75-1.79l.61-1.66c2.95.7,3.82,1.89,2.99,4.14l-1.52,4.11,1.58.58-.66,1.78-1.58-.58-.68,1.85-2.05-.13.88-2.4-2.12-.78.66-1.78Z"/>
    <path class="cls-5" d="M188.2,270.66c.21.67-.11,1.33-.75,1.56-.66.23-1.35-.1-1.58-.76-.21-.65.1-1.31.77-1.55.65-.21,1.31.1,1.56.75ZM192.89,261.2l-3.97,8.22-1.78-.86,3.97-8.22,1.78.86Z"/>
    <path class="cls-5" d="M178.03,263.13l4.94-7.68,1.66,1.07-3.91,6.08,2.55,1.64,3.91-6.08,1.66,1.07-3.91,6.08,1.17.75-1.03,1.6-1.17-.75-.1.15c-1.33,2.07-3.16,2.38-5.48.89-.54-.35-1.07-.77-1.58-1.3l.98-1.52c.49.42,1.03.83,1.63,1.22,1.23.79,2.07.76,2.79-.36l.1-.15-4.21-2.71Z"/>
    <path class="cls-5" d="M180.15,254.63c.05,1.3-.38,2.45-1.29,3.45-.92,1.01-2.02,1.54-3.31,1.6-1.32.06-2.47-.38-3.49-1.3-1.31-1.19-1.85-2.93-1.42-4.49l1.92.42c-.28.93,0,1.91.82,2.65.59.54,1.28.79,2.05.76.76-.05,1.42-.36,1.97-.97s.81-1.29.79-2.05c-.04-.77-.35-1.43-.94-1.97-.8-.73-1.84-.94-2.74-.6l-.6-1.86c1.56-.55,3.33-.18,4.64,1.02,1.01.92,1.55,2.04,1.61,3.35Z"/>
    <path class="cls-5" d="M163.22,247.96l-1.2-1.57,7.26-5.55,1.2,1.57-1.04.8c1.28-.04,2.33.49,3.17,1.6.77,1,1.05,2.12.85,3.4-.2,1.28-.84,2.32-1.9,3.13-1.07.82-2.24,1.16-3.52,1.01s-2.29-.71-3.06-1.71c-.84-1.1-1.08-2.25-.72-3.47l-1.03.79ZM170.92,245.71c-.5-.65-1.14-1.04-1.91-1.14-.78-.09-1.5.11-2.17.62-.67.51-1.05,1.15-1.15,1.92-.12.78.09,1.5.59,2.15.5.65,1.14,1.04,1.92,1.13.77.1,1.49-.1,2.15-.61.67-.51,1.05-1.15,1.17-1.93.1-.77-.1-1.49-.6-2.14Z"/>
    <path class="cls-5" d="M159.66,238.18l1.07,1.99,3.86-2.08c1.03-.55.65-1.22-.13-2.5l1.56-.84c1.75,2.48,1.61,3.94-.5,5.08l-3.86,2.08.8,1.48-1.67.9-.8-1.48-1.73.94-1.45-1.46,2.25-1.21-1.07-1.99,1.67-.9Z"/>
    <path class="cls-5" d="M155.65,237.27c-.29.64-.96.92-1.6.67-.65-.26-.94-.97-.68-1.62.27-.63.94-.91,1.61-.66.63.27.91.94.67,1.6ZM165.42,233.28l-8.42,3.54-.76-1.82,8.42-3.54.76,1.82Z"/>
    <path class="cls-5" d="M162.5,229.22c-.65,1.14-1.62,1.9-2.92,2.26-1.3.36-2.52.2-3.66-.45-1.14-.65-1.89-1.64-2.24-2.93-.36-1.3-.22-2.52.44-3.66.65-1.14,1.62-1.9,2.92-2.26,1.3-.36,2.52-.2,3.66.45s1.88,1.62,2.24,2.93c.35,1.29.22,2.52-.44,3.66ZM161.08,226.06c-.21-.77-.65-1.35-1.33-1.74-.67-.38-1.41-.46-2.21-.25s-1.39.66-1.77,1.34c-.38.67-.47,1.4-.26,2.17.21.78.65,1.35,1.33,1.74.67.38,1.41.46,2.21.25s1.39-.66,1.77-1.34.47-1.4.26-2.17Z"/>
    <path class="cls-5" d="M155,211.94l5.58-.47.17,1.96-5.38.46c-1.36.12-2.04.96-1.94,2.22.12,1.38,1.05,2.24,2.81,2.09l4.87-.41.17,1.96-9.09.77-.17-1.96,1.16-.1c-.98-.52-1.53-1.41-1.64-2.7-.18-2.09,1.12-3.61,3.45-3.81Z"/>
  </g>
  <g>
    <path class="cls-1" d="M205.06,196.67v1.98c0,3.46-1.09,6.19-3.23,8.26-2.14,2.04-4.84,3.06-8.13,3.06-3.59,0-6.55-1.15-8.92-3.46-2.34-2.3-3.52-5.14-3.52-8.5s1.15-6.19,3.49-8.53c2.34-2.34,5.2-3.49,8.59-3.49,4.31,0,8.1,2.11,10.08,5.27l-4.48,2.57c-1.02-1.58-3.13-2.7-5.63-2.7-1.94,0-3.59.66-4.87,1.94-1.28,1.28-1.91,2.96-1.91,4.97s.66,3.62,1.98,4.91c1.32,1.25,3.06,1.88,5.27,1.88,3.06,0,5.01-1.19,5.89-3.56h-6.16v-4.61h11.56Z"/>
    <path class="cls-1" d="M231.08,186.46v23.05h-5.27v-13.4l-5.96,9.78h-.59l-5.96-9.78v13.4h-5.27v-23.05h5.27l6.26,10.24,6.26-10.24h5.27Z"/>
    <path class="cls-1" d="M243.75,186.46c2.27,0,4.18.76,5.73,2.3,1.55,1.55,2.34,3.39,2.34,5.6s-.79,4.05-2.34,5.6c-1.55,1.55-3.46,2.31-5.73,2.31h-3.46v7.24h-5.27v-23.05h8.73ZM243.75,197.32c1.61,0,2.8-1.28,2.8-2.96s-1.19-2.96-2.8-2.96h-3.46v5.93h3.46Z"/>
    <path class="cls-1" d="M194.02,233.48l1.62,1.67-1.78,1.6-1.69-1.73c-1.3.75-2.66,1.12-4.11,1.12-2.22,0-4.08-.77-5.64-2.31-1.56-1.56-2.33-3.45-2.33-5.67s.77-4.11,2.33-5.64c1.56-1.56,3.43-2.33,5.64-2.33s4.08.77,5.64,2.33c1.56,1.54,2.33,3.43,2.33,5.64,0,2.04-.68,3.82-2.02,5.31ZM190.37,233.17l-2.81-2.88,1.78-1.6,2.94,3.01c.81-1.01,1.23-2.2,1.23-3.54,0-1.56-.53-2.88-1.58-3.93-1.05-1.05-2.35-1.58-3.86-1.58s-2.81.53-3.86,1.58c-1.05,1.05-1.58,2.37-1.58,3.93s.53,2.88,1.58,3.93c1.05,1.05,2.35,1.58,3.86,1.58.81,0,1.58-.18,2.31-.5Z"/>
    <path class="cls-1" d="M205.7,224.87h2.37v10.98h-2.37v-1.41c-.72,1.12-1.84,1.69-3.4,1.69-2.52,0-4.22-1.71-4.22-4.52v-6.74h2.37v6.5c0,1.65.94,2.55,2.46,2.55,1.67,0,2.79-1.03,2.79-3.16v-5.88Z"/>
    <path class="cls-1" d="M219.53,224.87h2.37v10.98h-2.37v-1.58c-.9,1.25-2.17,1.87-3.84,1.87-1.51,0-2.79-.55-3.86-1.67-1.08-1.12-1.6-2.5-1.6-4.11s.53-2.99,1.6-4.11c1.08-1.12,2.35-1.67,3.86-1.67,1.67,0,2.94.61,3.84,1.84v-1.56ZM216.06,233.87c.99,0,1.82-.33,2.48-.99.66-.68.99-1.52.99-2.53s-.33-1.84-.99-2.5c-.66-.68-1.49-1.01-2.48-1.01s-1.82.33-2.48,1.01c-.66.66-.99,1.49-.99,2.5s.33,1.84.99,2.53c.66.66,1.49.99,2.48.99Z"/>
    <path class="cls-1" d="M224.66,235.85v-16.03h2.37v16.03h-2.37Z"/>
    <path class="cls-1" d="M229.91,223.16c-.57-.62-.57-1.49,0-2.09.59-.59,1.52-.59,2.11,0,.57.59.57,1.47-.02,2.09-.59.57-1.47.57-2.09,0ZM229.78,235.85v-10.98h2.37v10.98h-2.37Z"/>
    <path class="cls-1" d="M241.02,227.16h-2.72v5.27c0,1.41.92,1.38,2.72,1.3v2.13c-3.62.44-5.09-.55-5.09-3.43v-5.27h-2.02v-2.28h2.02v-2.37l2.37-.7v3.07h2.72v2.28Z"/>
    <path class="cls-1" d="M250.79,224.87h2.52l-4.22,11.33c-1.05,2.83-2.83,4.19-5.36,4.04v-2.22c1.49.09,2.33-.64,2.92-2.15l.11-.22-4.66-10.78h2.59l3.27,7.97,2.81-7.97Z"/>
  </g>
</svg>