<svg width="140" height="113" viewBox="0 0 140 113" fill="none" xmlns="http://www.w3.org/2000/svg">
<path d="M24.0594 102.834C24.0929 102.825 24.1241 102.808 24.1487 102.784C24.2224 102.713 24.2135 102.603 24.1286 102.542C24.0371 102.476 15.0057 95.8242 9.87717 83.6505C9.83921 83.561 9.71641 83.5162 9.61594 83.5461C9.50877 83.5778 9.45295 83.6748 9.4909 83.7643C14.6574 96.0275 23.7691 102.734 23.8607 102.801C23.9187 102.842 23.9946 102.853 24.0616 102.834H24.0594Z" fill="#095F8E"/>
<path d="M11.7793 88.0492C11.7793 88.0492 12.9961 83.8763 12.2258 82.065C11.4555 80.2555 10.366 81.9941 10.4374 83.5181C9.11341 80.5036 8.16897 80.9756 7.59069 81.2405C7.01242 81.5035 6.4855 83.216 8.77627 85.1C6.49443 84.0032 5.61697 83.8968 5.85587 85.1411C6.09477 86.3853 11.7793 88.0511 11.7793 88.0511V88.0492Z" fill="#095F8E"/>
<path d="M15.0484 93.4309C15.0484 93.4309 12.3222 89.7896 10.2346 88.9856C8.14482 88.1835 8.87491 90.047 10.2302 91.0693C6.72257 89.756 6.46804 90.6495 6.28943 91.1812C6.11081 91.711 7.21154 93.222 10.4222 93.1679C7.89029 93.7667 7.18475 94.2162 8.41944 94.9419C9.6519 95.6675 15.0484 93.4309 15.0484 93.4309Z" fill="#095F8E"/>
<path d="M15.0283 93.278C15.0283 93.278 19.6635 91.42 20.8513 89.7747C22.0391 88.1295 19.7394 88.5286 18.3729 89.5397C20.3243 86.7733 19.2884 86.4636 18.6788 86.2566C18.0671 86.0495 16.1492 86.7957 15.8567 89.4669C15.4258 87.2975 14.9703 86.6632 13.9678 87.6053C12.9675 88.5492 15.0283 93.278 15.0283 93.278Z" fill="#095F8E"/>
<path d="M21.0543 100.199C21.0543 100.199 17.4016 97.1767 15.1465 96.7943C12.8937 96.4137 14.115 98.0889 15.7137 98.8238C11.9404 98.2176 11.9381 99.1372 11.9091 99.6875C11.8801 100.238 13.3671 101.497 16.4773 100.829C14.1776 101.898 13.6149 102.471 15.0148 102.941C16.4147 103.411 21.0521 100.199 21.0521 100.199H21.0543Z" fill="#095F8E"/>
<path d="M20.9914 100.055C20.9914 100.055 24.9924 97.3576 25.6957 95.5295C26.399 93.7014 24.2713 94.5296 23.2197 95.7757C24.3606 92.709 23.2665 92.6064 22.6146 92.5206C21.9626 92.4366 20.3015 93.5298 20.7503 96.1861C19.7344 94.1566 19.1159 93.6268 18.4014 94.7367C17.687 95.8466 20.9914 100.055 20.9914 100.055Z" fill="#095F8E"/>
<path d="M54.7105 105.942C54.7105 105.942 38.7399 104.439 34.2164 96.2049C29.6907 87.9709 30.1104 86.7696 25.2074 82.9679C20.3043 79.1662 17.6139 74.7694 20.2485 72.9768C22.8831 71.1841 29.1236 73.8274 37.5789 76.952C46.0342 80.0747 57.4947 88.9092 54.7128 105.942H54.7105Z" fill="#E6FBFF"/>
<path d="M55.4054 106.78C55.5014 106.823 55.6198 106.802 55.689 106.728C55.7627 106.646 55.7448 106.528 55.6466 106.466C55.5662 106.416 47.5217 101.225 42.181 91.3716C36.8672 81.567 27.5344 76.3065 23.3414 74.8944C23.2275 74.8552 23.098 74.9018 23.0511 74.997C23.0042 75.0921 23.0578 75.1985 23.1739 75.2395C27.3067 76.633 36.5166 81.8281 41.7725 91.5245C47.1622 101.467 55.2938 106.711 55.3742 106.763C55.3831 106.769 55.3943 106.774 55.4054 106.78Z" fill="#7FCBDD"/>
<path d="M22.2676 78.7726C22.2855 78.78 22.3078 78.7856 22.3279 78.7838L29.5016 78.3174C29.5641 78.3137 29.6088 78.2689 29.6043 78.2167C29.5999 78.1644 29.5463 78.1271 29.4838 78.1309L22.31 78.5972C22.2475 78.601 22.2029 78.6457 22.2073 78.698C22.2096 78.7315 22.2341 78.7595 22.2654 78.7726H22.2676Z" fill="#7FCBDD"/>
<path d="M30.9928 79.3602C31.0084 79.3676 31.0263 79.3714 31.0464 79.3714C31.1089 79.3714 31.158 79.3285 31.158 79.2781L31.1178 75.1014C31.1178 75.0492 31.0665 75.0082 31.0062 75.0082C30.9437 75.0082 30.8945 75.0511 30.8945 75.1014L30.9347 79.2781C30.9347 79.3135 30.9593 79.3434 30.9928 79.3602Z" fill="#7FCBDD"/>
<path d="M27.7933 83.8409C27.8111 83.8484 27.829 83.8521 27.8491 83.8521L36.0186 83.5872C36.0811 83.5854 36.128 83.5425 36.1258 83.4902C36.1258 83.438 36.0722 83.3988 36.0097 83.4007L27.8402 83.6656C27.7776 83.6674 27.7308 83.7104 27.733 83.7626C27.733 83.7962 27.7575 83.826 27.791 83.8409H27.7933Z" fill="#7FCBDD"/>
<path d="M37.0011 84.6617C37.0011 84.6617 37.0212 84.6692 37.0324 84.6711C37.0927 84.6804 37.1507 84.6487 37.1641 84.5983L38.7471 78.0992C38.7583 78.0489 38.7203 78.0004 38.66 77.9892C38.5998 77.9798 38.5417 78.0115 38.5283 78.0619L36.9453 84.561C36.9364 84.602 36.9587 84.6431 37.0011 84.6617Z" fill="#7FCBDD"/>
<path d="M31.9351 89.1964C31.9463 89.202 31.9597 89.2058 31.9731 89.2058L41.1786 90.1721C41.2389 90.1777 41.2947 90.1422 41.3036 90.0918C41.3103 90.0415 41.2679 89.9948 41.2076 89.9874L32.0021 89.0211C31.9418 89.0155 31.886 89.0509 31.8771 89.1013C31.8704 89.1405 31.8949 89.1778 31.9351 89.1946V89.1964Z" fill="#7FCBDD"/>
<path d="M41.7033 91.1309C41.7033 91.1309 41.7078 91.1328 41.7122 91.1346C41.768 91.1552 41.835 91.1346 41.8596 91.0861L46.0816 83.0444C46.1062 82.9977 46.0861 82.938 46.0236 82.9212C45.9678 82.9007 45.9008 82.9212 45.8762 82.9697L41.6542 91.0115C41.6296 91.0563 41.6542 91.1085 41.7033 91.1309Z" fill="#7FCBDD"/>
<path d="M34.8736 95.4867C34.8736 95.4867 34.8937 95.4941 34.9071 95.496L45.5549 97.0984C45.6152 97.1077 45.6732 97.0741 45.6844 97.0238C45.6955 96.9734 45.6554 96.9249 45.5951 96.9156L34.9472 95.3132C34.887 95.3039 34.8289 95.3374 34.8177 95.3878C34.8088 95.4289 34.8334 95.468 34.8758 95.4867H34.8736Z" fill="#7FCBDD"/>
<path d="M46.1439 97.893C46.1975 97.9173 46.2645 97.9005 46.2935 97.8576L51.8173 89.7263C51.8485 89.6815 51.8284 89.6237 51.7749 89.5994C51.7146 89.5733 51.6521 89.5901 51.623 89.6349L46.0993 97.7662C46.068 97.8109 46.0881 97.8688 46.1417 97.893C46.1417 97.893 46.1417 97.893 46.1439 97.893Z" fill="#7FCBDD"/>
<path d="M40.7342 101.458C40.7342 101.458 40.7565 101.465 40.7699 101.467L50.6698 102.792C50.73 102.799 50.7881 102.766 50.797 102.715C50.806 102.665 50.7658 102.616 50.7055 102.609L40.8056 101.284C40.7453 101.277 40.6873 101.311 40.6783 101.361C40.6716 101.402 40.6962 101.439 40.7364 101.458H40.7342Z" fill="#7FCBDD"/>
<path d="M51.4289 103.515C51.4289 103.515 51.4423 103.521 51.449 103.523C51.5071 103.538 51.5696 103.51 51.5874 103.461L53.7487 97.561C53.7666 97.5125 53.7353 97.4584 53.675 97.4453C53.617 97.4304 53.5545 97.4584 53.5366 97.5069L51.3753 103.407C51.3597 103.45 51.3843 103.497 51.4289 103.517V103.515Z" fill="#7FCBDD"/>
<path d="M35.4266 77.4537L35.0738 77.5861C35.0582 77.5563 33.4729 74.6556 29.6639 71.4601C26.1496 68.5128 19.9672 64.7055 10.4692 63.3008L10.5362 62.9818C20.1414 64.4033 26.3952 68.2591 29.9519 71.2437C33.8078 74.4802 35.4132 77.4257 35.4288 77.4537H35.4266Z" fill="#068F4D"/>
<path d="M17.7074 64.8099L17.6002 64.8696C13.722 67.041 11.3575 66.2426 11.2593 66.2071L11.4111 65.9087C11.4334 65.9161 13.655 66.6511 17.2787 64.6607C16.6223 62.1107 13.9743 61.1668 13.9475 61.1575L14.0948 60.859C14.2154 60.9 17.0353 61.8999 17.685 64.7055L17.7096 64.8099H17.7074Z" fill="#068F4D"/>
<path d="M22.1598 66.5094L22.0661 66.5691C18.7951 68.6565 15.417 68.3487 15.2764 68.3356L15.321 68.0148C15.3545 68.0185 18.621 68.3114 21.7356 66.3732C21.1908 64.0676 18.621 62.1443 18.5942 62.1257L18.851 61.8832C18.9648 61.9671 21.6218 63.9557 22.1375 66.4143L22.1576 66.5113L22.1598 66.5094Z" fill="#068F4D"/>
<path d="M25.1987 68.0988L24.8571 67.9458C24.8705 67.9234 26.2391 65.7185 24.6494 63.176L24.9933 63.0267C26.6812 65.726 25.2589 68.0036 25.1987 68.0988Z" fill="#068F4D"/>
<path d="M27.4025 69.5072C27.3467 69.5669 25.9713 70.9902 21.7983 71.1413L21.7827 70.8186C25.757 70.6749 27.0854 69.3225 27.0966 69.3094L27.4025 69.509V69.5072Z" fill="#068F4D"/>
<path d="M10.7902 62.3308C11.2747 62.6461 11.3618 63.2318 10.9845 63.6366C10.6071 64.0414 9.90606 64.1141 9.42156 63.7989C8.93706 63.4836 8.84998 62.8979 9.22731 62.4931C9.60464 62.0883 10.3057 62.0155 10.7902 62.3308Z" fill="#068F4D"/>
<path d="M14.5519 60.1893C15.0364 60.5046 15.1235 61.0903 14.7462 61.4951C14.3689 61.8999 13.6678 61.9727 13.1833 61.6574C12.6988 61.3422 12.6117 60.7564 12.989 60.3516C13.3664 59.9468 14.0674 59.8741 14.5519 60.1893Z" fill="#068F4D"/>
<path d="M19.3791 61.2805C19.8636 61.5958 19.9507 62.1815 19.5733 62.5863C19.196 62.9911 18.4949 63.0638 18.0104 62.7486C17.5259 62.4333 17.4388 61.8476 17.8162 61.4428C18.1935 61.038 18.8946 60.9653 19.3791 61.2805Z" fill="#068F4D"/>
<path d="M11.7438 65.1849C12.2283 65.5002 12.3154 66.0859 11.9381 66.4907C11.5607 66.8955 10.8597 66.9683 10.3752 66.653C9.89067 66.3378 9.8036 65.752 10.1809 65.3472C10.5583 64.9424 11.2593 64.8697 11.7438 65.1849Z" fill="#068F4D"/>
<path d="M15.8361 67.3451C16.3206 67.6603 16.4077 68.2461 16.0304 68.6509C15.653 69.0557 14.952 69.1284 14.4675 68.8132C13.983 68.4979 13.8959 67.9122 14.2732 67.5074C14.6505 67.1026 15.3516 67.0298 15.8361 67.3451Z" fill="#068F4D"/>
<path d="M22.2863 70.2775C22.7708 70.5927 22.8579 71.1785 22.4806 71.5832C22.1032 71.988 21.4022 72.0608 20.9177 71.7455C20.4332 71.4303 20.3461 70.8445 20.7234 70.4397C21.1007 70.035 21.8018 69.9622 22.2863 70.2775Z" fill="#068F4D"/>
<path d="M25.4304 62.3382C25.9149 62.6535 26.0019 63.2392 25.6246 63.644C25.2473 64.0488 24.5462 64.1216 24.0617 63.8063C23.5772 63.4911 23.4901 62.9053 23.8674 62.5005C24.2448 62.0957 24.9459 62.023 25.4304 62.3382Z" fill="#068F4D"/>
<path d="M48.6665 82.8392C48.6665 82.8392 55.1525 70.5536 48.9143 63.1423C42.6761 55.7292 41.2248 55.4289 39.7602 49.9744C38.2977 44.5199 35.1049 40.3657 31.9233 41.3637C28.7439 42.3616 28.3353 48.1985 27.3083 55.8747C26.2812 63.5509 29.6482 76.2711 48.6642 82.8373L48.6665 82.8392Z" fill="#095F8E"/>
<path d="M48.9586 83.9398C48.8469 83.9398 48.7509 83.8708 48.7375 83.7757C48.7241 83.6917 47.4068 75.2713 39.9049 66.4553C32.4409 57.6842 31.6974 48.2974 32.3471 44.561C32.365 44.4584 32.4789 44.3894 32.5994 44.4025C32.7222 44.4174 32.8071 44.5125 32.7892 44.6133C32.1484 48.2993 32.8875 57.5629 40.2688 66.239C47.8378 75.137 49.1685 83.6451 49.1818 83.729C49.1975 83.8316 49.1104 83.9249 48.9876 83.9361C48.9787 83.9361 48.9697 83.9361 48.9608 83.9361L48.9586 83.9398Z" fill="#22A2BF"/>
<path d="M32.6961 50.7729C32.6737 50.7729 32.6514 50.7673 32.6336 50.7561C32.5822 50.7262 32.571 50.6684 32.6045 50.6255L36.6971 45.6822C36.7328 45.6393 36.802 45.6299 36.8534 45.6579C36.9047 45.6878 36.9159 45.7456 36.8824 45.7885L32.7898 50.7318C32.7675 50.7579 32.734 50.7729 32.6983 50.7729H32.6961Z" fill="#22A2BF"/>
<path d="M33.0042 52.4238C32.9841 52.4238 32.9663 52.4201 32.9484 52.4108L28.6482 50.2786C28.5946 50.2525 28.5767 50.1947 28.6102 50.1499C28.6415 50.1051 28.7107 50.0902 28.7643 50.1182L33.0645 52.2503C33.1181 52.2765 33.136 52.3343 33.1025 52.3791C33.0824 52.4089 33.0444 52.4238 33.0065 52.4238H33.0042Z" fill="#22A2BF"/>
<path d="M34.8615 58.1339C34.8414 58.1339 34.8213 58.1283 34.8012 58.1189C34.7498 58.091 34.7342 58.0331 34.7677 57.9902L39.155 52.2261C39.1885 52.1832 39.2577 52.1702 39.309 52.1981C39.3604 52.2261 39.376 52.2839 39.3425 52.3269L34.9552 58.091C34.9329 58.1189 34.8972 58.1339 34.8615 58.1339Z" fill="#22A2BF"/>
<path d="M35.4621 59.4304C35.4509 59.4304 35.4375 59.4303 35.4264 59.4248L27.9088 57.2945C27.8508 57.2777 27.8195 57.2254 27.8396 57.1769C27.8597 57.1284 27.9222 57.1023 27.9803 57.1191L35.4978 59.2494C35.5559 59.2662 35.5871 59.3184 35.567 59.3669C35.5514 59.4061 35.5067 59.4304 35.4621 59.4304Z" fill="#22A2BF"/>
<path d="M39.0679 65.1868C39.0523 65.1868 39.0389 65.185 39.0232 65.1794C38.9674 65.1588 38.9406 65.1048 38.9652 65.0563L42.6001 57.9248C42.6246 57.8782 42.6894 57.8558 42.7474 57.8763C42.8032 57.8968 42.83 57.9509 42.8055 57.9994L39.1706 65.1309C39.1527 65.1663 39.1103 65.1868 39.0679 65.1868Z" fill="#22A2BF"/>
<path d="M39.7842 66.0823C39.7842 66.0823 39.7753 66.0823 39.7708 66.0823L29.3284 65.0824C29.2681 65.0769 29.2235 65.0302 29.2302 64.9799C29.2369 64.9295 29.2904 64.8922 29.353 64.8978L39.7954 65.8976C39.8557 65.9032 39.9003 65.9499 39.8936 66.0002C39.8869 66.0469 39.8378 66.0823 39.782 66.0823H39.7842Z" fill="#22A2BF"/>
<path d="M44.0268 71.8352C44.0134 71.8352 44.0023 71.8352 43.9889 71.8296C43.9308 71.8128 43.9018 71.7587 43.9219 71.7102L47.6237 63.217C47.6438 63.1685 47.7086 63.1443 47.7666 63.1611C47.8247 63.1779 47.8537 63.2319 47.8336 63.2804L44.1318 71.7737C44.1161 71.811 44.0715 71.8352 44.0268 71.8352Z" fill="#22A2BF"/>
<path d="M44.5425 72.6915L33.3522 72.5852C33.2896 72.5852 33.2405 72.5423 33.2427 72.49C33.2427 72.4378 33.2896 72.3968 33.3566 72.3986L44.547 72.505C44.6095 72.505 44.6586 72.5479 44.6564 72.6001C44.6564 72.6505 44.6051 72.6915 44.5448 72.6915H44.5425Z" fill="#22A2BF"/>
<path d="M47.3381 78.3921C47.3247 78.3921 47.3113 78.3903 47.2979 78.3865C47.2398 78.3679 47.2108 78.3138 47.2331 78.2653L50.8479 70.4529C50.8702 70.4044 50.935 70.3821 50.993 70.3988C51.0511 70.4175 51.0801 70.4716 51.0578 70.5201L47.443 78.3324C47.4251 78.3697 47.3827 78.3921 47.3381 78.3921Z" fill="#22A2BF"/>
<path d="M47.6975 79.3361C47.6975 79.3361 47.6796 79.3361 47.673 79.3342L40.4836 77.924C40.4233 77.9128 40.3854 77.8624 40.401 77.8121C40.4144 77.7617 40.4747 77.73 40.5349 77.7431L47.7243 79.1533C47.7846 79.1645 47.8225 79.2149 47.8069 79.2652C47.7957 79.3081 47.7489 79.338 47.6975 79.338V79.3361Z" fill="#22A2BF"/>
<path d="M84.6473 104.56C84.6473 104.56 99.2783 99.0029 100.531 90.0023C101.783 81.0017 100.942 79.9701 104.197 75.0865C107.452 70.2028 108.383 65.3285 105.215 64.3025C102.047 63.2784 97.0902 67.4047 90.2068 72.5607C83.3233 77.7167 75.6941 89.0789 84.6473 104.558V104.56Z" fill="#095F8E"/>
<path d="M84.2967 105.534C84.223 105.599 84.1002 105.61 84.0087 105.558C83.9082 105.5 83.8814 105.383 83.9528 105.299C84.0109 105.23 89.7378 98.2138 91.169 87.4635C92.5935 76.7672 99.5194 69.3522 102.982 66.9253C103.076 66.86 103.217 66.8693 103.297 66.9477C103.375 67.026 103.366 67.1417 103.27 67.2107C99.8565 69.604 93.0221 76.9239 91.6133 87.5045C90.1687 98.3537 84.3793 105.44 84.3212 105.511C84.3145 105.519 84.3056 105.528 84.2989 105.534H84.2967Z" fill="#22A2BF"/>
<path d="M105.44 70.337C105.427 70.35 105.407 70.3594 105.387 70.3631L98.3917 71.7734C98.3314 71.7845 98.2711 71.7547 98.2577 71.7043C98.2443 71.654 98.28 71.6036 98.3403 71.5924L105.335 70.1822C105.396 70.171 105.456 70.2008 105.469 70.2512C105.478 70.2829 105.467 70.3165 105.44 70.337Z" fill="#22A2BF"/>
<path d="M97.3603 73.1501C97.3469 73.1613 97.3313 73.1687 97.3134 73.1743C97.2553 73.1893 97.1928 73.1631 97.1727 73.1128L95.6656 69.1301C95.6478 69.0816 95.679 69.0294 95.7393 69.0126C95.7974 68.9977 95.8599 69.0238 95.88 69.0742L97.3871 73.0568C97.4005 73.0904 97.3871 73.1258 97.3603 73.1501Z" fill="#22A2BF"/>
<path d="M102.06 76.5844C102.047 76.5955 102.029 76.6049 102.011 76.6086L94.145 78.4684C94.0847 78.4833 94.0244 78.4535 94.0066 78.405C93.9887 78.3546 94.0244 78.3043 94.0825 78.2893L101.948 76.4295C102.009 76.4146 102.069 76.4444 102.087 76.4929C102.098 76.5265 102.087 76.5601 102.06 76.5825V76.5844Z" fill="#22A2BF"/>
<path d="M93.6093 79.7443C93.6093 79.7443 93.5936 79.7555 93.5847 79.7611C93.5311 79.7872 93.4619 79.7704 93.4329 79.7256L89.5212 73.954C89.4921 73.9093 89.51 73.8533 89.5636 73.8272C89.6172 73.8011 89.6864 73.8179 89.7154 73.8626L93.6271 79.6342C93.6517 79.6715 93.6427 79.7163 93.6115 79.7443H93.6093Z" fill="#22A2BF"/>
<path d="M100.106 82.7476C100.106 82.7476 100.086 82.7626 100.073 82.7682L91.6779 86.0662C91.6221 86.0886 91.5551 86.0662 91.5305 86.0214C91.5037 85.9748 91.5305 85.9188 91.5841 85.8983L99.9791 82.6003C100.035 82.5779 100.102 82.5984 100.126 82.645C100.147 82.6805 100.138 82.7215 100.106 82.7495V82.7476Z" fill="#22A2BF"/>
<path d="M91.5327 87.1127C91.5327 87.1127 91.5283 87.1164 91.526 87.1183C91.4791 87.1519 91.4099 87.15 91.3675 87.1108L84.3746 80.5558C84.3344 80.5166 84.3322 80.4569 84.3836 80.4233C84.4305 80.3897 84.4997 80.3916 84.5421 80.4308L91.535 86.9858C91.5752 87.0231 91.5729 87.0772 91.5327 87.1127Z" fill="#22A2BF"/>
<path d="M99.6418 89.4892C99.6418 89.4892 99.624 89.5022 99.6151 89.506L90.0836 93.7815C90.03 93.8057 89.9608 93.7889 89.9318 93.7442C89.9027 93.6994 89.9228 93.6416 89.9764 93.6173L99.5079 89.3418C99.5615 89.3175 99.6307 89.3343 99.6597 89.3791C99.6843 89.4164 99.6753 89.4593 99.6418 89.4873V89.4892Z" fill="#22A2BF"/>
<path d="M89.8136 94.69C89.7712 94.7255 89.702 94.7292 89.6573 94.6938L81.394 88.3887C81.3494 88.3533 81.3449 88.2954 81.3873 88.2562C81.4365 88.2152 81.499 88.2152 81.5459 88.2507L89.8092 94.5557C89.8538 94.5912 89.8583 94.649 89.8159 94.6882L89.8136 94.69Z" fill="#22A2BF"/>
<path d="M96.2772 96.6804C96.2772 96.6804 96.2593 96.6934 96.2481 96.699L87.3239 100.517C87.2681 100.542 87.2012 100.523 87.1744 100.476C87.1453 100.43 87.1677 100.374 87.2235 100.351L96.1477 96.533C96.2035 96.5087 96.2705 96.5274 96.2972 96.574C96.3196 96.6095 96.3106 96.6524 96.2794 96.6804H96.2772Z" fill="#22A2BF"/>
<path d="M86.8687 101.402C86.8687 101.402 86.8575 101.409 86.8531 101.413C86.8017 101.443 86.7325 101.432 86.6968 101.391L82.4568 96.339C82.4211 96.2961 82.4323 96.2382 82.4836 96.2084C82.535 96.1785 82.6042 96.1897 82.6399 96.2308L86.8799 101.282C86.9111 101.32 86.9044 101.368 86.8687 101.4V101.402Z" fill="#22A2BF"/>
<path d="M88.6901 67.2817C88.6544 67.2817 88.6187 67.2724 88.5874 67.2556C88.4914 67.2052 88.4624 67.0989 88.5226 67.0187C88.5874 66.9329 94.9239 58.3818 95.6115 45.49C95.616 45.3948 95.7187 45.3221 95.8259 45.3258C95.9397 45.3296 96.0268 45.4098 96.0224 45.5049C95.3302 58.4919 88.9335 67.1157 88.8687 67.2015C88.8285 67.2556 88.7593 67.2836 88.6879 67.2817H88.6901Z" fill="#F8FEFF"/>
<path d="M95.3145 50.1591C95.3145 50.1591 92.7045 46.4581 92.8139 44.5405C92.9233 42.6228 94.5688 44.0219 95.0287 45.4974C95.2498 42.2908 96.317 42.5165 96.9645 42.6284C97.6098 42.7403 98.706 44.2513 97.1677 46.6092C98.9717 45.0068 99.7733 44.6934 99.9765 45.9414C100.18 47.1912 95.3145 50.1591 95.3145 50.1591Z" fill="#F8FEFF"/>
<path d="M94.0513 56.1003C94.0513 56.1003 95.3976 51.9554 97.119 50.6813C98.8405 49.4072 98.7891 51.3678 97.8447 52.6754C100.747 50.5694 101.299 51.364 101.654 51.8285C102.009 52.293 101.48 54.0036 98.3872 54.7292C101.02 54.6901 101.848 54.9494 100.921 55.9436C99.9925 56.9379 94.0513 56.1022 94.0513 56.1022V56.1003Z" fill="#F8FEFF"/>
<path d="M94.0198 55.9493C94.0198 55.9493 88.9381 55.2927 87.2323 54.0055C85.5265 52.7184 87.8642 52.5431 89.5231 53.181C86.6964 51.006 87.5784 50.4575 88.0919 50.1124C88.6054 49.7655 90.6997 50.0154 91.9054 52.502C91.566 50.3214 91.7826 49.6032 93.0664 50.2635C94.3524 50.9239 94.0175 55.9493 94.0175 55.9493H94.0198Z" fill="#F8FEFF"/>
<path d="M90.6504 64.0322C90.6504 64.0322 93.0997 60.2548 95.1248 59.3444C97.1498 58.4341 96.5604 60.3331 95.2855 61.4244C98.6882 59.9302 99.0075 60.8106 99.2263 61.3292C99.4451 61.8497 98.4582 63.4129 95.2498 63.5267C97.8219 63.993 98.5587 64.4053 97.382 65.1944C96.2054 65.9834 90.6526 64.0322 90.6526 64.0322H90.6504Z" fill="#F8FEFF"/>
<path d="M90.6593 63.8792C90.6593 63.8792 85.8947 62.2656 84.5863 60.6856C83.2779 59.1056 85.6022 59.3835 87.0423 60.3219C84.8877 57.6636 85.8969 57.2999 86.493 57.0611C87.0892 56.8223 89.0584 57.4659 89.5496 60.1185C89.8175 57.9304 90.2261 57.2738 91.2956 58.1636C92.3651 59.0534 90.6615 63.8811 90.6615 63.8811L90.6593 63.8792Z" fill="#F8FEFF"/>
<path d="M110.464 80.9066C110.487 80.9215 110.511 80.9308 110.542 80.9346C110.632 80.9457 110.712 80.8954 110.725 80.8208C110.739 80.7424 112.19 72.9338 119.665 64.9498C119.721 64.8902 119.703 64.8043 119.638 64.7596C119.569 64.7129 119.466 64.7241 119.411 64.782C111.88 72.8256 110.42 80.7014 110.406 80.7797C110.397 80.8282 110.422 80.8767 110.464 80.9047V80.9066Z" fill="#F8FEFF"/>
<path d="M116.986 67.8618C116.986 67.8618 120.806 66.7687 121.916 65.5767C123.023 64.3847 121.186 64.519 120.009 65.2017C121.837 63.1945 121.063 62.8718 120.61 62.6629C120.156 62.454 118.578 62.8886 118.053 64.9499C117.957 63.2244 117.671 62.6946 116.785 63.3531C115.901 64.0116 116.986 67.8599 116.986 67.8599V67.8618Z" fill="#F8FEFF"/>
<path d="M114.106 71.9452C114.106 71.9452 115.838 68.8971 115.59 67.4029C115.342 65.9087 114.175 67.1007 113.938 68.2815C113.496 65.7856 112.679 66.0243 112.183 66.1493C111.688 66.2743 110.957 67.5223 112.357 69.2757C110.812 68.1285 110.158 67.9289 110.105 68.9176C110.051 69.9063 114.106 71.9452 114.106 71.9452Z" fill="#F8FEFF"/>
<path d="M114.217 71.8687C114.217 71.8687 117.651 73.6464 119.455 73.6072C121.262 73.568 119.973 72.4656 118.593 72.1373C121.61 72.0477 121.418 71.3426 121.324 70.9173C121.23 70.492 119.828 69.7458 117.586 70.714C119.123 69.5574 119.433 69.037 118.263 68.8821C117.093 68.7273 114.217 71.8687 114.217 71.8687Z" fill="#F8FEFF"/>
<path d="M111.281 78.129C111.281 78.129 112.13 74.831 111.48 73.4226C110.828 72.0142 110.018 73.3984 110.114 74.5941C108.997 72.2493 108.269 72.6373 107.821 72.8555C107.372 73.0738 107.003 74.4262 108.848 75.8644C107.028 75.0436 106.336 74.9746 106.557 75.9484C106.776 76.9221 111.284 78.129 111.284 78.129H111.281Z" fill="#F8FEFF"/>
<path d="M111.37 78.0338C111.37 78.0338 115.2 79.1065 116.946 78.7222C118.691 78.3379 117.135 77.5115 115.702 77.4574C118.613 76.7915 118.234 76.1423 118.026 75.7468C117.818 75.3514 116.249 74.8944 114.333 76.2654C115.512 74.8459 115.671 74.2788 114.487 74.3534C113.306 74.428 111.368 78.0357 111.368 78.0357L111.37 78.0338Z" fill="#F8FEFF"/>
<mask id="mask0_126_936" style="mask-type:luminance" maskUnits="userSpaceOnUse" x="0" y="0" width="140" height="113">
<path d="M139.237 0H0V112.156H139.237V0Z" fill="white"/>
</mask>
<g mask="url(#mask0_126_936)">
<path d="M88.6128 62.9111C88.6128 62.9111 90.5173 72.4844 90.8768 75.3646C91.2363 78.2448 86.7954 80.0132 83.7031 78.159C80.6107 76.3029 79.9097 64.2971 79.9097 64.2971L88.6106 62.913L88.6128 62.9111Z" fill="#FFB0A0"/>
<path d="M89.1779 65.588C88.8586 64.0415 88.613 62.913 88.613 62.913L79.9121 64.2971C79.9121 64.2971 80.0907 69.4027 81.2785 73.0645C82.2855 69.8747 84.9759 66.2185 89.1779 65.588Z" fill="#F4988C"/>
<path d="M105.817 57.2327C105.817 57.2327 104.202 59.5067 101.233 66.1457C98.2656 72.7847 94.1127 77.3344 87.9303 78.7484C83.9918 79.6494 83.0742 76.3625 84.7666 72.4358C86.4567 68.5091 92.8155 63.9314 96.7697 59.4115C100.724 54.8916 101.324 53.6306 101.324 53.6306L105.817 57.2327Z" fill="#FFB0A0"/>
<path d="M89.4059 66.6418C89.4059 66.6418 85.7018 69.0128 85.2173 73.4058C84.7328 71.49 85.3423 68.3953 89.4059 66.6418Z" fill="#F4988C"/>
<path d="M105.98 43.4063C106.576 44.3894 106.018 45.6504 106.098 46.654C106.161 47.4561 106.788 47.7695 107.623 47.8105C108.782 47.846 110.803 47.1856 111.673 47.3777C112.546 47.5717 112.803 47.749 112.803 47.749L111.946 49.6162C112.095 49.9613 112.633 50.7821 112.81 51.1347C113.377 52.267 112.685 53.9421 112.444 54.5279C110.803 55.7516 108.311 55.9008 107.411 56.0071C106.471 56.1191 105.281 57.9584 105.281 57.9584L99.7148 55.8971C99.7148 55.8971 101.588 53.2295 101.869 51.9349C101.954 51.5413 102.28 49.7226 103.238 47.9299C104.196 46.1372 103.89 43.535 103.749 42.8914C103.606 42.2479 105.386 42.4195 105.982 43.4044L105.98 43.4063Z" fill="#FFB0A0"/>
<path d="M103.745 42.8953C103.745 42.8953 103.876 42.9288 104.158 42.9344C104.441 42.94 104.557 44.2981 104.461 44.5312C104.365 44.7644 103.906 44.7122 103.906 44.7122C103.906 44.7122 103.678 43.1415 103.745 42.8971V42.8953Z" fill="#FFC3BD"/>
<path d="M107.896 53.028C107.951 52.1961 107.797 51.1831 107.614 50.409C107.438 49.6722 108.396 48.76 109.253 48.538C109.242 48.5417 109.264 48.5343 109.253 48.538C110.407 48.2451 112.31 47.7209 112.31 47.7209C112.31 47.7209 112.33 48.1183 112.354 48.7208L112.131 49.2095L111.943 49.6162V49.6199C111.952 49.6423 111.964 49.6647 111.977 49.689C111.981 49.6983 111.988 49.7095 111.993 49.7188C112.002 49.7356 112.01 49.7542 112.019 49.7729C112.026 49.786 112.033 49.799 112.042 49.8121C112.051 49.8289 112.062 49.8475 112.071 49.8662C112.08 49.8811 112.086 49.896 112.095 49.9109C112.106 49.9296 112.118 49.9482 112.129 49.9688C112.138 49.9837 112.147 50.0005 112.156 50.0154C112.167 50.0359 112.18 50.0564 112.191 50.077C112.2 50.0938 112.209 50.1087 112.22 50.1255C112.234 50.1478 112.245 50.1684 112.258 50.1907C112.267 50.2057 112.276 50.2206 112.285 50.2374C112.301 50.2635 112.316 50.2896 112.332 50.3139C112.339 50.3251 112.345 50.3381 112.352 50.3493C112.372 50.3829 112.392 50.4183 112.415 50.4519C112.461 52.1401 112.477 54.0652 112.323 54.5073C112.305 54.5558 112.281 54.608 112.245 54.6584C110.53 55.7739 107.165 56.1022 106.219 56.0519C106.065 56.0444 105.904 56.0724 105.745 56.1209C105.158 55.8411 104.551 55.4232 103.926 54.83C106.174 55.7422 107.797 54.4308 107.891 53.0243L107.896 53.028Z" fill="#F7A192"/>
<path d="M104.296 55.6173C104 55.4419 102.76 54.1623 102.856 53.3788C103.584 55.4214 106.471 56.0594 106.476 56.0594C106.38 56.0594 106.293 56.0556 106.223 56.0556C105.612 56.0556 105.319 56.2179 104.296 55.6173Z" fill="#F7A192"/>
<path d="M106.208 47.3983C106.208 47.3983 107.614 50.411 106.413 53.3191C107.525 52.295 107.884 49.2936 106.208 47.3983Z" fill="#F7A192"/>
<path d="M109.157 53.7258C109.157 53.7258 111.283 52.8938 112.517 53.1083C113.754 53.3247 113.899 53.9608 113.649 54.3414C113.399 54.7219 111.91 55.3674 110.606 55.3935C109.3 55.4196 108.195 54.2556 109.155 53.7239L109.157 53.7258Z" fill="#FFB5A9"/>
<path d="M109.157 53.7258C109.157 53.7258 111.282 52.8938 112.517 53.1083C112.584 53.1195 112.647 53.1345 112.709 53.1475C111.566 53.2762 110.311 53.7668 110.311 53.7668C109.514 54.2071 110.139 55.0819 111.122 55.3524C110.95 55.3748 110.778 55.3879 110.608 55.3916C109.302 55.4177 108.197 54.2537 109.157 53.7221V53.7258Z" fill="#FFB0A0"/>
<path d="M109.108 52.1402C109.108 52.1402 111.475 51.2131 112.852 51.4537C114.23 51.6943 114.393 52.4032 114.114 52.8285C113.835 53.2538 111.805 53.8657 110.352 53.8936C108.898 53.9216 108.036 52.7334 109.106 52.1402H109.108Z" fill="#FFB5A9"/>
<path d="M109.108 52.1402C109.108 52.1402 109.903 51.8287 110.84 51.6141C110.378 51.7578 110.499 51.9238 110.499 51.9238C109.427 52.5151 110.309 53.7668 111.309 53.6325C112.278 53.5019 113.363 53.2053 114.056 52.8938C113.625 53.3135 111.731 53.8638 110.352 53.8918C108.898 53.9198 108.036 52.7315 109.106 52.1383L109.108 52.1402Z" fill="#FFB0A0"/>
<path d="M108.919 50.7057C108.919 50.7057 111.1 49.5006 112.504 49.5715C113.909 49.6424 114.195 50.3251 113.991 50.7784C113.79 51.2317 111.759 51.9424 110.325 52.1476C108.892 52.351 107.961 51.422 108.919 50.7057Z" fill="#FFB5A9"/>
<path d="M108.918 50.7058C108.918 50.7058 109.405 50.5155 109.907 50.2916C109.494 50.9277 109.769 51.9612 110.921 51.8269C111.807 51.7224 112.975 51.3624 113.79 50.993C113.205 51.4314 111.551 51.9724 110.327 52.1458C108.894 52.3492 107.963 51.4202 108.921 50.7039L108.918 50.7058Z" fill="#FFB0A0"/>
<path d="M108.478 49.3104C108.478 49.3104 110.919 47.8945 112.312 47.7229C113.297 47.6017 113.683 48.4915 113.538 48.9597C113.393 49.4279 111.455 50.3046 110.052 50.6274C108.65 50.9501 107.612 50.1013 108.481 49.3104H108.478Z" fill="#FFB5A9"/>
<path d="M108.479 49.3104C108.479 49.3104 109.048 48.9802 109.794 48.6183C109.571 48.7395 109.434 48.8179 109.434 48.8179C108.568 49.6088 109.975 50.4128 110.508 50.271C111.305 50.0565 112.408 49.6741 113.23 49.2973C112.605 49.7692 111.162 50.3718 110.051 50.6273C108.648 50.9501 107.61 50.1013 108.479 49.3104Z" fill="#FFB0A0"/>
<path d="M85.2351 47.2939C85.2351 47.2939 87.6085 54.8638 89.4058 63.3943C88.1108 64.5359 83.0068 64.7281 83.0068 64.7281L85.2351 47.2939Z" fill="#068F4D"/>
<path d="M49.5456 90.8736L48.6748 114.281H67.7913L68.5505 101.98L71.7232 114.281H89.6229L82.6188 87.7826L49.5456 90.8736Z" fill="#068F4D"/>
<path d="M54.3032 90.8736L53.4302 114.281H67.791L68.5501 101.98L78.3384 114.281H89.6226L82.6185 87.7826L54.3032 90.8736Z" fill="#0DB061"/>
<path d="M54.3945 96.8616L53.3384 113.766V97.3484L54.3945 96.8616Z" fill="#068F4D"/>
<path d="M56.1584 97.7551C65.6764 96.0202 75.5049 97.7569 84.5429 95.0726L82.6161 87.7826L49.5428 90.8754L49.0762 103.39C50.6324 100.796 52.519 98.4938 56.1561 97.7569L56.1584 97.7551Z" fill="#068F4D"/>
<path d="M71.4322 95.5856C71.4322 95.5856 72.3812 98.6896 68.5498 101.982C70.0703 101.699 72.3655 98.6915 72.2383 95.8859C71.9659 95.8038 71.43 95.5856 71.43 95.5856H71.4322Z" fill="#068F4D"/>
<path d="M42.5947 46.0421C42.5947 46.0421 50.9272 38.8771 59.5277 38.0526C68.2263 37.4762 74.6253 37.9089 82.1161 42.8094C83.9893 44.2513 85.5746 45.8761 85.9698 47.1931C86.3649 48.5101 87.4478 55.621 84.9516 65.8341C82.4555 76.0473 87.1866 91.9891 87.1866 91.9891C86.0032 94.7349 60.8383 96.5593 44.4099 91.5078C47.3013 78.3305 48.766 70.5947 47.8461 62.9092C46.9262 55.2218 42.597 46.0403 42.597 46.0403L42.5947 46.0421Z" fill="#0DB061"/>
<path d="M68.1659 76.4241L55.0687 77.6758L47.31 76.827C46.6715 80.9757 45.6757 85.7175 44.4053 91.5115C45.5015 91.8492 46.6358 92.1532 47.799 92.4312C53.1598 83.9547 68.4829 89.2413 68.4829 89.2413L73.77 77.6832L68.1659 76.4259V76.4241Z" fill="#068F4D"/>
<path d="M62.1182 36.9613C62.1182 36.9613 59.1844 37.0695 58.6575 38.351C58.1172 39.6643 62.5938 48.0754 71.6162 49.3383C75.6373 47.1446 75.5636 42.0688 75.6351 40.5074C75.7065 38.9461 72.9737 37.7746 71.5358 37.5638C70.0979 37.353 62.116 36.9632 62.116 36.9632L62.1182 36.9613Z" fill="#068F4D"/>
<path d="M78.4573 17.5406C78.4573 17.5406 80.3953 18.9937 78.9597 24.243C77.0887 22.6518 75.8853 17.8185 75.8853 17.8185L78.4596 17.5387L78.4573 17.5406Z" fill="#09093D"/>
<path d="M63.1272 28.054C63.1272 28.054 63.183 33.9673 62.406 35.5921C61.629 37.215 60.3608 38.0041 60.3608 38.0041C60.3608 38.0041 63.1294 46.4469 71.2342 47.6986C73.8442 46.9562 73.8398 39.3042 73.8398 39.3042C73.8398 39.3042 72.6787 38.6775 72.2903 37.8772C71.9018 37.0769 72.6229 29.8877 72.6229 29.8877L63.1294 28.0558L63.1272 28.054Z" fill="#FFB0A0"/>
<path d="M73.2862 38.948C73.2281 40.7239 72.8732 46.1634 70.694 46.7827C65.9138 46.044 62.9911 42.8057 61.397 40.2724C62.8259 42.8672 65.8535 46.8667 71.2343 47.6986C73.8444 46.9562 73.8399 39.3043 73.8399 39.3043C73.8399 39.3043 73.5921 39.17 73.2884 38.948H73.2862Z" fill="#F4988C"/>
<path d="M72.621 29.8858L63.1274 28.054C63.1274 28.054 63.1274 28.1192 63.1274 28.2312C64.1188 32.3817 65.0654 36.9613 72.1722 36.7207C72.161 34.4635 72.621 29.8877 72.621 29.8877V29.8858Z" fill="#F4988C"/>
<path d="M76.548 16.8595C76.548 16.8595 79.6448 19.1876 79.2586 22.4875C78.8723 25.7874 80.2655 28.9567 78.4079 31.8033C76.5503 34.65 75.6215 35.1033 73.6076 35.038C71.5936 34.9727 65.0897 33.68 64.6253 28.9567C62.2252 30.5088 60.5216 27.2536 61.1936 25.5281C61.8657 23.8026 65.1165 23.8884 66.0967 26.2183C66.148 24.6234 64.2391 16.9454 69.3498 16.8595C74.4605 16.7737 76.5503 16.8595 76.5503 16.8595H76.548Z" fill="#FFB0A0"/>
<path d="M62.7458 28.0689C62.7458 28.0689 61.8929 27.2164 61.8594 26.142C61.8259 25.0675 63.4803 24.8436 64.1323 25.7651C64.7842 26.6867 64.5297 27.5391 64.1323 27.707C63.7349 27.8749 63.2839 27.3395 63.3977 26.9012C63.5116 26.4628 64.0631 26.5038 64.0631 26.5038C63.7751 25.8024 62.9222 25.1421 62.3082 25.6663C61.6942 26.1905 62.5582 27.7443 62.748 28.0708L62.7458 28.0689Z" fill="#F4988C"/>
<path d="M78.493 19.1223C77.6825 17.7158 76.5483 16.8595 76.5483 16.8595C76.5483 16.8595 74.4585 16.7737 69.3478 16.8595C67.4656 16.8913 66.5368 17.9527 66.1104 19.3611C66.3068 21.3552 66.6574 23.8026 67.2513 25.1905C67.5192 21.8178 70.8192 21.1686 70.1047 18.9917C74.1593 20.4299 77.0998 19.6968 78.493 19.1223Z" fill="#F4988C"/>
<path d="M71.6209 17.5666C71.6209 17.5666 77.0866 18.656 80.3463 17.5666C83.6061 16.4772 83.2042 13.5858 80.3463 13.8805C81.9003 11.9535 78.6919 10.8641 76.285 11.9535C77.5376 9.35689 68.562 9.02112 65.8046 12.3733C65.5032 10.866 63.2482 10.991 63.9001 12.4982C61.1918 11.0731 57.3136 13.2146 57.5815 18.2381C57.7646 21.6649 58.7358 23.8511 58.7358 23.8511C58.7358 23.8511 64.8111 22.8046 67.314 23.3064C68.0619 21.2116 68.8143 21.1071 69.4395 19.9375C69.9307 19.0179 68.7652 17.3782 68.7652 17.3782C68.7652 17.3782 70.1696 18.3631 71.5472 18.5925C72.927 18.8239 71.6231 17.5666 71.6231 17.5666H71.6209Z" fill="#09093D"/>
<path d="M67.3117 23.3064C67.3117 23.3064 67.0817 26.1978 67.5082 27.4962C66.5303 27.5801 65.9297 27.4962 65.9297 27.4962C65.9297 27.4962 65.9676 25.6419 64.9026 24.9517C63.8376 24.2597 62.1564 24.1832 61.3057 25.42C60.9931 25.905 61.0422 27.2443 61.9197 28.4382C62.7972 29.6321 64.1011 29.1508 64.1011 29.1508C64.1011 29.1508 63.9626 31.5348 62.8463 33.7434C62.134 31.5889 60.4416 28.1808 58.7358 23.8511C59.2382 21.4205 67.3139 23.3064 67.3139 23.3064H67.3117Z" fill="#36366B"/>
<path d="M76.6988 24.3883C76.6988 24.3883 76.7814 23.4743 77.3998 23.1031C78.0183 22.7337 78.7194 22.9706 78.9583 23.7448C78.8533 23.2971 78.5787 22.6255 77.6164 22.8307C76.6563 23.0359 76.6965 24.3865 76.6965 24.3865L76.6988 24.3883Z" fill="#F4988C"/>
<path d="M78.9604 24.2317C78.9604 24.2317 78.9091 23.4407 78.1053 23.409C77.3015 23.3773 76.8237 24.4443 76.8237 24.4443C76.8237 24.4443 77.4869 24.3268 78.0339 24.3921C78.5809 24.4574 78.9091 24.3175 78.9604 24.2335V24.2317Z" fill="white"/>
<mask id="mask1_126_936" style="mask-type:luminance" maskUnits="userSpaceOnUse" x="76" y="23" width="3" height="2">
<path d="M78.96 24.2317C78.96 24.2317 78.9086 23.4407 78.1048 23.409C77.301 23.3773 76.8232 24.4443 76.8232 24.4443C76.8232 24.4443 77.4864 24.3268 78.0334 24.3921C78.5804 24.4574 78.9086 24.3175 78.96 24.2335V24.2317Z" fill="white"/>
</mask>
<g mask="url(#mask1_126_936)">
<path d="M77.1194 23.9724C77.1104 24.2392 77.356 24.4649 77.6664 24.4779C77.9767 24.491 78.2357 24.2858 78.2424 24.0191C78.2514 23.7523 78.0058 23.5266 77.6954 23.5135C77.3851 23.5005 77.1261 23.7057 77.1194 23.9724Z" fill="#0E004D"/>
<path d="M77.4127 23.9855C77.4083 24.1142 77.5266 24.2224 77.6762 24.228C77.8258 24.2336 77.9486 24.1347 77.953 24.0079C77.9575 23.8792 77.8392 23.771 77.6896 23.7654C77.54 23.7598 77.4172 23.8586 77.4127 23.9855Z" fill="#05002D"/>
<path d="M77.3276 23.879C77.3276 23.935 77.3768 23.9835 77.4437 23.9854C77.5085 23.9872 77.5643 23.9443 77.5643 23.8884C77.5643 23.8324 77.5152 23.7839 77.4482 23.782C77.3835 23.7802 77.3276 23.8231 77.3276 23.879Z" fill="white"/>
</g>
<path d="M76.7884 24.4779C76.871 24.2373 77.0116 24.0097 77.1947 23.8045C77.284 23.7019 77.3934 23.6086 77.5118 23.5266C77.6301 23.4463 77.773 23.3717 77.9337 23.3437C78.2642 23.2841 78.5991 23.4426 78.7666 23.659C78.9429 23.8772 79.0077 24.1365 79.0054 24.3865C78.9496 24.1421 78.8559 23.9015 78.6772 23.715C78.5857 23.6254 78.4808 23.5433 78.3557 23.4967C78.2329 23.4501 78.0945 23.437 77.9628 23.4613C77.6971 23.5042 77.4716 23.6851 77.2796 23.8623C77.0875 24.0451 76.9246 24.2559 76.7861 24.476L76.7884 24.4779Z" fill="#05002D"/>
<path d="M76.7888 24.5358C76.7888 24.5358 77.0769 25.0171 78.0124 24.9331C78.9479 24.8492 79.0059 24.4425 79.0059 24.4425C79.0059 24.4425 78.7045 24.8622 77.9521 24.8342C77.1997 24.8063 76.7866 24.5339 76.7866 24.5339L76.7888 24.5358Z" fill="#F4988C"/>
<path d="M77.0234 22.5006C77.0234 22.5006 78.372 22.1648 79.0083 23.0024C79.0664 22.5938 78.5997 22.0566 77.9634 21.9447C77.3293 21.8327 77.0525 22.1965 77.0234 22.5006Z" fill="#09093D"/>
<path d="M70.6167 24.3121C70.6167 24.3121 71.0677 23.1387 71.9586 22.9298C72.8494 22.7209 73.7782 23.066 73.8921 24.1964C73.4656 23.3477 73.0481 22.9447 72.1841 23.0548C71.32 23.1649 70.6167 24.3121 70.6167 24.3121Z" fill="#F4988C"/>
<path d="M73.8521 24.2319C73.8521 24.2319 73.7829 23.441 72.7201 23.4093C71.6551 23.3776 71.021 24.4446 71.021 24.4446C71.021 24.4446 71.9007 24.327 72.6241 24.3923C73.3475 24.4558 73.7851 24.3177 73.8521 24.2338V24.2319Z" fill="white"/>
<mask id="mask2_126_936" style="mask-type:luminance" maskUnits="userSpaceOnUse" x="71" y="23" width="3" height="2">
<path d="M73.8521 24.2319C73.8521 24.2319 73.7829 23.441 72.7201 23.4093C71.6551 23.3776 71.021 24.4446 71.021 24.4446C71.021 24.4446 71.9007 24.327 72.6241 24.3923C73.3475 24.4558 73.7851 24.3177 73.8521 24.2338V24.2319Z" fill="white"/>
</mask>
<g mask="url(#mask2_126_936)">
<path d="M71.5952 23.9782C71.5819 24.2449 71.8274 24.4688 72.14 24.48C72.4526 24.4912 72.7183 24.2823 72.7317 24.0174C72.7451 23.7506 72.4995 23.5268 72.1869 23.5156C71.8743 23.5044 71.6086 23.7133 71.5952 23.9782Z" fill="#0E004D"/>
<path d="M71.8904 23.9875C71.8837 24.1162 72.002 24.2225 72.1516 24.2281C72.3012 24.2337 72.4285 24.133 72.4352 24.0061C72.4419 23.8774 72.3236 23.7711 72.174 23.7655C72.0244 23.7599 71.8971 23.8606 71.8904 23.9875Z" fill="#05002D"/>
<path d="M71.8077 23.8831C71.8055 23.939 71.8568 23.9857 71.9216 23.9894C71.9885 23.9913 72.0444 23.9484 72.0466 23.8924C72.0488 23.8364 71.9975 23.7898 71.9327 23.7861C71.8657 23.7842 71.8099 23.8271 71.8077 23.8831Z" fill="white"/>
</g>
<path d="M70.9724 24.4782C71.1042 24.2114 71.3096 23.9708 71.5597 23.7674C71.812 23.5678 72.1134 23.3925 72.4773 23.3347C72.8368 23.2768 73.2297 23.3682 73.491 23.579C73.6227 23.6835 73.7232 23.8085 73.7924 23.9446C73.8527 24.0827 73.8884 24.2282 73.8906 24.3718C73.8192 24.092 73.6651 23.829 73.4061 23.6611C73.1538 23.4914 72.8211 23.4186 72.5063 23.4727C72.1915 23.5175 71.9035 23.676 71.6445 23.8476C71.3877 24.0267 71.1622 24.2412 70.9702 24.4782H70.9724Z" fill="#05002D"/>
<path d="M73.8903 24.4091C73.8903 24.4091 73.83 24.7616 72.8521 24.9351C71.8742 25.1086 71.0659 24.5993 71.0659 24.5993C71.0659 24.5993 71.7938 24.9183 72.6087 24.8194C73.4237 24.7206 73.8903 24.4091 73.8903 24.4091Z" fill="#F4988C"/>
<path d="M70.5327 22.6928C70.5327 22.6928 72.3568 21.2676 73.8528 22.26C73.893 21.4224 71.8991 20.6968 70.5327 22.6928Z" fill="#09093D"/>
<path d="M77.0232 22.5006C77.0232 22.5006 76.5678 23.4053 76.3177 24.2429C76.0676 25.0805 76.5343 26.0729 77.3381 26.4217C78.1418 26.7705 78.0056 27.0354 77.5211 27.4831C77.0366 27.9308 76.3847 28.0129 75.8823 27.9719C76.7509 27.9588 77.2778 27.4626 77.4363 27.1194C77.5948 26.778 77.2443 26.7351 76.7419 26.3788C76.2396 26.0225 75.2304 24.7316 77.021 22.5006H77.0232Z" fill="#F4988C"/>
<path d="M71.9374 28.5988C71.9374 28.5988 75.1101 29.9661 77.2535 29.1285C76.5859 30.2459 76.184 30.5257 76.184 31.3353C76.184 32.1449 71.2028 31.8931 71.9396 28.5988H71.9374Z" fill="#513522"/>
<path d="M76.6506 29.8281C76.7935 29.7573 76.885 29.4588 76.9364 29.2349C74.8108 29.8375 71.9373 28.6007 71.9373 28.6007C71.886 28.8339 71.8636 29.0484 71.8659 29.2517C72.27 29.4588 73.0559 29.7852 74.2772 29.983C76.1661 30.2908 76.4162 29.9457 76.6506 29.83V29.8281Z" fill="white"/>
<path d="M72.0444 30.1134C72.8594 31.9508 76.1839 31.9974 76.1839 31.3371C76.1839 31.3371 76.1839 31.3352 76.1839 31.3334C75.1725 30.1395 72.971 30.0649 72.0444 30.1153V30.1134Z" fill="#B23030"/>
<path d="M72.7303 28.3506C72.7303 28.3506 71.8774 28.498 71.5402 29.1565C71.3147 28.4756 72.4936 28.2462 72.7303 28.3506Z" fill="#F4988C"/>
<path d="M74.7619 32.2586C74.7619 32.2586 73.6009 32.4899 72.4443 31.6971C72.94 32.4676 73.8108 33.0123 74.7619 32.2586Z" fill="#F4988C"/>
<path d="M77.0791 28.7144C77.0791 28.7144 77.3403 29.108 77.1059 29.5072C77.5792 29.3206 77.2354 28.7647 77.0791 28.7144Z" fill="#F4988C"/>
<path d="M67.6434 54.4309H58.0449V59.0758H67.6434V54.4309Z" fill="#068F4D"/>
<path d="M68.1658 54.0671H58.5674V58.712H68.1658V54.0671Z" fill="#F0F6F7"/>
<path d="M59.3621 62.6462C59.0004 62.6462 58.6431 62.5454 58.3618 62.2675C57.5692 61.4896 55.5441 59.2343 55.457 59.1392C55.3878 59.0627 55.4057 58.9527 55.4995 58.8948C55.591 58.837 55.7227 58.8519 55.7897 58.9303C55.8098 58.9545 57.8929 61.2732 58.6788 62.0418C59.3397 62.6891 60.6012 61.9075 60.6146 61.9C60.7062 61.8422 60.8356 61.8571 60.9071 61.9336C60.9763 62.0101 60.9584 62.1183 60.8669 62.1761C60.532 62.3869 59.9403 62.6443 59.3643 62.6443L59.3621 62.6462Z" fill="#6D8599"/>
<path d="M64.415 60.9301C64.3413 60.9301 64.2698 60.8983 64.2319 60.8405C64.176 60.7566 64.214 60.6502 64.3145 60.6055C64.3837 60.5738 64.4574 60.5421 64.531 60.5103C65.0736 60.2753 65.5425 60.0738 65.4911 59.4396C65.4241 58.6095 64.9553 55.983 64.9508 55.955C64.9329 55.8599 65.0133 55.7722 65.125 55.7573C65.2388 55.7442 65.3438 55.8095 65.3616 55.9028C65.3817 56.011 65.8372 58.5703 65.9064 59.4135C65.9779 60.2753 65.2812 60.5756 64.7231 60.8163C64.6516 60.8461 64.5824 60.876 64.5154 60.9077C64.4842 60.9226 64.4484 60.9282 64.415 60.9282V60.9301Z" fill="#6D8599"/>
<path d="M65.6156 56.7328C65.3767 55.3076 64.7448 51.5227 61.9249 50.922C60.8331 50.6889 59.2859 50.7038 57.8212 51.0433C55.8787 46.8778 56.0685 41.0671 57.6493 38.6476C58.4441 37.4333 59.2524 36.8662 61.4583 37.021L61.9807 36.3383C59.7034 36.2767 58.4106 36.3961 57.1023 38.3977C55.4255 40.9645 55.2044 46.861 57.2273 51.2037C56.6088 51.3903 56.0194 51.6384 55.5036 51.9574C54.4364 52.6196 53.8425 53.4982 53.7889 54.498C53.6281 57.464 55.7671 59.6783 55.8586 59.7716L56.3409 59.4414C56.3208 59.4209 54.2622 57.2906 54.4118 54.5223C54.4587 53.6717 54.9499 52.9498 55.8743 52.3771C57.5332 51.3492 60.1745 51.0881 61.7731 51.4276C64.1867 51.9424 64.7783 55.4755 64.9994 56.8056L65.0083 56.8615L65.6268 56.7888L65.6178 56.7328H65.6156Z" fill="#07003D"/>
<path d="M79.7584 42.4269C79.3163 40.2873 77.8516 39.2334 76.8759 38.5376C76.3825 38.1869 74.632 37.4799 72.1872 37.2542C72.1872 37.2542 72.1738 37.4463 72.2073 37.6086C72.2363 37.7541 72.3122 37.922 72.3122 37.922C74.8665 37.9518 76.4249 38.9517 76.5365 39.0338C77.4162 39.6885 78.7514 40.6119 79.1466 42.5165C79.7517 45.4414 79.7316 51.6589 75.8154 56.4045L76.3289 56.7011C80.359 51.8174 80.3813 45.4302 79.7606 42.4269H79.7584Z" fill="#07003D"/>
<path d="M78.7046 56.7011C78.7046 57.9639 77.4788 58.988 75.9673 58.988C74.4557 58.988 73.23 57.9639 73.23 56.7011C73.23 55.4382 74.4557 54.4141 75.9673 54.4141C77.4788 54.4141 78.7046 55.4382 78.7046 56.7011Z" fill="#929FA8"/>
<path d="M77.51 56.7012C77.51 57.4137 76.8179 57.992 75.965 57.992C75.1121 57.992 74.4199 57.4137 74.4199 56.7012C74.4199 55.9886 75.1121 55.4103 75.965 55.4103C76.8179 55.4103 77.51 55.9886 77.51 56.7012Z" fill="#CED5D8"/>
<path d="M33.283 61.622C33.283 61.622 32.4211 62.7263 34.8749 63.6721C37.3286 64.6178 38.57 65.0245 40.7804 66.2855C42.9908 67.5465 45.4892 69.5947 46.2372 68.1546C46.9852 66.7145 45.6344 63.9425 44.0179 63.0416C42.3991 62.1406 34.6338 60.8329 33.2852 61.622H33.283Z" fill="#068F4D"/>
<path d="M35.6923 60.1501C35.6923 60.1501 30.4432 69.7626 29.7957 73.2472C29.1482 76.7318 35.5472 80.5764 38.568 77.2727C41.5889 73.9691 45.6145 64.657 45.6145 64.657L35.6923 60.152V60.1501Z" fill="#FFB0A0"/>
<path d="M35.6918 60.1501C35.6918 60.1501 35.0666 61.2936 34.2227 62.9371C38.7506 62.8998 41.9568 65.946 43.4349 69.3056C44.7097 66.7518 45.614 64.657 45.614 64.657L35.6918 60.152V60.1501Z" fill="#F4988C"/>
<path d="M42.5959 46.0421L33.2832 61.622C33.2832 61.622 42.4597 62.1163 46.2352 68.1546C51.7991 59.8704 52.0514 57.6878 51.0802 53.722C50.109 49.7561 46.4071 45.4209 42.5959 46.0421Z" fill="#0DB061"/>
<path d="M47.0567 66.916C47.0567 66.916 49.3542 59.3406 44.3931 54.5558C47.4675 56.3951 47.856 59.9543 48.633 60.4953C49.4078 61.0362 51.2966 55.4046 47.5211 52.9702C49.7315 53.4664 52.4911 57.8054 50.2852 61.7843C48.0793 65.7632 47.0589 66.916 47.0589 66.916" fill="#068F4D"/>
<path d="M44.784 46.2025C44.784 46.2025 49.2449 48.344 50.5578 52.1439C51.8706 55.9437 51.1963 60.0737 49.5039 62.911C52.3015 59.3686 52.2078 55.0744 51.2477 52.0095C50.2876 48.9465 46.6929 46.5924 44.7817 46.2025H44.784Z" fill="#068F4D"/>
<path d="M76.2043 62.9446L69.2069 87.7825L48.4561 84.0685L55.9669 59.8704L76.2043 62.9446Z" fill="#D0EDF4"/>
<path d="M77.1872 62.9446L70.1899 87.7825L49.439 84.0685L56.9498 59.8704L77.1872 62.9446Z" fill="#A7DCEA"/>
<path d="M72.0698 81.108L72.5744 79.3135C65.8695 77.6738 58.7337 75.9894 51.7208 76.715L50.4258 80.8879C57.2467 80.2649 64.1123 81.1304 70.9534 81.2536C71.2637 81.248 71.6679 81.2106 72.0698 81.108Z" fill="#8DCCDB"/>
<path d="M73.7711 77.6814C73.7711 77.672 73.7756 77.6627 73.7778 77.6534C74.3807 77.6366 74.8607 77.562 75.0281 77.4202C75.3921 77.1087 75.4747 76.48 74.499 75.9745C74.9813 75.9055 75.3474 75.8029 75.4769 75.6686C75.7605 75.372 75.8632 74.7153 75.3943 74.3665C75.3943 74.3665 75.2514 74.1259 74.5749 73.6707C73.8984 73.2174 71.813 73.1391 70.8083 72.7306C70.0938 72.4228 69.6875 71.9434 70.0068 71.2158C70.4064 70.3055 71.4871 69.3784 71.4201 68.3189C71.3531 67.2593 69.8683 66.5281 69.6942 67.1399C69.5178 67.7518 68.5734 70.1414 66.8921 71.4061C65.8829 72.1653 65.1372 73.0794 64.6058 73.7136C62.9 74.0457 58.5239 74.5437 51.1782 73.0719C39.0657 70.4212 34.4931 71.6542 34.4931 71.6542C31.4097 72.3034 29.7196 75.3626 31.5616 76.9576C33.4036 78.5525 37.0161 80.181 46.1457 80.0915C53.4601 80.0187 61.1205 79.4796 63.8802 79.267C64.6259 79.3024 65.3783 79.377 65.7266 79.5281C66.3205 79.7874 68.1558 80.2911 69.8929 80.3731C71.0539 80.7761 72.6659 80.694 73.0633 80.4403C73.3648 80.2482 73.5345 79.8508 73.1661 79.4106C73.6416 79.4106 74.0212 79.3621 74.1819 79.2595C74.6173 78.9816 74.8026 78.3268 73.7734 77.6776L73.7711 77.6814Z" fill="#F9A395"/>
<path d="M73.7708 77.6814C73.7708 77.672 73.7753 77.6627 73.7775 77.6534C74.3804 77.6366 74.8604 77.562 75.0279 77.4202C75.3918 77.1087 75.4744 76.48 74.4987 75.9745C74.981 75.9055 75.3471 75.8029 75.4766 75.6686C75.7602 75.372 75.8629 74.7153 75.394 74.3665C75.394 74.3665 75.2511 74.1259 74.5746 73.6707C73.8981 73.2174 70.8393 73.0775 69.8368 72.669C69.1223 72.3612 69.1156 71.8146 69.4349 71.0871C69.8346 70.1768 71.4868 69.3803 71.422 68.3189C71.355 67.2593 69.8703 66.5281 69.6961 67.1399C69.5197 67.7518 68.5753 70.1414 66.8941 71.4061C65.8849 72.1653 65.1392 73.0794 64.6078 73.7136C62.902 74.0457 58.5258 74.5437 51.1802 73.0719C39.0677 70.4212 34.4951 71.6542 34.4951 71.6542C31.4117 72.3034 29.7215 75.3626 31.5635 76.9576C33.4055 78.5525 37.0181 80.181 46.1476 80.0915C53.462 80.0187 61.1225 79.4796 63.8821 79.267C64.6279 79.3024 65.3803 79.377 65.7286 79.5281C66.3225 79.7874 68.1578 80.2911 69.8948 80.3731C71.0559 80.7761 72.6679 80.694 73.0653 80.4403C73.3667 80.2482 73.5364 79.8508 73.168 79.4106C73.6436 79.4106 74.0231 79.3621 74.1839 79.2595C74.6193 78.9816 74.8046 78.3268 73.7753 77.6776L73.7708 77.6814Z" fill="#F9A395"/>
<path d="M58.6666 74.9951C57.1059 74.6742 55.1366 74.1724 52.5623 73.5401C37.7527 69.8969 34.4907 71.656 34.4907 71.656C31.4073 72.3052 29.7171 75.3644 31.5591 76.9594C33.4011 78.5543 37.0137 80.1828 46.1432 80.0933C50.2202 80.0522 54.4043 79.8675 57.7869 79.6735C57.1148 78.1196 57.26 76.3718 58.6666 74.9951Z" fill="#FFB0A0"/>
<path d="M75.3921 74.3665C75.3921 74.3665 75.2492 74.1259 74.5727 73.6707C73.8962 73.2174 70.8374 73.0775 69.8349 72.669C69.1204 72.3612 69.1137 71.8146 69.433 71.0871C69.8327 70.1768 71.4849 69.3803 71.4201 68.3189C71.3531 67.2593 69.8684 66.5281 69.6942 67.1399C69.5178 67.7518 68.5734 70.1414 66.8922 71.4061C65.883 72.1653 64.7622 73.9543 64.2308 74.5885C63.4538 75.1892 62.5853 75.4261 61.3528 75.3757C61.1586 76.7598 61.2255 78.1776 61.8529 79.4143C62.6768 79.3565 63.3645 79.3061 63.8802 79.267C64.626 79.3024 65.3784 79.377 65.7267 79.5281C66.3206 79.7874 68.1559 80.2911 69.8929 80.3731C71.054 80.7761 72.666 80.694 73.0634 80.4403C73.3648 80.2482 73.5345 79.8508 73.1661 79.4106C73.6417 79.4106 74.0212 79.3621 74.182 79.2595C74.6174 78.9816 74.8027 78.3268 73.7734 77.6776C73.7734 77.6683 73.7779 77.659 73.7801 77.6496C74.3829 77.6329 74.863 77.5582 75.0304 77.4165C75.3944 77.1049 75.477 76.4763 74.5013 75.9708C74.9835 75.9018 75.3497 75.7992 75.4792 75.6648C75.7628 75.3682 75.8655 74.7116 75.3966 74.3628L75.3921 74.3665Z" fill="#FFB0A0"/>
<path d="M62.9961 73.9449C62.9961 73.9449 62.1834 74.6146 62.333 76.3475C62.4826 78.0805 62.9158 79.0356 63.503 79.2986C62.9247 80.319 61.0626 80.7014 60.2075 79.8004C59.3523 78.8994 59.0264 77.0974 59.4684 75.5846C59.9105 74.0698 60.2655 73.9766 60.5446 73.846C60.8237 73.7154 62.3933 73.6259 62.9961 73.9467V73.9449Z" fill="#07003D"/>
<path d="M63.4187 78.4854C63.8194 77.3629 63.0552 76.1815 61.7117 75.8467C60.3681 75.5118 58.9541 76.1503 58.5533 77.2728C58.1525 78.3953 58.9168 79.5767 60.2603 79.9116C61.6038 80.2464 63.0179 79.6079 63.4187 78.4854Z" fill="#07003D"/>
<path d="M62.8393 78.599C62.357 79.4533 61.1379 79.8208 60.1153 79.4179C59.0928 79.015 58.6529 77.9965 59.1352 77.1421C59.6174 76.2877 60.8365 75.9203 61.8591 76.3232C62.8817 76.7261 63.3215 77.7446 62.8393 78.599Z" fill="#F0F6F7"/>
<path d="M60.1066 78.9274L59.9883 78.851L60.9104 77.8511L60.8523 76.4297L61.0019 76.4241L61.0622 77.8903L60.1066 78.9274Z" fill="#07003D"/>
<path d="M69.7544 67.026C69.7544 67.026 70.0022 67.1436 70.2969 67.2741C70.5916 67.4066 70.0268 68.606 69.8593 68.7124C69.6918 68.8187 69.3882 68.7739 69.0801 68.6098C69.0801 68.6098 69.4329 67.6286 69.7544 67.0242V67.026Z" fill="#FFC6BD"/>
<path d="M44.4084 71.8556C44.4084 71.8556 35.098 70.2327 31.8472 73.07C34.3835 70.7047 38.1725 70.1861 44.4084 71.8556Z" fill="#EF978B"/>
<path d="M74.1372 79.3582C74.5079 79.1213 75.0437 78.1756 74.3784 77.6831C74.9745 77.6234 75.2223 77.2802 75.2893 77.1384C75.4612 76.7747 75.7738 76.3064 74.9544 75.9613C75.1978 75.9613 75.3831 75.7655 75.4746 75.6703C75.7582 75.3737 76.0194 74.5492 75.5505 74.1985C75.5505 74.1985 75.3496 73.9448 74.6642 73.6408C74.4855 73.5606 74.1774 73.4822 73.8983 73.4076C73.9653 73.4468 75.5148 74.3645 73.8559 75.758C74.0278 76.5825 73.818 77.116 72.9918 77.5563C73.3201 78.5673 72.2617 79.1531 72.2617 79.1531C72.6636 79.6138 72.1389 80.4066 71.353 80.6473C72.1233 80.692 72.8802 80.6435 73.1437 80.5129C73.6148 80.2798 74.1127 79.6828 73.5947 79.4832C73.8514 79.4926 74.0278 79.431 74.1372 79.3601V79.3582Z" fill="#F7A192"/>
</g>
<path d="M115.592 102.077C115.559 102.066 115.53 102.047 115.508 102.023C115.438 101.948 115.456 101.84 115.546 101.782C115.642 101.721 125.151 95.5501 131.172 83.6675C131.217 83.5798 131.342 83.5425 131.443 83.5761C131.547 83.6134 131.597 83.7141 131.552 83.8018C125.483 95.774 115.892 101.993 115.796 102.055C115.735 102.094 115.657 102.1 115.592 102.077Z" fill="#22A2BF"/>
<path d="M128.946 87.9578C128.946 87.9578 128.042 83.729 128.946 81.9624C129.851 80.1959 130.806 81.9867 130.623 83.5051C132.168 80.5652 133.075 81.0857 133.633 81.3785C134.191 81.6714 134.588 83.4081 132.164 85.1691C134.524 84.1934 135.406 84.1319 135.075 85.3612C134.745 86.5905 128.946 87.9578 128.946 87.9578Z" fill="#22A2BF"/>
<path d="M125.285 93.1585C125.285 93.1585 128.277 89.6646 130.42 88.9725C132.563 88.2786 131.697 90.103 130.268 91.0525C133.867 89.9239 134.053 90.8286 134.193 91.3677C134.332 91.9068 133.122 93.3563 129.92 93.1361C132.403 93.8655 133.072 94.3505 131.789 95.0109C130.505 95.6712 125.285 93.1585 125.285 93.1585Z" fill="#22A2BF"/>
<path d="M125.316 93.0075C125.316 93.0075 120.828 90.9126 119.765 89.2077C118.703 87.5045 120.967 88.0213 122.257 89.1013C120.513 86.2398 121.572 85.9842 122.197 85.8089C122.822 85.6335 124.682 86.4767 124.776 89.1592C125.367 87.0158 125.87 86.4058 126.798 87.4001C127.727 88.3944 125.318 93.0075 125.318 93.0075H125.316Z" fill="#22A2BF"/>
<path d="M118.788 99.6017C118.788 99.6017 122.659 96.7756 124.937 96.5107C127.214 96.2477 125.87 97.8557 124.218 98.5067C128.029 98.0982 127.964 99.0141 127.951 99.5663C127.937 100.117 126.361 101.297 123.307 100.469C125.524 101.656 126.042 102.256 124.611 102.652C123.179 103.049 118.788 99.6017 118.788 99.6017Z" fill="#22A2BF"/>
<path d="M118.861 99.4619C118.861 99.4619 115.068 96.563 114.501 94.7014C113.934 92.8397 115.997 93.7761 116.955 95.0763C116.044 91.9573 117.142 91.9107 117.799 91.8585C118.455 91.8081 120.034 92.9852 119.388 95.6136C120.551 93.6418 121.208 93.1438 121.84 94.2891C122.472 95.4345 118.859 99.4619 118.859 99.4619H118.861Z" fill="#22A2BF"/>
<path d="M109.826 88.6927L110.128 88.8046C110.141 88.7804 111.488 86.3143 114.725 83.5983C117.712 81.0949 122.966 77.8584 131.037 76.6627L130.979 76.3922C122.816 77.601 117.5 80.8766 114.479 83.4136C111.204 86.1632 109.838 88.6666 109.824 88.6909L109.826 88.6927Z" fill="#068F4D"/>
<path d="M124.884 77.9481L124.975 77.9984C128.271 79.8433 130.28 79.1643 130.365 79.1345L130.236 78.8808C130.218 78.8882 128.329 79.5113 125.25 77.8212C125.806 75.6536 128.059 74.8515 128.081 74.844L127.956 74.5903C127.853 74.6258 125.458 75.4745 124.906 77.8585L124.886 77.9481H124.884Z" fill="#068F4D"/>
<path d="M121.102 79.3919L121.182 79.4423C123.962 81.2163 126.831 80.9551 126.954 80.9421L126.916 80.6679C126.887 80.6697 124.111 80.9197 121.463 79.2725C121.925 77.312 124.109 75.6779 124.131 75.663L123.913 75.4578C123.817 75.5286 121.559 77.2187 121.119 79.3098L121.102 79.3919Z" fill="#068F4D"/>
<path d="M118.518 80.7443L118.808 80.6137C118.797 80.5951 117.634 78.7203 118.985 76.5602L118.692 76.4333C117.259 78.7278 118.467 80.6641 118.518 80.7443Z" fill="#068F4D"/>
<path d="M116.645 81.94C116.692 81.9923 117.862 83.201 121.407 83.3279L121.421 83.0537C118.043 82.9324 116.915 81.7815 116.904 81.7703L116.645 81.94Z" fill="#068F4D"/>
<path d="M130.765 75.842C130.352 76.1106 130.278 76.6068 130.6 76.9519C130.922 77.297 131.515 77.3586 131.928 77.09C132.342 76.8213 132.415 76.3251 132.094 75.98C131.772 75.6349 131.178 75.5734 130.765 75.842Z" fill="#068F4D"/>
<path d="M127.566 74.0214C127.152 74.2901 127.079 74.7863 127.4 75.1314C127.722 75.4765 128.316 75.538 128.729 75.2694C129.142 75.0008 129.216 74.5046 128.894 74.1595C128.572 73.8144 127.979 73.7528 127.566 74.0214Z" fill="#068F4D"/>
<path d="M123.464 74.9484C123.051 75.2171 122.978 75.7132 123.299 76.0583C123.621 76.4034 124.215 76.465 124.628 76.1964C125.041 75.9278 125.114 75.4316 124.793 75.0865C124.471 74.7414 123.877 74.6798 123.464 74.9484Z" fill="#068F4D"/>
<path d="M129.952 78.267C129.539 78.5357 129.466 79.0319 129.787 79.377C130.109 79.7221 130.702 79.7836 131.115 79.515C131.529 79.2464 131.602 78.7502 131.281 78.4051C130.959 78.06 130.365 77.9984 129.952 78.267Z" fill="#068F4D"/>
<path d="M126.476 80.1026C126.063 80.3712 125.989 80.8674 126.311 81.2125C126.632 81.5576 127.226 81.6192 127.639 81.3506C128.052 81.0819 128.126 80.5858 127.805 80.2407C127.483 79.8956 126.889 79.834 126.476 80.1026Z" fill="#068F4D"/>
<path d="M120.995 82.5948C120.582 82.8634 120.508 83.3596 120.83 83.7047C121.151 84.0498 121.745 84.1114 122.158 83.8428C122.571 83.5741 122.645 83.0779 122.323 82.7328C122.002 82.3877 121.408 82.3262 120.995 82.5948Z" fill="#068F4D"/>
<path d="M118.322 75.8496C117.909 76.1182 117.836 76.6144 118.157 76.9595C118.479 77.3046 119.073 77.3661 119.486 77.0975C119.899 76.8289 119.972 76.3327 119.651 75.9876C119.329 75.6425 118.735 75.5809 118.322 75.8496Z" fill="#068F4D"/>
<mask id="mask3_126_936" style="mask-type:luminance" maskUnits="userSpaceOnUse" x="0" y="0" width="140" height="113">
<path d="M139.237 0H0V112.156H139.237V0Z" fill="white"/>
</mask>
<g mask="url(#mask3_126_936)">
<path d="M44.5062 117.359C44.5062 117.359 32.0253 121.504 24.8092 116.92C17.593 112.337 17.3385 111.315 11.9308 110.124C6.52542 108.934 2.4708 106.578 3.56707 104.39C4.66333 102.202 10.5108 102.1 18.2159 101.62C25.921 101.143 38.5314 103.885 44.5062 117.359Z" fill="#E6FBFF"/>
<path d="M45.4101 117.747C45.4994 117.747 45.5798 117.693 45.5932 117.616C45.6088 117.53 45.5396 117.452 45.4392 117.437C45.3565 117.426 36.9794 116.245 28.399 110.736C19.8611 105.256 10.5038 104.446 6.74837 104.784C6.64567 104.793 6.57199 104.87 6.58315 104.955C6.59431 105.041 6.68362 105.103 6.78856 105.094C10.4926 104.761 19.7294 105.564 28.1735 110.983C36.832 116.54 45.2963 117.732 45.3811 117.743C45.39 117.743 45.4012 117.745 45.4101 117.745V117.747Z" fill="#7FCBDD"/>
<path d="M7.78715 107.998C7.80501 107.998 7.82287 107.994 7.83627 107.985L12.9045 105.282C12.9492 105.26 12.9604 105.211 12.9336 105.174C12.9045 105.136 12.8487 105.127 12.8041 105.149L7.7358 107.852C7.69114 107.875 7.67998 107.923 7.70677 107.961C7.72463 107.983 7.75366 107.996 7.78491 107.996L7.78715 107.998Z" fill="#7FCBDD"/>
<path d="M14.4938 105.562C14.5095 105.562 14.5251 105.558 14.5385 105.552C14.5831 105.532 14.601 105.485 14.5764 105.446L12.5782 102.379C12.5536 102.342 12.4978 102.327 12.4509 102.348C12.4062 102.368 12.3884 102.415 12.4129 102.454L14.4112 105.521C14.4291 105.547 14.4603 105.562 14.4938 105.562Z" fill="#7FCBDD"/>
<path d="M14.2483 109.917C14.2639 109.917 14.2796 109.914 14.2952 109.906L20.194 107.024C20.2387 107.002 20.2543 106.955 20.2275 106.918C20.2007 106.881 20.1449 106.868 20.1003 106.89L14.2014 109.772C14.1568 109.794 14.1411 109.841 14.1679 109.878C14.1858 109.903 14.2171 109.917 14.2483 109.917Z" fill="#7FCBDD"/>
<path d="M21.4222 107.494C21.4222 107.494 21.4401 107.494 21.449 107.491C21.4982 107.477 21.5272 107.435 21.5115 107.394L19.616 102.081C19.6003 102.04 19.549 102.017 19.4999 102.029C19.4507 102.042 19.4217 102.085 19.4374 102.126L21.3329 107.438C21.3441 107.472 21.382 107.494 21.4222 107.494Z" fill="#7FCBDD"/>
<path d="M19.8232 112.505C19.8232 112.505 19.8455 112.505 19.8567 112.499L27.0996 110.184C27.1487 110.169 27.171 110.124 27.1532 110.083C27.1353 110.042 27.0817 110.024 27.0326 110.039L19.7897 112.354C19.7406 112.369 19.7182 112.413 19.7361 112.454C19.7495 112.486 19.7852 112.505 19.8232 112.505Z" fill="#7FCBDD"/>
<path d="M27.9369 110.718C27.9369 110.718 27.9413 110.718 27.9436 110.718C27.9949 110.714 28.0329 110.677 28.0284 110.634L27.3541 103.318C27.3497 103.275 27.3072 103.239 27.2537 103.247C27.2023 103.25 27.1643 103.288 27.1688 103.331L27.8431 110.647C27.8476 110.688 27.8877 110.72 27.9369 110.72V110.718Z" fill="#7FCBDD"/>
<path d="M34.3965 114.241C34.4479 114.241 34.488 114.208 34.4903 114.165L34.7314 106.355C34.7314 106.312 34.6912 106.276 34.6399 106.274C34.5818 106.274 34.5461 106.308 34.5439 106.351L34.3027 114.161C34.3027 114.204 34.3429 114.24 34.3943 114.241H34.3965Z" fill="#7FCBDD"/>
<path d="M40.9407 116.648C40.9407 116.648 40.9519 116.648 40.9586 116.648C41.01 116.64 41.0412 116.599 41.0323 116.556L39.8467 111.497C39.8378 111.455 39.7887 111.427 39.7373 111.436C39.686 111.443 39.6547 111.484 39.6636 111.527L40.8492 116.586C40.8581 116.624 40.8961 116.65 40.9407 116.65V116.648Z" fill="#7FCBDD"/>
<path d="M54.9818 117.402C54.9818 117.402 54.9908 103.974 45.7071 99.2903C36.4235 94.6063 34.9499 94.8208 30.9779 90.3214C27.0081 85.822 22.0827 83.0948 19.6535 85.0796C17.2243 87.0644 19.6669 92.5431 22.4288 99.9134C25.1929 107.284 34.4073 117.793 54.9796 117.4L54.9818 117.402Z" fill="#22A2BF"/>
<path d="M55.6918 118.327C55.6159 118.327 55.5422 118.295 55.4998 118.235C55.4485 118.163 50.1792 110.901 39.0625 105.357C28.0016 99.8424 22.7949 91.5022 21.587 87.8628C21.5536 87.7639 21.6228 87.6613 21.7433 87.6333C21.8617 87.6072 21.9845 87.665 22.018 87.7639C23.2102 91.353 28.3544 99.5832 39.2925 105.038C50.5119 110.632 55.8325 117.971 55.8838 118.045C55.9464 118.133 55.9129 118.248 55.8057 118.301C55.77 118.319 55.7298 118.327 55.6918 118.327Z" fill="#095F8E"/>
<path d="M24.8557 93.4403C24.8557 93.4403 24.8423 93.4403 24.8334 93.4403C24.7731 93.431 24.7329 93.3825 24.744 93.3303L26.106 87.4281C26.1172 87.3777 26.1752 87.3442 26.2377 87.3535C26.298 87.3628 26.3382 87.4113 26.327 87.4635L24.9651 93.3657C24.9539 93.4105 24.907 93.4422 24.8557 93.4422V93.4403Z" fill="#095F8E"/>
<path d="M25.9345 94.8469C25.9345 94.8469 25.9256 94.8469 25.9211 94.8469L20.9578 94.3432C20.8975 94.3376 20.8529 94.291 20.8596 94.2388C20.8663 94.1884 20.9243 94.1511 20.9846 94.1567L25.9479 94.6603C26.0082 94.6659 26.0529 94.7126 26.0462 94.7648C26.0395 94.8114 25.9903 94.8469 25.9345 94.8469Z" fill="#095F8E"/>
<path d="M30.3887 99.447C30.3887 99.447 30.3775 99.447 30.3708 99.447C30.3106 99.4395 30.2681 99.391 30.2771 99.3407L31.5118 92.5879C31.5207 92.5375 31.5765 92.5021 31.639 92.5095C31.6993 92.517 31.7417 92.5655 31.7328 92.6159L30.4981 99.3687C30.4892 99.4153 30.4423 99.447 30.3887 99.447Z" fill="#095F8E"/>
<path d="M23.6544 101.012C23.5964 101.012 23.5495 100.975 23.5428 100.926C23.5383 100.874 23.583 100.829 23.6433 100.825L31.5516 100.243C31.6163 100.242 31.6677 100.277 31.6721 100.327C31.6766 100.38 31.6319 100.424 31.5716 100.428L23.6634 101.01C23.6634 101.01 23.6567 101.01 23.6544 101.01V101.012Z" fill="#095F8E"/>
<path d="M37.6401 104.487C37.5798 104.487 37.5284 104.446 37.5284 104.396L37.4146 96.6452C37.4146 96.5929 37.4637 96.5519 37.524 96.55C37.5932 96.5444 37.6356 96.5911 37.6378 96.6414L37.7517 104.392C37.7517 104.444 37.7026 104.485 37.6423 104.487H37.6401Z" fill="#095F8E"/>
<path d="M28.6891 107.664C28.6422 107.664 28.5976 107.638 28.582 107.599C28.5641 107.55 28.5976 107.498 28.6556 107.481L38.6939 104.881C38.752 104.866 38.8145 104.894 38.8346 104.942C38.8525 104.991 38.819 105.043 38.7609 105.06L28.7226 107.66C28.7226 107.66 28.7003 107.664 28.6891 107.664Z" fill="#095F8E"/>
<path d="M45.3832 108.901C45.3251 108.901 45.276 108.864 45.2715 108.813L44.5638 99.7939C44.5593 99.7417 44.6062 99.6988 44.6687 99.6951C44.729 99.6913 44.7826 99.7305 44.787 99.7827L45.4948 108.802C45.4993 108.854 45.4524 108.897 45.3899 108.901C45.3876 108.901 45.3854 108.901 45.3832 108.901Z" fill="#095F8E"/>
<path d="M35.9769 113.18C35.9345 113.18 35.8921 113.16 35.8742 113.124C35.8497 113.078 35.8742 113.022 35.9323 113.001L46.2251 109.332C46.2809 109.311 46.3479 109.332 46.3725 109.38C46.397 109.427 46.3725 109.483 46.3144 109.503L36.0216 113.173C36.0082 113.178 35.9926 113.18 35.9769 113.18Z" fill="#095F8E"/>
<path d="M51.577 113.788C51.5167 113.788 51.4676 113.749 51.4654 113.699L51.0054 105.332C51.0032 105.28 51.0501 105.237 51.1126 105.235C51.1729 105.228 51.2265 105.273 51.2287 105.325L51.6887 113.691C51.6909 113.744 51.644 113.786 51.5815 113.788H51.577Z" fill="#095F8E"/>
<path d="M95.3965 116.818C95.3965 116.818 108.382 121.129 115.891 116.361C123.399 111.593 123.665 110.529 129.289 109.291C134.913 108.052 139.133 105.601 137.992 103.323C136.851 101.046 130.767 100.939 122.752 100.441C114.734 99.9431 101.615 102.797 95.3987 116.816L95.3965 116.818Z" fill="#095F8E"/>
<path d="M94.4525 117.222C94.3587 117.222 94.2761 117.166 94.2605 117.086C94.2426 116.999 94.3163 116.915 94.4212 116.9C94.5083 116.889 103.223 115.659 112.149 109.929C121.031 104.228 130.768 103.385 134.677 103.736C134.784 103.745 134.86 103.825 134.849 103.915C134.838 104.004 134.746 104.068 134.635 104.058C130.781 103.713 121.171 104.547 112.386 110.186C103.377 115.969 94.5708 117.208 94.4815 117.221C94.4704 117.221 94.4614 117.222 94.4503 117.222H94.4525Z" fill="#22A2BF"/>
<path d="M133.601 107.08C133.583 107.08 133.565 107.076 133.55 107.067L128.276 104.254C128.231 104.23 128.218 104.18 128.247 104.142C128.276 104.105 128.336 104.094 128.381 104.118L133.654 106.931C133.699 106.955 133.713 107.006 133.683 107.043C133.666 107.067 133.634 107.08 133.601 107.08Z" fill="#22A2BF"/>
<path d="M126.621 104.545C126.606 104.545 126.59 104.541 126.574 104.536C126.528 104.513 126.51 104.465 126.536 104.426L128.615 101.236C128.642 101.197 128.7 101.182 128.747 101.204C128.794 101.227 128.812 101.275 128.785 101.314L126.706 104.504C126.688 104.53 126.655 104.547 126.621 104.547V104.545Z" fill="#22A2BF"/>
<path d="M126.878 109.076C126.862 109.076 126.844 109.073 126.829 109.065L120.693 106.067C120.646 106.045 120.631 105.995 120.658 105.957C120.684 105.918 120.745 105.905 120.789 105.927L126.925 108.925C126.972 108.948 126.987 108.998 126.961 109.035C126.943 109.061 126.909 109.076 126.876 109.076H126.878Z" fill="#22A2BF"/>
<path d="M119.414 106.556C119.414 106.556 119.396 106.556 119.387 106.552C119.336 106.539 119.307 106.494 119.323 106.452L121.296 100.924C121.312 100.881 121.366 100.857 121.417 100.87C121.468 100.883 121.497 100.928 121.482 100.971L119.508 106.498C119.495 106.534 119.457 106.556 119.414 106.556Z" fill="#22A2BF"/>
<path d="M121.075 111.768C121.064 111.768 121.053 111.768 121.039 111.762L113.504 109.354C113.455 109.337 113.428 109.291 113.448 109.25C113.468 109.209 113.524 109.186 113.573 109.203L121.109 111.611C121.158 111.628 121.185 111.675 121.164 111.716C121.149 111.747 121.113 111.768 121.073 111.768H121.075Z" fill="#22A2BF"/>
<path d="M112.633 109.908C112.633 109.908 112.629 109.908 112.627 109.908C112.573 109.904 112.533 109.865 112.537 109.821L113.241 102.208C113.245 102.163 113.29 102.126 113.346 102.133C113.399 102.137 113.439 102.176 113.435 102.221L112.732 109.834C112.727 109.876 112.685 109.908 112.636 109.908H112.633Z" fill="#22A2BF"/>
<path d="M105.913 113.576C105.862 113.576 105.817 113.54 105.817 113.497L105.567 105.37C105.567 105.325 105.607 105.288 105.661 105.286C105.721 105.286 105.759 105.319 105.761 105.364L106.011 113.492C106.011 113.536 105.971 113.574 105.917 113.576H105.915H105.913Z" fill="#22A2BF"/>
<path d="M99.1032 116.079C99.1032 116.079 99.0898 116.079 99.0854 116.079C99.0318 116.07 98.9983 116.029 99.0095 115.984L100.244 110.72C100.255 110.675 100.304 110.647 100.358 110.656C100.412 110.666 100.445 110.707 100.434 110.751L99.1992 116.016C99.1903 116.055 99.1501 116.081 99.1032 116.081V116.079Z" fill="#22A2BF"/>
<path d="M87.4976 117.924C87.4976 117.924 83.1817 104.991 90.6234 98.3985C98.065 91.808 99.5543 91.6831 101.937 86.4599C104.319 81.2368 108.188 77.5059 111.164 78.8733C114.141 80.2406 113.547 86.0663 113.248 93.7873C112.951 101.508 107.442 113.695 87.4976 117.924Z" fill="#22A2BF"/>
<path d="M87.0507 118.98C87.0306 118.98 87.0105 118.978 86.9927 118.972C86.8744 118.944 86.8029 118.842 86.8364 118.743C86.8632 118.661 89.634 110.399 98.6497 102.497C107.44 94.7928 109.755 85.7119 109.751 81.9867C109.751 81.8841 109.851 81.8002 109.974 81.8002C110.097 81.8002 110.197 81.8841 110.197 81.9867C110.202 85.7642 107.86 94.9644 98.9712 102.754C90.0336 110.589 87.2919 118.76 87.2651 118.842C87.2383 118.926 87.149 118.98 87.0507 118.98Z" fill="#095F8E"/>
<path d="M108.806 88.096C108.766 88.096 108.726 88.0773 108.706 88.0438L105.5 82.6621C105.473 82.6154 105.495 82.5595 105.551 82.5371C105.607 82.5147 105.674 82.5333 105.701 82.5781L108.907 87.9598C108.934 88.0065 108.911 88.0624 108.855 88.0848C108.84 88.0923 108.822 88.0941 108.806 88.0941V88.096Z" fill="#095F8E"/>
<path d="M108.217 89.6926C108.172 89.6926 108.132 89.6703 108.114 89.6348C108.09 89.5863 108.119 89.5322 108.175 89.5136L112.794 87.9168C112.85 87.8963 112.917 87.9205 112.939 87.9671C112.964 88.0156 112.935 88.0697 112.879 88.0884L108.259 89.6852C108.246 89.6908 108.23 89.6926 108.217 89.6926Z" fill="#095F8E"/>
<path d="M105.402 95.1229C105.359 95.1229 105.319 95.1024 105.299 95.0688L101.943 88.8402C101.919 88.7936 101.943 88.7376 101.999 88.7171C102.055 88.6947 102.122 88.7171 102.146 88.7638L105.502 94.9924C105.527 95.039 105.502 95.095 105.446 95.1155C105.431 95.1211 105.415 95.1229 105.402 95.1229Z" fill="#095F8E"/>
<path d="M104.587 96.3317C104.533 96.3317 104.486 96.3 104.477 96.2552C104.466 96.2049 104.506 96.1563 104.567 96.147L112.372 94.9364C112.433 94.927 112.491 94.9606 112.502 95.011C112.513 95.0614 112.473 95.1098 112.413 95.1192L104.607 96.3298C104.607 96.3298 104.594 96.3298 104.587 96.3298V96.3317Z" fill="#095F8E"/>
<path d="M100.032 101.602C99.9827 101.602 99.9381 101.574 99.9247 101.533L97.5491 94.0392C97.5334 93.9888 97.5692 93.9385 97.6295 93.9254C97.6897 93.9124 97.75 93.9422 97.7657 93.9926L100.141 101.486C100.157 101.536 100.121 101.587 100.061 101.6C100.052 101.602 100.041 101.603 100.032 101.603V101.602Z" fill="#095F8E"/>
<path d="M109.675 102.657H109.67L99.1656 102.4C99.103 102.4 99.0562 102.355 99.0562 102.305C99.0562 102.253 99.1187 102.215 99.17 102.213L109.675 102.471C109.737 102.471 109.784 102.516 109.784 102.566C109.784 102.616 109.733 102.657 109.673 102.657H109.675Z" fill="#095F8E"/>
<path d="M93.9879 107.588C93.9365 107.588 93.8897 107.558 93.8785 107.513L91.6681 98.6653C91.6547 98.6149 91.6949 98.5646 91.7552 98.5553C91.8155 98.5441 91.8757 98.5776 91.8869 98.628L94.0973 107.476C94.1107 107.526 94.0705 107.576 94.0102 107.586C94.0035 107.586 93.9946 107.588 93.9879 107.588Z" fill="#095F8E"/>
<path d="M104.421 109.604C104.421 109.604 104.412 109.604 104.406 109.604L93.3135 108.373C93.2532 108.365 93.2085 108.319 93.2174 108.268C93.2264 108.218 93.2822 108.181 93.3425 108.188L104.435 109.419C104.495 109.427 104.54 109.473 104.531 109.524C104.524 109.57 104.475 109.604 104.419 109.604H104.421Z" fill="#095F8E"/>
<path d="M89.5873 113.682C89.536 113.682 89.4913 113.652 89.4779 113.609L87.2385 105.444C87.2251 105.394 87.2631 105.343 87.3234 105.332C87.3837 105.319 87.4439 105.353 87.4573 105.403L89.6967 113.568C89.7101 113.618 89.6722 113.669 89.6119 113.68C89.603 113.68 89.594 113.682 89.5873 113.682Z" fill="#095F8E"/>
</g>
</svg>
