<svg width="300" height="300" viewBox="0 0 300 300" fill="none" xmlns="http://www.w3.org/2000/svg">
<path d="M16.0007 214.444C16.0007 222.342 19.138 229.916 24.7224 235.5C30.3068 241.084 37.8808 244.222 45.7784 244.222H254.222C262.12 244.222 269.694 241.084 275.278 235.5C280.863 229.916 284 222.342 284 214.444V192.111C284 184.213 280.863 176.639 275.278 171.055C269.694 165.47 262.12 162.333 254.222 162.333H45.7784C37.8808 162.333 30.3068 165.47 24.7224 171.055C19.138 176.639 16.0007 184.213 16.0007 192.111V214.444Z" fill="#0DB061"/>
<path d="M142.556 110.222L149.844 102.777H230.802C254.222 102.777 261.667 117.666 261.667 117.666L284 162.028V199.555H142.556V110.222Z" fill="#F6AE1A"/>
<path d="M217 162.334H269.111L254.222 132.556C254.222 132.556 246.778 117.667 231.889 117.667H217V162.334Z" fill="#02509E"/>
<path d="M217 273.999C200.554 273.999 187.222 260.667 187.222 244.221C187.222 227.775 200.554 214.443 217 214.443C233.446 214.443 246.778 227.775 246.778 244.221C246.778 260.667 233.446 273.999 217 273.999Z" fill="#292F33"/>
<path d="M216.999 259.111C208.776 259.111 202.11 252.445 202.11 244.222C202.11 235.999 208.776 229.333 216.999 229.333C225.222 229.333 231.888 235.999 231.888 244.222C231.888 252.445 225.222 259.111 216.999 259.111Z" fill="#CCD6DD"/>
<path d="M83.0001 273.999C66.5544 273.999 53.2224 260.667 53.2224 244.221C53.2224 227.775 66.5544 214.443 83.0001 214.443C99.4459 214.443 112.778 227.775 112.778 244.221C112.778 260.667 99.4459 273.999 83.0001 273.999Z" fill="#292F33"/>
<path d="M83.0003 259.111C74.7774 259.111 68.1115 252.445 68.1115 244.222C68.1115 235.999 74.7774 229.333 83.0003 229.333C91.2232 229.333 97.8892 235.999 97.8892 244.222C97.8892 252.445 91.2232 259.111 83.0003 259.111Z" fill="#CCD6DD"/>
<path d="M45.7776 73H157.444C165.342 73 172.916 76.1373 178.5 81.7217C184.084 87.3061 187.222 94.8802 187.222 102.778V199.555H15.9999V102.778C15.9999 94.8802 19.1372 87.3061 24.7216 81.7217C30.306 76.1373 37.8801 73 45.7776 73Z" fill="white"/>
<path fill-rule="evenodd" clip-rule="evenodd" d="M98.4902 139.86C94.7545 135.396 90.4187 131.411 92.0236 127.19C93.1429 124.209 98.7465 119.158 102.293 116.886C105.834 119.158 111.444 124.209 112.563 127.19C114.175 131.411 109.839 135.396 106.096 139.86C112.529 138.175 119.745 132.315 117.776 127.851C115.22 122.112 106.885 116.259 102.293 110.5C97.7013 116.259 89.3668 122.119 86.8448 127.851C84.8421 132.315 92.0573 138.181 98.4902 139.86Z" fill="url(#paint0_linear_728_1219)"/>
<path fill-rule="evenodd" clip-rule="evenodd" d="M56.103 130.239C62.4011 135.263 71.5178 136.976 80.3783 138.345C89.2321 139.707 95.4695 142.499 98.0319 147.111C90.8774 142.472 82.5496 144.616 73.1632 143.153C65.2535 141.905 59.6769 136.173 56.103 130.239ZM148.491 130.239C142.193 135.263 133.103 136.976 124.209 138.345C115.355 139.707 109.118 142.499 106.555 147.111C113.71 142.472 122.044 144.616 131.424 143.153C139.367 141.905 144.91 136.173 148.491 130.239Z" fill="url(#paint1_linear_728_1219)"/>
<path fill-rule="evenodd" clip-rule="evenodd" d="M63.257 149.64V149.956C62.7648 150.031 62.3669 150.132 62.1376 150.273C61.9758 150.422 61.7465 150.691 61.5173 151.11L57.1208 159.309H56.5611L51.6386 150.934C51.4093 150.543 51.18 150.3 50.9845 150.206C50.7889 150.105 50.4585 150.037 50 149.963V149.646H56.4936V149.963C55.8396 149.963 55.4147 150.01 55.1855 150.058C54.9562 150.139 54.8213 150.3 54.8213 150.55C54.8213 150.698 54.9562 150.941 55.1518 151.312C55.2529 151.453 55.3136 151.629 55.4147 151.77L57.9771 156.167L60.4047 151.582C60.5328 151.332 60.6676 151.164 60.7014 151.015C60.7688 150.894 60.7958 150.745 60.7958 150.597C60.7958 150.354 60.6676 150.179 60.4047 150.105C60.1417 150.01 59.7169 149.956 59.1235 149.956V149.64H63.257ZM70.7621 158.703V159.04H64.0055V158.703C64.6326 158.703 65.0574 158.655 65.2867 158.534C65.6441 158.386 65.8127 158.116 65.8127 157.725V150.988C65.8127 150.577 65.6104 150.3 65.253 150.159C65.0237 150.058 64.6326 150.017 64.0055 149.963V149.646H70.7621V149.963C70.1755 149.963 69.7776 150.01 69.5214 150.112C69.1573 150.253 68.9617 150.55 68.9617 150.988V157.725C68.9617 158.042 69.0628 158.264 69.2247 158.413C69.4877 158.608 69.9799 158.703 70.7621 158.703ZM83.9247 156.943L84.4777 157.259C83.6887 157.941 82.8998 158.426 82.185 158.723C81.2679 159.141 80.216 159.33 79.0697 159.33C76.9388 159.33 75.2328 158.837 73.9516 157.839C72.7379 156.936 72.1512 155.783 72.1512 154.414C72.1512 153.045 72.8053 151.804 74.0865 150.833C75.3677 149.876 77.0063 149.417 79.009 149.417C79.6024 149.417 80.189 149.464 80.8161 149.606C81.4365 149.781 82.0906 149.923 82.7177 150.098C82.9739 150.098 83.1762 150.031 83.3044 149.903C83.3718 149.835 83.4662 149.68 83.6011 149.437H84.1607V152.735H83.6348C83.2706 152.006 82.7177 151.366 81.9962 150.833C81.1128 150.199 80.162 149.876 79.1708 149.876C77.8559 149.876 76.9051 150.348 76.3185 151.217C75.8262 151.946 75.5632 153.004 75.5632 154.373C75.5632 154.953 75.6307 155.446 75.6981 155.864C75.8599 156.497 76.0892 157.003 76.4196 157.421C76.6826 157.758 77.0737 158.028 77.5322 158.224C78.1189 158.493 78.746 158.615 79.3664 158.615C80.1553 158.615 80.9105 158.493 81.5983 158.251C82.3536 157.981 83.1088 157.543 83.9315 156.929L83.9247 156.943ZM92.4211 149.889C91.3085 149.889 90.4521 150.381 89.8991 151.379C89.4743 152.162 89.2451 153.166 89.2451 154.387C89.2451 155.877 89.5418 156.996 90.0677 157.752C90.6274 158.487 91.4096 158.851 92.4278 158.851C93.446 158.851 94.235 158.487 94.7609 157.752C95.2802 156.996 95.5431 155.877 95.5431 154.387C95.5431 153.139 95.3476 152.141 94.9498 151.379C94.3968 150.381 93.5741 149.889 92.4211 149.889ZM92.4211 149.43C94.1945 149.43 95.6713 149.862 96.885 150.745C98.0988 151.676 98.7259 152.897 98.7259 154.387C98.7259 155.877 98.1325 157.017 96.9525 157.947C95.7724 158.878 94.2619 159.343 92.4211 159.343C90.5802 159.343 89.0765 158.878 87.8964 157.947C86.7164 157.017 86.123 155.83 86.123 154.387C86.123 152.944 86.7434 151.676 87.9571 150.745C89.1709 149.869 90.6476 149.43 92.4211 149.43ZM99.7374 159.04V158.703C100.196 158.628 100.493 158.608 100.587 158.574C100.722 158.554 100.783 158.527 100.85 158.507C101.046 158.413 101.18 158.264 101.248 158.096C101.309 157.92 101.349 157.698 101.349 157.408V151.258C101.349 150.718 101.221 150.381 100.958 150.206C100.762 150.105 100.364 150.01 99.7441 149.963V149.646H105.948C107.222 149.646 108.281 149.774 109.063 150.044C110.371 150.462 111.032 151.164 111.032 152.215C111.032 152.553 110.938 152.897 110.735 153.186C110.445 153.652 109.953 154.016 109.292 154.286C108.733 154.528 108.112 154.677 107.485 154.724C106.824 154.791 105.847 154.818 104.505 154.818V157.408C104.505 157.941 104.599 158.284 104.828 158.433C104.99 158.561 105.449 158.628 106.211 158.703V159.04H99.7441H99.7374ZM104.491 150.624V154.34L104.687 154.367C105.766 154.367 106.555 154.218 107.013 153.928C107.472 153.611 107.708 153.052 107.708 152.242C107.708 151.433 107.512 150.901 107.148 150.611C106.818 150.294 106.238 150.118 105.415 150.118C105.091 150.118 104.855 150.165 104.727 150.246C104.599 150.314 104.498 150.442 104.498 150.638L104.491 150.624ZM126.177 158.703V159.04H119.616V158.703C120.237 158.628 120.661 158.574 120.83 158.507C121.16 158.359 121.356 158.096 121.356 157.725V154.508H116.663V157.725C116.663 158.096 116.824 158.338 117.155 158.487C117.35 158.561 117.775 158.628 118.402 158.709V159.046H111.909V158.709C112.502 158.662 112.886 158.581 113.089 158.487C113.385 158.345 113.514 158.096 113.514 157.725V150.988C113.514 150.577 113.352 150.3 113.021 150.159C112.826 150.058 112.462 150.017 111.909 149.963V149.646H118.402V149.963C117.809 150.01 117.418 150.058 117.222 150.139C116.858 150.28 116.663 150.577 116.663 150.961V153.847H121.356V150.961C121.356 150.577 121.16 150.3 120.796 150.159C120.601 150.058 120.203 150.017 119.616 149.963V149.646H126.177V149.963C125.584 150.01 125.193 150.058 125.031 150.139C124.667 150.28 124.471 150.577 124.471 150.988V157.725C124.471 158.096 124.633 158.359 124.93 158.487C125.092 158.561 125.523 158.628 126.177 158.709V158.703ZM139.92 158.729V159.046H133.689V158.729C134.282 158.729 134.667 158.682 134.896 158.608C135.092 158.561 135.227 158.413 135.227 158.19C135.227 157.994 135.092 157.698 134.896 157.266C134.802 157.091 134.599 156.774 134.336 156.295H129.94C129.711 156.781 129.515 157.172 129.353 157.489C129.185 157.826 129.09 158.048 129.09 158.116C129.09 158.318 129.218 158.46 129.454 158.561C129.684 158.682 130.108 158.729 130.702 158.729V159.046H126.798V158.709C127.256 158.635 127.654 158.487 127.91 158.244C128.072 158.075 128.335 157.684 128.665 157.077L132.968 149.437H133.52L137.816 156.781C138.274 157.563 138.605 158.048 138.834 158.271C139.131 158.588 139.461 158.736 139.852 158.736H139.913L139.92 158.729ZM130.277 155.769H134.013L132.084 152.357L130.277 155.769ZM146.09 150.698V154.238C147.432 154.238 148.322 154.117 148.814 153.847C149.374 153.551 149.637 152.991 149.637 152.114C149.637 151.426 149.441 150.921 149.05 150.597C148.652 150.28 148.065 150.105 147.276 150.105C146.784 150.105 146.494 150.152 146.359 150.233C146.258 150.3 146.164 150.455 146.096 150.698H146.09ZM154.586 158.703V159.04H150.614L146.609 154.67H146.083V157.401C146.083 157.914 146.218 158.257 146.447 158.426C146.643 158.527 147.074 158.622 147.789 158.696V159.033H141.262V158.696C141.983 158.622 142.408 158.554 142.577 158.426C142.833 158.284 142.934 157.934 142.934 157.401V151.251C142.934 150.712 142.806 150.354 142.509 150.152C142.307 150.031 141.882 149.956 141.262 149.956V149.64H147.459C149.232 149.64 150.608 149.842 151.531 150.273C152.448 150.691 152.914 151.305 152.914 152.081C152.914 152.816 152.55 153.402 151.828 153.814C151.403 154.056 150.783 154.252 149.927 154.447L153.763 158.426C153.898 158.554 154.026 158.622 154.128 158.649C154.262 158.676 154.391 158.696 154.586 158.696V158.703Z" fill="#02509E"/>
<path fill-rule="evenodd" clip-rule="evenodd" d="M64.073 164.386H65.0913L62.3333 168.634H61.45L60.8296 164.386H61.8478L62.1782 167.582L64.0798 164.386H64.073ZM65.4486 165.485H66.4331L65.6442 168.634H64.6934L65.4486 165.485ZM65.2194 164.285H66.1095L66.3724 165.162H65.8802L65.2194 164.285ZM72.212 166.652H71.2949C71.2949 166.409 71.2275 166.261 71.1331 166.193C71.0387 166.146 70.9038 166.119 70.7083 166.119H70.6746C70.3442 166.119 70.1216 166.288 69.9193 166.584C69.8519 166.726 69.7845 166.901 69.7575 167.05C69.6901 167.218 69.6631 167.346 69.6631 167.461V167.529C69.6631 167.751 69.7305 167.899 69.8249 167.967C69.9261 168.041 70.0542 168.068 70.2498 168.068H70.2835C70.4116 168.068 70.5465 168.041 70.6746 167.967C70.8094 167.872 70.9713 167.724 71.0657 167.529H71.9895C71.9558 167.704 71.8209 167.899 71.5916 168.115C71.4635 168.264 71.3287 168.392 71.1668 168.486C71.005 168.587 70.8364 168.655 70.6746 168.709C70.5127 168.756 70.3104 168.783 70.0137 168.783H69.9193C69.4608 168.783 69.1304 168.634 68.9348 168.371C68.7393 168.176 68.6719 167.926 68.6719 167.636V167.535C68.6719 167.367 68.7056 167.171 68.773 166.928C68.8674 166.706 68.9686 166.49 69.0967 166.321C69.3934 165.93 69.6901 165.688 70.0137 165.539C70.216 165.472 70.506 165.411 70.8971 165.411H70.9645C71.1264 165.411 71.2882 165.438 71.4568 165.465C71.6186 165.485 71.7198 165.533 71.8142 165.586C71.9423 165.681 72.0434 165.802 72.1446 165.998C72.1783 166.146 72.212 166.295 72.212 166.463V166.659V166.652ZM76.5411 165.485L75.7589 168.634H74.7744L74.8688 168.243C74.707 168.412 74.5384 168.56 74.3428 168.634C74.208 168.709 74.0124 168.736 73.8169 168.783C73.4932 168.783 73.2235 168.736 73.0616 168.655C72.7649 168.533 72.6368 168.291 72.6368 167.967V167.825C72.6368 167.778 72.6705 167.731 72.6705 167.657L73.2235 165.485H74.1743L73.682 167.441C73.6483 167.535 73.6483 167.636 73.6146 167.738C73.6146 167.832 73.682 167.906 73.7427 167.953C73.8101 168.028 73.9382 168.055 74.1338 168.055H74.2012C74.4642 168.028 74.6935 167.953 74.8216 167.859C74.9227 167.758 74.9834 167.663 75.0576 167.522L75.5499 165.492H76.5344L76.5411 165.485ZM78.2471 168.783C78.0178 168.783 77.7886 168.736 77.5593 168.682C77.357 168.607 77.1952 168.513 77.0671 168.365C76.8715 168.189 76.7704 167.92 76.7704 167.582C76.7704 167.441 76.8041 167.266 76.8378 167.09C76.8985 166.827 76.9996 166.578 77.1615 166.362C77.2963 166.139 77.4919 165.944 77.7144 165.796C77.883 165.674 78.1055 165.58 78.3685 165.506C78.5978 165.438 78.827 165.404 79.09 165.404C79.3193 165.404 79.5485 165.431 79.7441 165.506C79.9734 165.58 80.1419 165.674 80.2701 165.796C80.3712 165.897 80.4319 165.991 80.4656 166.139C80.5263 166.281 80.5668 166.456 80.5668 166.605C80.5668 166.672 80.533 166.726 80.533 166.773C80.533 166.82 80.533 166.915 80.5061 167.09C80.4386 167.36 80.3038 167.603 80.1757 167.825C80.0475 168.048 79.8452 168.237 79.616 168.365C79.4541 168.506 79.2249 168.607 78.9889 168.655C78.7259 168.729 78.4966 168.783 78.2336 168.783H78.2471ZM78.9012 166.119C78.7731 166.119 78.6382 166.146 78.5034 166.193C78.3685 166.241 78.2404 166.335 78.1392 166.483C78.0785 166.531 78.0111 166.632 77.9437 166.726C77.8762 166.847 77.8088 166.969 77.7751 167.09V167.529C77.7751 167.603 77.8088 167.65 77.8088 167.704C77.8762 167.825 77.9437 167.92 78.0718 167.967C78.1662 168.014 78.3011 168.041 78.4292 168.041C78.5573 168.041 78.6922 168.014 78.8203 167.967C78.9484 167.92 79.0833 167.825 79.1777 167.704C79.2788 167.603 79.3395 167.481 79.4069 167.387C79.4744 167.266 79.5081 167.164 79.5081 167.09L79.5418 166.8C79.5418 166.753 79.5418 166.672 79.5081 166.605V166.477C79.4406 166.328 79.3395 166.254 79.2451 166.187C79.144 166.139 79.0158 166.112 78.8877 166.112L78.9012 166.119ZM79.1979 164.285H79.9262L80.4184 165.162H79.8924L79.4676 164.609L78.7798 165.162H78.2539L79.2046 164.285H79.1979ZM77.7886 169.666L77.9841 168.931H78.9349L78.7731 169.666H77.7886ZM84.7745 166.652H83.8574C83.8574 166.409 83.79 166.261 83.6956 166.193C83.5944 166.146 83.4663 166.119 83.264 166.119H83.237C82.9066 166.119 82.6774 166.288 82.5088 166.584C82.4144 166.726 82.3469 166.901 82.3132 167.05C82.2458 167.218 82.2458 167.346 82.2458 167.461V167.529C82.2458 167.751 82.2728 167.899 82.4076 167.967C82.4751 168.041 82.6032 168.068 82.7987 168.068H82.8662C83.001 168.068 83.0954 168.041 83.2303 167.967C83.3921 167.872 83.527 167.724 83.6214 167.529H84.5385C84.5047 167.704 84.3766 167.899 84.1743 168.115C84.0125 168.264 83.8776 168.392 83.7158 168.486C83.554 168.587 83.3921 168.655 83.2235 168.709C83.0887 168.756 82.8594 168.783 82.5695 168.783H82.4751C82.0435 168.783 81.6861 168.634 81.4838 168.371C81.322 168.176 81.2208 167.926 81.2208 167.636V167.535C81.2208 167.367 81.2546 167.171 81.322 166.928C81.4231 166.706 81.5175 166.49 81.6524 166.321C81.9491 165.93 82.2458 165.688 82.5695 165.539C82.765 165.472 83.0617 165.411 83.4528 165.411H83.5135C83.6753 165.411 83.8439 165.438 84.0058 165.465C84.1676 165.485 84.3025 165.533 84.3699 165.586C84.5047 165.681 84.5991 165.802 84.7003 165.998C84.734 166.146 84.7677 166.295 84.7677 166.463V166.659L84.7745 166.652ZM86.939 167.711H87.8898C87.8898 167.852 87.9505 167.974 88.1191 168.048C88.1798 168.075 88.3483 168.115 88.6113 168.142L88.6787 168.169C88.8743 168.169 89.0092 168.115 89.1373 168.041C89.2384 167.94 89.2991 167.845 89.2991 167.744C89.2991 167.697 89.2654 167.65 89.2317 167.623C89.198 167.576 89.171 167.549 89.1036 167.522L87.9909 167.259C87.7617 167.185 87.5931 167.11 87.4987 167.016C87.4043 166.915 87.3638 166.794 87.3638 166.672L87.3976 166.477C87.4313 166.308 87.5257 166.139 87.6605 165.964C87.7617 165.836 87.8898 165.742 88.0179 165.647C88.1798 165.58 88.3483 165.526 88.5102 165.479C88.7057 165.431 88.908 165.404 89.1036 165.404H89.171C89.3665 165.404 89.5621 165.431 89.7307 165.479C89.8925 165.506 90.0611 165.546 90.1892 165.647C90.3173 165.721 90.4185 165.816 90.4859 165.917C90.5533 166.011 90.5533 166.112 90.5533 166.234V166.301C90.5533 166.402 90.5196 166.443 90.5196 166.47H89.6026L89.6295 166.321C89.6295 166.274 89.6026 166.227 89.5688 166.18C89.5014 166.133 89.434 166.106 89.3396 166.079C89.3059 166.052 89.2384 166.052 89.1777 166.052C89.1103 166.032 89.0429 166.032 88.9822 166.032C88.8473 166.032 88.7192 166.052 88.5574 166.099C88.5237 166.126 88.463 166.173 88.4293 166.227C88.3686 166.274 88.3686 166.321 88.3686 166.369C88.3686 166.463 88.4293 166.51 88.5304 166.537L89.8453 166.854C89.9734 166.901 90.1083 166.955 90.2027 167.077C90.2971 167.205 90.3645 167.326 90.3645 167.475L90.3308 167.616C90.2971 167.812 90.2027 168.007 90.0341 168.176C89.8386 168.398 89.5756 168.574 89.2789 168.641C89.0159 168.715 88.6855 168.769 88.3281 168.769C88.1663 168.769 88.0314 168.742 87.9033 168.722C87.7752 168.695 87.6403 168.675 87.5392 168.621C87.3099 168.554 87.1481 168.425 87.0469 168.257C86.9862 168.162 86.9525 168.014 86.9525 167.893V167.697L86.939 167.711ZM92.4212 168.783C92.1582 168.783 91.9289 168.736 91.7334 168.682C91.5378 168.607 91.3423 168.513 91.2074 168.365C91.0119 168.189 90.9107 167.92 90.9107 167.582C90.9107 167.441 90.9444 167.266 90.9782 167.09C91.0456 166.827 91.1737 166.578 91.3086 166.362C91.4704 166.139 91.6322 165.944 91.8615 165.796C92.0571 165.674 92.2594 165.58 92.5156 165.506C92.7449 165.438 93.0078 165.404 93.2371 165.404C93.5001 165.404 93.7294 165.431 93.9317 165.506C94.1272 165.58 94.289 165.674 94.4239 165.796C94.5183 165.897 94.5857 165.991 94.6262 166.139C94.6936 166.281 94.7206 166.456 94.7206 166.605V166.773C94.6936 166.82 94.6936 166.915 94.6532 167.09C94.5857 167.36 94.4913 167.603 94.3295 167.825C94.1946 168.048 93.9991 168.237 93.7698 168.365C93.608 168.506 93.372 168.607 93.1494 168.655C92.9202 168.729 92.6572 168.783 92.4279 168.783H92.4212ZM93.0753 166.119C92.9134 166.119 92.7786 166.146 92.6505 166.193C92.5156 166.241 92.4212 166.335 92.2863 166.483C92.2189 166.531 92.1582 166.632 92.1245 166.726C92.0233 166.847 91.9896 166.969 91.9559 167.09L91.9289 167.34V167.529C91.9559 167.603 91.9559 167.65 91.9964 167.704C92.0301 167.825 92.1312 167.92 92.2256 167.967C92.32 168.014 92.4549 168.041 92.5898 168.041C92.7246 168.041 92.8527 168.014 92.9809 167.967C93.109 167.92 93.2439 167.825 93.345 167.704C93.4394 167.603 93.5406 167.481 93.5743 167.387C93.6417 167.266 93.6687 167.164 93.6687 167.09L93.7024 166.8V166.605C93.6687 166.531 93.6687 166.504 93.6687 166.477C93.608 166.328 93.5406 166.254 93.4057 166.187C93.3113 166.139 93.2101 166.112 93.082 166.112L93.0753 166.119ZM93.3383 164.285H94.0935L94.5857 165.162H94.0261L93.6012 164.609L92.9067 165.162H92.3807L93.3315 164.285H93.3383ZM94.4846 164.609L95.0106 163.705H95.9613L94.9768 164.609H94.4846ZM95.3073 168.634L96.0962 165.485H97.047L96.9526 165.951C97.2493 165.586 97.6067 165.411 98.0045 165.411C98.3619 165.411 98.6586 165.485 98.8879 165.607C99.0834 165.728 99.1846 165.924 99.1846 166.193C99.1846 166.288 99.1846 166.389 99.1508 166.51L98.6249 168.634H97.6741L98.1326 166.753L98.1663 166.51C98.1663 166.416 98.1326 166.315 98.0382 166.247C97.9708 166.173 97.809 166.146 97.6067 166.146C97.3437 166.146 97.1144 166.193 96.9863 166.315C96.8851 166.389 96.7907 166.51 96.757 166.679L96.2648 168.634H95.314H95.3073ZM102.691 165.485H103.581L102.792 168.709C102.731 168.904 102.63 169.1 102.495 169.268C102.334 169.417 102.172 169.565 101.969 169.666C101.808 169.734 101.605 169.808 101.41 169.862C101.214 169.889 100.951 169.909 100.621 169.909C100.196 169.909 99.8656 169.841 99.6363 169.713C99.3734 169.565 99.2722 169.376 99.2722 169.154L99.3059 169.005H100.29V169.053C100.29 169.127 100.358 169.201 100.452 169.275C100.547 169.322 100.682 169.349 100.877 169.349C101.106 169.349 101.302 169.302 101.497 169.181C101.7 169.079 101.828 168.938 101.862 168.763L101.963 168.297C101.767 168.466 101.599 168.594 101.47 168.634C101.302 168.736 101.079 168.783 100.877 168.783C100.614 168.783 100.385 168.756 100.257 168.682C100.122 168.634 99.9937 168.56 99.8926 168.412C99.697 168.216 99.6296 167.947 99.6296 167.657C99.6296 167.313 99.6903 166.976 99.8926 166.632C100.054 166.261 100.284 165.991 100.58 165.796C100.715 165.708 100.843 165.627 101.005 165.553C101.234 165.465 101.43 165.411 101.632 165.411H101.727C101.922 165.411 102.091 165.438 102.185 165.512C102.253 165.559 102.388 165.715 102.549 165.951L102.684 165.485H102.691ZM101.673 166.173C101.545 166.173 101.41 166.2 101.275 166.247C101.147 166.295 101.012 166.389 100.884 166.51C100.816 166.611 100.722 166.733 100.688 166.827C100.628 166.949 100.594 167.023 100.594 167.09C100.56 167.164 100.56 167.239 100.56 167.293C100.526 167.36 100.526 167.414 100.526 167.414C100.526 167.488 100.526 167.535 100.56 167.582C100.56 167.657 100.56 167.711 100.594 167.751C100.661 167.872 100.729 167.947 100.823 168.021C100.958 168.068 101.052 168.095 101.187 168.095C101.322 168.095 101.45 168.068 101.578 168.021C101.713 167.974 101.841 167.872 101.969 167.751C102.037 167.684 102.104 167.582 102.165 167.461C102.232 167.36 102.259 167.239 102.293 167.117C102.293 167.07 102.327 166.996 102.327 166.874C102.327 166.827 102.293 166.753 102.293 166.679C102.293 166.584 102.259 166.537 102.259 166.51C102.226 166.389 102.125 166.288 102.03 166.247C101.936 166.2 101.801 166.173 101.666 166.173H101.673ZM106.164 165.533H106.622L106.852 164.676H107.802L107.573 165.533H108.099L107.971 166.065H107.445L107.013 167.852L106.98 168.021C106.98 168.095 107.013 168.115 107.081 168.115H107.438L107.31 168.682C107.243 168.709 107.175 168.729 107.081 168.729C106.98 168.756 106.912 168.756 106.852 168.776C106.784 168.776 106.723 168.776 106.656 168.749C106.555 168.749 106.494 168.749 106.393 168.722C106.265 168.675 106.164 168.621 106.096 168.527C106.002 168.425 105.968 168.324 105.968 168.183V168.108L106.494 166.058H106.002L106.164 165.526V165.533ZM109.677 168.783C109.414 168.783 109.212 168.736 108.982 168.682C108.787 168.607 108.618 168.513 108.49 168.365C108.288 168.189 108.193 167.92 108.193 167.582C108.193 167.441 108.22 167.266 108.261 167.09C108.322 166.827 108.423 166.578 108.584 166.362C108.713 166.139 108.908 165.944 109.104 165.796C109.306 165.674 109.535 165.58 109.765 165.506C110.028 165.438 110.257 165.404 110.527 165.404C110.756 165.404 110.985 165.431 111.181 165.506C111.417 165.58 111.578 165.674 111.707 165.796C111.774 165.897 111.868 165.991 111.909 166.139C111.97 166.281 111.97 166.456 111.97 166.605V166.773C111.97 166.82 111.97 166.915 111.936 167.09C111.868 167.36 111.74 167.603 111.612 167.825C111.477 168.048 111.282 168.237 111.052 168.365C110.85 168.506 110.655 168.607 110.425 168.655C110.162 168.729 109.933 168.783 109.67 168.783H109.677ZM110.331 166.119C110.203 166.119 110.075 166.146 109.94 166.193C109.805 166.241 109.677 166.335 109.576 166.483C109.508 166.531 109.441 166.632 109.373 166.726C109.313 166.847 109.245 166.969 109.212 167.09V167.529C109.212 167.603 109.245 167.65 109.245 167.704C109.313 167.825 109.373 167.92 109.508 167.967C109.603 168.014 109.738 168.041 109.872 168.041C110.007 168.041 110.135 168.014 110.264 167.967C110.398 167.92 110.493 167.825 110.628 167.704C110.722 167.603 110.796 167.481 110.857 167.387C110.897 167.266 110.931 167.164 110.958 167.09L110.992 166.8C110.992 166.753 110.992 166.672 110.958 166.605V166.477C110.897 166.328 110.796 166.254 110.695 166.187C110.594 166.139 110.466 166.112 110.331 166.112V166.119ZM110.628 164.285H111.356L111.848 165.162H111.322L110.897 164.609L110.21 165.162H109.684L110.628 164.285ZM111.74 164.609L112.273 163.705H113.251L112.233 164.609H111.74ZM113.021 165.533H113.48L113.709 164.676H114.66L114.431 165.533H114.99L114.829 166.065H114.303L113.878 167.852L113.844 168.021C113.844 168.095 113.878 168.115 113.939 168.115H114.33L114.168 168.682C114.1 168.709 114.033 168.729 113.939 168.729C113.844 168.756 113.777 168.756 113.709 168.776C113.642 168.776 113.581 168.776 113.514 168.749C113.453 168.749 113.352 168.749 113.251 168.722C113.123 168.675 113.021 168.621 112.954 168.527C112.853 168.425 112.826 168.324 112.826 168.183V168.108L113.352 166.058H112.893L113.028 165.526L113.021 165.533ZM120.075 165.216H119.158L119.326 164.656H120.21L120.304 164.386H121.255L121.187 164.656H121.552L121.417 165.216H121.059L120.21 168.661H119.225L119.326 168.324C119.158 168.466 118.996 168.594 118.794 168.661C118.605 168.736 118.436 168.79 118.274 168.79H118.173C117.843 168.79 117.614 168.715 117.452 168.594C117.29 168.466 117.155 168.297 117.094 168.055C117.061 167.953 117.061 167.859 117.027 167.758C116.993 167.636 116.993 167.562 116.993 167.495C116.993 167.448 116.993 167.394 117.027 167.353V167.158C117.061 167.009 117.121 166.841 117.189 166.665C117.29 166.497 117.391 166.328 117.519 166.153C117.748 165.856 118.011 165.661 118.308 165.546C118.51 165.479 118.74 165.418 119.003 165.418H119.07C119.333 165.418 119.529 165.472 119.69 165.559C119.792 165.661 119.893 165.755 119.926 165.903L120.088 165.222L120.075 165.216ZM119.063 166.119C118.928 166.119 118.794 166.146 118.699 166.22C118.564 166.268 118.436 166.342 118.335 166.483C118.274 166.557 118.207 166.632 118.173 166.726C118.106 166.847 118.038 166.969 118.011 167.09C118.011 167.144 118.011 167.191 117.978 167.266V167.556C118.011 167.603 118.011 167.657 118.011 167.704C118.079 167.825 118.14 167.92 118.241 167.967C118.335 168.041 118.436 168.068 118.564 168.068C118.692 168.068 118.834 168.041 118.928 167.994C119.063 167.92 119.191 167.825 119.293 167.704C119.353 167.63 119.427 167.556 119.488 167.434C119.549 167.34 119.583 167.212 119.616 167.09L119.65 166.8V166.605C119.616 166.531 119.616 166.504 119.616 166.477C119.583 166.355 119.488 166.254 119.387 166.214C119.293 166.139 119.191 166.112 119.063 166.112V166.119ZM124.599 167.293H122.138C122.138 167.34 122.104 167.387 122.104 167.461C122.071 167.529 122.071 167.582 122.071 167.609C122.071 167.657 122.104 167.731 122.131 167.832C122.199 167.926 122.266 167.974 122.361 168.028C122.489 168.075 122.59 168.102 122.725 168.102H122.887C123.022 168.075 123.15 168.055 123.251 167.974C123.379 167.906 123.48 167.832 123.514 167.731H124.465C124.296 168.021 124.04 168.264 123.608 168.486C123.217 168.682 122.853 168.783 122.496 168.783C122.334 168.783 122.172 168.756 122.037 168.709C121.868 168.661 121.74 168.607 121.612 168.54C121.444 168.419 121.316 168.297 121.248 168.176C121.154 168.048 121.113 167.906 121.113 167.778V167.636C121.113 167.589 121.113 167.495 121.147 167.394C121.181 167.245 121.214 167.151 121.214 167.077C121.248 166.955 121.309 166.834 121.343 166.706C121.572 166.173 121.936 165.802 122.388 165.607C122.651 165.485 122.981 165.411 123.338 165.411C123.696 165.411 123.966 165.485 124.195 165.607C124.363 165.715 124.525 165.849 124.586 166.052C124.653 166.119 124.653 166.22 124.687 166.315C124.721 166.416 124.721 166.51 124.721 166.611C124.721 166.713 124.721 166.807 124.687 166.901C124.687 167.03 124.653 167.151 124.586 167.299L124.599 167.293ZM122.28 166.753H123.75L123.784 166.557C123.784 166.429 123.75 166.335 123.682 166.261C123.588 166.139 123.453 166.092 123.258 166.092H123.19C122.961 166.092 122.732 166.166 122.57 166.315C122.408 166.436 122.307 166.584 122.28 166.753ZM121.875 169.639L122.078 168.904H123.028L122.86 169.639H121.875ZM126.009 165.485H126.96L126.831 165.951C126.993 165.822 127.155 165.708 127.29 165.586C127.486 165.465 127.722 165.411 127.944 165.411H128.011C128.207 165.411 128.409 165.465 128.571 165.553C128.699 165.6 128.8 165.708 128.895 165.796C129.057 165.991 129.158 166.261 129.158 166.632C129.158 166.969 129.09 167.293 128.929 167.63C128.767 167.947 128.571 168.216 128.274 168.412C128.113 168.533 127.91 168.634 127.748 168.682C127.587 168.729 127.391 168.783 127.128 168.783C126.96 168.783 126.798 168.756 126.67 168.682C126.568 168.634 126.407 168.513 126.245 168.291L125.847 169.902H124.896L126.009 165.485ZM127.587 166.146C127.452 166.146 127.357 166.173 127.223 166.22C127.094 166.268 126.96 166.362 126.858 166.51C126.798 166.557 126.764 166.652 126.697 166.753C126.629 166.874 126.562 166.996 126.535 167.117C126.535 167.164 126.535 167.218 126.501 167.293V167.414C126.501 167.461 126.501 167.515 126.535 167.582C126.535 167.63 126.535 167.684 126.562 167.731C126.595 167.852 126.663 167.92 126.764 167.994C126.858 168.041 126.993 168.068 127.094 168.068C127.223 168.068 127.357 168.041 127.452 167.994C127.587 167.947 127.722 167.852 127.85 167.731C127.91 167.63 127.978 167.556 128.011 167.488C128.079 167.346 128.113 167.218 128.146 167.117C128.146 167.07 128.18 167.023 128.18 166.976V166.834C128.18 166.686 128.18 166.591 128.146 166.517C128.113 166.375 128.011 166.295 127.917 166.227C127.823 166.18 127.728 166.153 127.593 166.153L127.587 166.146ZM131.423 168.634L132.509 164.386H133.46L133.069 165.903C133.231 165.755 133.392 165.634 133.561 165.539C133.757 165.472 133.959 165.411 134.121 165.411C134.519 165.411 134.775 165.485 135.004 165.607C135.2 165.728 135.328 165.924 135.328 166.193C135.328 166.288 135.301 166.389 135.267 166.51L134.741 168.634H133.79L134.249 166.753L134.283 166.51C134.283 166.416 134.249 166.315 134.181 166.247C134.08 166.173 133.918 166.146 133.723 166.146C133.46 166.146 133.264 166.193 133.103 166.315C133.001 166.389 132.934 166.51 132.873 166.679L132.381 168.634H131.43H131.423ZM139.434 165.998C139.468 166.099 139.529 166.2 139.529 166.315C139.562 166.436 139.596 166.557 139.596 166.679L139.529 167.097C139.434 167.367 139.333 167.609 139.198 167.832C139.036 168.055 138.868 168.243 138.639 168.371C138.443 168.513 138.248 168.614 137.985 168.661C137.755 168.736 137.526 168.79 137.263 168.79C137 168.79 136.771 168.742 136.569 168.688C136.373 168.614 136.211 168.52 136.076 168.371C135.881 168.196 135.78 167.926 135.78 167.589C135.78 167.448 135.78 167.272 135.847 167.097C135.914 166.834 136.009 166.584 136.144 166.369C136.306 166.146 136.474 165.951 136.703 165.802C136.899 165.681 137.128 165.586 137.364 165.512C137.627 165.445 137.856 165.411 138.086 165.411C138.349 165.411 138.578 165.438 138.774 165.485C138.935 165.553 139.104 165.627 139.232 165.748C139.333 165.748 139.428 165.708 139.529 165.607C139.63 165.539 139.691 165.465 139.691 165.384H139.333L139.495 164.966H140.217L140.088 165.384C140.055 165.465 139.987 165.553 139.859 165.681C139.731 165.802 139.562 165.903 139.434 165.998ZM137.924 166.119C137.789 166.119 137.654 166.146 137.526 166.193C137.398 166.241 137.263 166.335 137.162 166.483C137.094 166.531 137.034 166.632 136.966 166.726C136.899 166.847 136.838 166.969 136.805 167.09L136.771 167.34C136.771 167.407 136.771 167.461 136.805 167.529C136.805 167.603 136.838 167.65 136.838 167.704C136.865 167.825 136.966 167.92 137.067 167.967C137.196 168.014 137.297 168.041 137.425 168.041C137.56 168.041 137.688 168.014 137.823 167.967C137.958 167.92 138.086 167.825 138.221 167.704C138.315 167.603 138.382 167.481 138.45 167.387C138.477 167.266 138.517 167.164 138.544 167.09L138.578 166.8C138.578 166.753 138.544 166.672 138.544 166.605C138.544 166.531 138.544 166.504 138.511 166.477C138.477 166.328 138.376 166.254 138.281 166.187C138.18 166.139 138.052 166.112 137.924 166.112V166.119ZM139.893 168.634L140.682 165.485H141.633L141.531 165.951C141.828 165.586 142.192 165.411 142.583 165.411C142.941 165.411 143.244 165.485 143.467 165.607C143.662 165.728 143.763 165.924 143.763 166.193C143.763 166.288 143.763 166.389 143.73 166.51L143.204 168.634H142.253L142.712 166.753L142.745 166.51C142.745 166.416 142.712 166.315 142.61 166.247C142.543 166.173 142.381 166.146 142.186 166.146C141.923 166.146 141.693 166.193 141.558 166.315C141.457 166.389 141.356 166.51 141.329 166.679L140.837 168.634H139.886H139.893Z" fill="url(#paint2_linear_728_1219)"/>
<path fill-rule="evenodd" clip-rule="evenodd" d="M80.5732 136.025C77.6804 133.152 69.5481 126.699 70.7619 124.312C73.0613 122.289 81.7869 125.384 84.8348 125.364C80.4383 122.41 73.2231 120.239 66.9857 121.675C65.772 127.049 74.6325 135.344 80.5732 136.025ZM124.012 136.025C126.932 133.152 135.037 126.699 133.857 124.312C131.524 122.289 122.799 125.384 119.778 125.364C124.174 122.41 131.362 120.239 137.593 121.675C138.814 127.049 129.946 135.344 124.012 136.025Z" fill="url(#paint3_linear_728_1219)"/>
<defs>
<linearGradient id="paint0_linear_728_1219" x1="101.788" y1="106.69" x2="102.752" y2="148.91" gradientUnits="userSpaceOnUse">
<stop stop-color="#E92629"/>
<stop offset="0.8" stop-color="#BE1E2D"/>
</linearGradient>
<linearGradient id="paint1_linear_728_1219" x1="102.927" y1="110.529" x2="101.39" y2="158.345" gradientUnits="userSpaceOnUse">
<stop offset="0.49" stop-color="#00A551"/>
<stop offset="0.8" stop-color="#006838"/>
</linearGradient>
<linearGradient id="paint2_linear_728_1219" x1="102.266" y1="167.744" x2="103.028" y2="100.318" gradientUnits="userSpaceOnUse">
<stop offset="0.47" stop-color="#F4831F"/>
<stop offset="1" stop-color="#F6AE1A"/>
</linearGradient>
<linearGradient id="paint3_linear_728_1219" x1="101.787" y1="167.738" x2="102.34" y2="118.587" gradientUnits="userSpaceOnUse">
<stop offset="0.47" stop-color="#F4831F"/>
<stop offset="1" stop-color="#F6AE1A"/>
</linearGradient>
</defs>
</svg>
