<svg width="300" height="300" viewBox="0 0 300 300" fill="none" xmlns="http://www.w3.org/2000/svg">
<path d="M150.032 271.622C147.901 271.637 145.804 271.091 143.95 270.041C128.078 260.858 10.5237 187.151 6.08431 184.901C2.70575 183.324 0.398715 180.094 0.00288008 176.387V73.0025C-0.0845429 69.1434 1.82323 65.5118 5.05044 63.3939L5.90185 62.9074C17.2741 55.8529 55.3436 32.6219 61.3643 29.2771C62.7459 28.4572 64.3194 28.0167 65.9254 28C67.4312 28.017 68.9112 28.3923 70.2434 29.0947C70.2434 29.0947 123.517 63.8196 131.666 66.9211C137.384 69.5481 143.618 70.8573 149.91 70.7524C157.039 70.9014 164.084 69.1822 170.343 65.7656C178.31 61.5694 229.212 29.2771 229.759 29.2771C231.042 28.502 232.517 28.1017 234.016 28.1216C235.624 28.1295 237.199 28.5707 238.577 29.3987C245.51 33.23 292.702 62.1168 294.709 63.3939C298.028 65.3964 300.04 69.0049 299.999 72.8809V176.265C299.627 179.982 297.313 183.222 293.918 184.779C289.479 187.211 172.29 260.919 156.113 269.919C154.271 271.012 152.173 271.6 150.032 271.622Z" fill="#EE0A3F"/>
</svg>
