<svg width="300" height="300" viewBox="0 0 300 300" fill="none" xmlns="http://www.w3.org/2000/svg">
<path d="M240.024 53.2785L224.048 48.9517L240.024 44.625L244.351 28.3164L248.678 44.625L264.653 48.9517L248.678 53.2785L244.351 69.2542L240.024 53.2785ZM256 70.9184L249.676 69.2542L256 67.9229L257.331 61.5992L258.995 67.9229L264.986 69.2542L258.995 70.9184L257.331 76.9093L256 70.9184Z" fill="#F6AE1A"/>
<path d="M42.9894 160.783L36 159.118L42.9894 157.454L44.6535 150.465L46.3177 157.454L53.307 159.118L46.3177 160.783L44.6535 167.772L42.9894 160.783Z" fill="#F6AE1A"/>
<path d="M49.313 58.6038C49.313 59.3983 49.6286 60.1602 50.1903 60.7219C50.7521 61.2837 51.514 61.5993 52.3084 61.5993C53.1029 61.5993 53.8648 61.2837 54.4265 60.7219C54.9883 60.1602 55.3039 59.3983 55.3039 58.6038C55.3039 57.8094 54.9883 57.0475 54.4265 56.4857C53.8648 55.924 53.1029 55.6084 52.3084 55.6084C51.514 55.6084 50.7521 55.924 50.1903 56.4857C49.6286 57.0475 49.313 57.8094 49.313 58.6038Z" fill="#02509E"/>
<path d="M249.676 224.685C248.03 224.685 246.421 224.197 245.053 223.283C243.685 222.369 242.618 221.069 241.988 219.549C241.359 218.028 241.194 216.355 241.515 214.741C241.836 213.127 242.628 211.645 243.792 210.481C244.956 209.317 246.438 208.525 248.052 208.204C249.666 207.883 251.339 208.048 252.86 208.677C254.38 209.307 255.68 210.374 256.594 211.742C257.508 213.11 257.996 214.719 257.996 216.365C257.996 218.571 257.12 220.688 255.559 222.248C253.999 223.809 251.882 224.685 249.676 224.685ZM249.676 212.704C249.017 212.704 248.374 212.899 247.827 213.264C247.279 213.63 246.853 214.15 246.601 214.758C246.349 215.366 246.283 216.036 246.411 216.681C246.54 217.327 246.857 217.92 247.322 218.385C247.788 218.851 248.381 219.168 249.026 219.296C249.672 219.425 250.341 219.359 250.949 219.107C251.558 218.855 252.077 218.428 252.443 217.881C252.809 217.334 253.004 216.69 253.004 216.032C253.004 215.149 252.653 214.303 252.029 213.678C251.405 213.054 250.558 212.704 249.676 212.704Z" fill="#02509E"/>
<path d="M230.556 223.895L247.736 241.075L205.819 282.992L188.639 265.812L230.556 223.895Z" fill="#F97744"/>
<path d="M213.065 246.652L199.752 259.965C196.423 263.293 196.423 268.951 200.084 272.613C203.08 275.275 208.405 275.608 212.066 272.28L225.379 258.967L213.065 246.652ZM58.9654 255.638L49.979 253.641L58.9654 251.312L60.9623 242.325L63.2921 251.312L72.2785 253.641L63.2921 255.638L60.9623 264.625L58.9654 255.638Z" fill="#F6AE1A"/>
<path d="M222.383 199.058V126.834H84.2598V199.058H222.383ZM134.517 159.784H150.825V143.475H157.482V159.784H173.79V166.44H157.482V182.749H150.825V166.44H134.517V159.784Z" fill="white"/>
<path d="M192.097 228.347C195.024 225.46 198.969 223.842 203.08 223.842C207.191 223.842 211.136 225.46 214.063 228.347L217.724 232.008L219.389 230.344L222.384 228.014V205.714H83.9277V249.648C83.9277 252.649 85.12 255.527 87.2422 257.649C89.3643 259.772 92.2426 260.964 95.2439 260.964H191.098C191.802 258.596 193.057 256.429 194.759 254.64L195.758 253.642L192.097 249.981C189.31 247.069 187.754 243.194 187.754 239.164C187.754 235.133 189.31 231.258 192.097 228.347ZM222.384 96.547C222.384 93.5457 221.192 90.6674 219.07 88.5452C216.947 86.4231 214.069 85.2308 211.068 85.2308H162.808V60.6016H143.504V84.898H95.2439C92.2426 84.898 89.3643 86.0902 87.2422 88.2124C85.12 90.3346 83.9277 93.2129 83.9277 96.2141V119.845H222.384V96.547ZM150.826 182.749H157.483V166.441H173.791V159.784H157.483V143.476H150.826V159.784H134.518V166.441H150.826V182.749Z" fill="#0DB061"/>
<path d="M122.868 24.6553H129.192V53.9375H122.868V24.6553ZM136.181 24.6553H142.505V53.9375H136.181V24.6553ZM109.888 24.9881V53.9441H116.211V24.6553H109.888V24.9881ZM196.423 53.6113V24.9881H188.435V54.2769H196.09L196.423 53.6113ZM175.455 24.6553H181.778V53.9375H175.455V24.6553ZM149.161 24.6553H155.485V53.9375H149.161V24.6553ZM162.474 24.6553H168.798V53.9375H162.474V24.6553Z" fill="#FDCD60"/>
<path d="M222.717 270.948C224.434 271.968 226.442 272.386 228.423 272.137C230.404 271.889 232.246 270.987 233.659 269.575C235.071 268.163 235.972 266.321 236.221 264.34C236.469 262.358 236.051 260.351 235.031 258.634L222.717 270.948ZM213.065 236.667L209.404 233.006C207.679 231.59 205.49 230.867 203.262 230.977C201.034 231.086 198.926 232.02 197.348 233.598C195.771 235.175 194.837 237.283 194.727 239.511C194.618 241.74 195.341 243.929 196.756 245.653L200.417 249.314L213.065 236.667Z" fill="#AFBCF3"/>
<path d="M230.705 232.341C228.436 232.408 226.285 233.365 224.714 235.003L208.739 250.979L213.065 246.652L225.38 258.634L218.723 265.291L237.029 246.985C238.189 245.777 238.974 244.258 239.288 242.612C239.602 240.966 239.432 239.265 238.797 237.714C238.163 236.164 237.092 234.83 235.715 233.877C234.337 232.923 232.713 232.389 231.038 232.341H230.705Z" fill="#F97744"/>
<path d="M241.687 251.978C243.972 249.695 245.494 246.76 246.044 243.577C246.594 240.395 246.145 237.12 244.759 234.202C243.373 231.284 241.118 228.867 238.304 227.283C235.489 225.698 232.253 225.024 229.04 225.352V96.5473C229.04 91.7807 227.146 87.2093 223.776 83.8387C220.405 80.4682 215.834 78.5746 211.067 78.5746H169.464V60.602H196.09C197.944 60.602 199.721 59.8656 201.032 58.5548C202.343 57.244 203.079 55.4663 203.079 53.6126V24.9894C203.079 23.1357 202.343 21.3579 201.032 20.0471C199.721 18.7364 197.944 18 196.09 18H110.22C108.367 18 106.589 18.7364 105.278 20.0471C103.967 21.3579 103.231 23.1357 103.231 24.9894V53.9454C103.231 55.7991 103.967 57.5769 105.278 58.8876C106.589 60.1984 108.367 60.9348 110.22 60.9348H136.847V78.9075H95.2432C90.4766 78.9075 85.9051 80.801 82.5346 84.1716C79.1641 87.5421 77.2705 92.1135 77.2705 96.8802V249.648C77.2705 254.415 79.1641 258.986 82.5346 262.357C85.9051 265.727 90.4766 267.621 95.2432 267.621H190.432C190.757 270.552 191.904 273.331 193.741 275.638C195.577 277.946 198.028 279.687 200.812 280.661C203.595 281.635 206.597 281.803 209.472 281.144C212.346 280.486 214.976 279.029 217.058 276.94L218.057 275.942C221.065 278.309 224.837 279.49 228.658 279.263C232.479 279.036 236.084 277.416 238.791 274.709C241.498 272.002 243.118 268.397 243.345 264.576C243.572 260.755 242.39 256.983 240.023 253.975L241.687 251.978ZM188.435 24.6566H196.09V53.6126H188.435V24.6566ZM175.455 24.6566H181.778V53.9454H175.455V24.6566ZM222.383 126.835V199.058H84.2599V126.835H222.383ZM162.474 24.6566H168.798V53.9454H162.474V24.6566ZM149.494 24.6566H155.818V53.9454H149.161L149.494 24.6566ZM116.544 53.9454H109.888V24.9894H116.211L116.544 53.9454ZM129.524 53.9454H122.868V24.6566H129.192L129.524 53.9454ZM136.181 53.9454V24.6566H142.505V53.9454H136.181ZM83.9271 96.5473C83.9271 93.5461 85.1193 90.6678 87.2415 88.5456C89.3637 86.4234 92.242 85.2312 95.2432 85.2312H143.503V60.602H163.14V84.8984H211.067C214.068 84.8984 216.947 86.0906 219.069 88.2128C221.191 90.335 222.383 93.2133 222.383 96.2145V119.845H83.9271V96.5473ZM194.759 254.641C193.056 256.43 191.802 258.597 191.098 260.964H95.2432C92.242 260.964 89.3637 259.772 87.2415 257.65C85.1193 255.528 83.9271 252.649 83.9271 249.648V205.715H222.383V227.681L219.388 230.011L217.724 231.675L214.063 228.014C211.054 225.647 207.283 224.466 203.462 224.693C199.64 224.92 196.035 226.54 193.329 229.247C190.622 231.953 189.002 235.559 188.774 239.38C188.547 243.201 189.729 246.973 192.096 249.981L195.757 253.642L194.759 254.641ZM197.088 233.007C198.771 231.34 201.044 230.405 203.412 230.405C205.781 230.405 208.053 231.34 209.736 233.007L213.397 236.668L200.75 249.315L197.088 245.654C195.422 243.971 194.487 241.699 194.487 239.33C194.487 236.962 195.422 234.689 197.088 233.007ZM234.032 270.283C232.55 271.728 230.614 272.616 228.552 272.798C226.49 272.98 224.429 272.444 222.716 271.282L235.031 258.967C236.193 260.68 236.728 262.741 236.547 264.803C236.365 266.865 235.477 268.801 234.032 270.283ZM236.695 247.318L218.389 265.624L211.733 272.28C208.405 275.609 202.747 275.276 199.751 272.613L198.087 270.283L197.421 268.286C197.165 266.917 197.243 265.506 197.648 264.173C198.054 262.841 198.775 261.626 199.751 260.631L208.737 251.978L224.713 236.002C226.346 234.369 228.561 233.452 230.871 233.452C233.18 233.452 235.395 234.369 237.028 236.002C238.661 237.635 239.578 239.85 239.578 242.159C239.578 244.469 238.661 246.684 237.028 248.317L236.695 247.318Z" fill="#02509E"/>
<path d="M213.065 246.319L208.739 250.646L199.752 259.3C198.776 260.294 198.055 261.509 197.649 262.842C197.244 264.174 197.166 265.585 197.422 266.955L198.088 268.952L199.752 271.281C202.748 273.944 208.073 274.277 211.734 270.949L218.391 264.292L225.047 257.635L213.065 246.319Z" fill="#FDCD60"/>
</svg>
