<svg width="300" height="300" viewBox="0 0 300 300" fill="none" xmlns="http://www.w3.org/2000/svg">
<path d="M192.287 84.6827H80.1564V58L19.0869 119.069L225.433 142.23V199.495L159.093 227.547L186.055 261.933L192.287 261.934C241.155 261.934 280.913 222.175 280.913 173.309C280.913 124.442 241.155 84.6827 192.287 84.6827Z" fill="#02509E"/>
<path d="M192.287 119.069L19.0869 119.068L80.1564 180.138L86.6677 159.966L187.357 153.455H192.287C203.233 153.455 212.14 162.363 212.14 173.308C212.14 184.253 203.233 193.161 192.287 193.161H160.395V227.547H193.59C223.548 227.547 246.527 203.267 246.527 173.308C246.527 143.35 222.246 119.069 192.287 119.069Z" fill="#00376F"/>
<path d="M187.357 153.454V261.932H125.496L133.753 158.819L144.487 153.454H187.357Z" fill="#0DB061"/>
<path d="M133.753 158.819V261.932H80.1567V153.454H123.027L133.753 158.819Z" fill="white"/>
<path d="M144.488 153.454H123.027V185.645H144.488V153.454Z" fill="#006838"/>
</svg>
