<svg width="300" height="300" viewBox="0 0 300 300" fill="none" xmlns="http://www.w3.org/2000/svg">
<path d="M271.875 300H28.125C12.5906 300 0 287.409 0 271.875V131.25H300V271.875C300 287.409 287.409 300 271.875 300Z" fill="#F4831F"/>
<path d="M253.125 300H28.125C12.5906 300 0 287.409 0 271.875V131.25H281.25V271.875C281.25 287.409 268.659 300 253.125 300Z" fill="#F6AE1A"/>
<path d="M300 131.25H0V28.125C0 12.5906 12.5906 0 28.125 0H271.875C287.409 0 300 12.5906 300 28.125V131.25Z" fill="#006838"/>
<path d="M281.25 131.25H0V28.125C0 12.5906 12.5906 0 28.125 0H253.125C268.659 0 281.25 12.5906 281.25 28.125V131.25Z" fill="#00A551"/>
<path d="M28.125 131.25H0V28.125C0 12.5906 12.5906 0 28.125 0V131.25ZM84.375 0H56.25V131.25H84.375V0ZM140.625 0H112.5V131.25H140.625V0ZM196.875 0H168.75V131.25H196.875V0ZM253.125 0H225V131.25H253.125V0Z" fill="#006838"/>
<path d="M131.25 253.125H46.875C41.7 253.125 37.5 248.925 37.5 243.75V196.875C37.5 191.7 41.7 187.5 46.875 187.5H131.25C136.425 187.5 140.625 191.7 140.625 196.875V243.75C140.625 248.925 136.425 253.125 131.25 253.125Z" fill="#65C3AB"/>
<path d="M234.375 300H168.75V196.875C168.75 191.7 172.95 187.5 178.125 187.5H225C230.175 187.5 234.375 191.7 234.375 196.875V300Z" fill="#BE1E2D"/>
<path d="M178.125 196.875V300H168.75V196.875C168.75 191.7 172.95 187.5 178.125 187.5H187.5C182.325 187.5 178.125 191.7 178.125 196.875ZM46.875 243.75V196.875C46.875 191.7 51.075 187.5 56.25 187.5H46.875C41.7 187.5 37.5 191.7 37.5 196.875V243.75C37.5 248.925 41.7 253.125 46.875 253.125H56.25C51.075 253.125 46.875 248.925 46.875 243.75Z" fill="#F4831F"/>
<path fill-rule="evenodd" clip-rule="evenodd" d="M145.511 73.2416C140.772 67.5792 135.272 62.5242 137.308 57.1697C138.728 53.3891 145.836 46.9826 150.335 44.1001C154.826 46.9826 161.943 53.3891 163.363 57.1697C165.407 62.5242 159.907 67.5792 155.16 73.2416C163.32 71.1032 172.472 63.6703 169.975 58.008C166.733 50.729 156.16 43.3046 150.335 36C144.51 43.3046 133.938 50.7375 130.739 58.008C128.198 63.6703 137.351 71.1118 145.511 73.2416Z" fill="white"/>
<path fill-rule="evenodd" clip-rule="evenodd" d="M91.7417 61.0381C99.7309 67.4104 111.296 69.583 122.535 71.3193C133.766 73.0471 141.679 76.5882 144.929 82.4387C135.854 76.554 125.29 79.274 113.383 77.4179C103.349 75.8355 96.2752 68.5651 91.7417 61.0381ZM208.937 61.0381C200.948 67.4104 189.417 69.583 178.135 71.3193C166.904 73.0471 158.992 76.5882 155.741 82.4387C164.817 76.554 175.389 79.274 187.288 77.4179C197.364 75.8355 204.395 68.5651 208.937 61.0381Z" fill="white"/>
<path fill-rule="evenodd" clip-rule="evenodd" d="M100.817 85.6455V86.0476C100.192 86.1416 99.6876 86.2699 99.3968 86.4496C99.1915 86.6377 98.9007 86.9799 98.6099 87.5102L93.0328 97.9111H92.3228L86.0786 87.2878C85.7877 86.7917 85.4969 86.4838 85.2489 86.364C85.0008 86.2357 84.5817 86.1502 84 86.0561V85.6541H92.2373V86.0561C91.4076 86.0561 90.8687 86.116 90.5779 86.1759C90.287 86.2785 90.116 86.4838 90.116 86.8003C90.116 86.9884 90.287 87.2964 90.5351 87.7668C90.6634 87.9464 90.7404 88.1688 90.8687 88.3484L94.1191 93.9253L97.1985 88.1089C97.361 87.7925 97.5321 87.5786 97.5749 87.3904C97.6604 87.2365 97.6946 87.0483 97.6946 86.8601C97.6946 86.5522 97.5321 86.3298 97.1985 86.2357C96.8649 86.116 96.326 86.0476 95.5733 86.0476V85.6455H100.817ZM110.337 97.1413V97.569H101.766V97.1413C102.562 97.1413 103.101 97.0815 103.391 96.9275C103.845 96.7393 104.059 96.3972 104.059 95.9011V87.3562C104.059 86.8345 103.802 86.4838 103.349 86.3042C103.058 86.1759 102.562 86.1245 101.766 86.0561V85.6541H110.337V86.0561C109.593 86.0561 109.088 86.116 108.763 86.2443C108.301 86.4239 108.053 86.8003 108.053 87.3562V95.9011C108.053 96.3031 108.182 96.5854 108.387 96.7735C108.72 97.0216 109.345 97.1413 110.337 97.1413ZM127.034 94.9089L127.736 95.3109C126.735 96.1748 125.734 96.7906 124.827 97.167C123.664 97.6973 122.33 97.9368 120.875 97.9368C118.172 97.9368 116.008 97.3124 114.383 96.0465C112.843 94.9003 112.099 93.4377 112.099 91.7014C112.099 89.965 112.929 88.3912 114.554 87.1595C116.179 85.9449 118.258 85.3633 120.798 85.3633C121.551 85.3633 122.295 85.4232 123.091 85.6028C123.878 85.8252 124.707 86.0048 125.503 86.2272C125.828 86.2272 126.085 86.1416 126.247 85.9791C126.333 85.8936 126.452 85.6969 126.624 85.3889H127.333V89.5716H126.666C126.204 88.6478 125.503 87.8352 124.588 87.1595C123.467 86.3555 122.261 85.9449 121.004 85.9449C119.336 85.9449 118.13 86.5437 117.385 87.647C116.761 88.5708 116.427 89.9137 116.427 91.65C116.427 92.3856 116.513 93.01 116.598 93.5403C116.804 94.3444 117.095 94.9859 117.514 95.5162C117.847 95.9439 118.343 96.286 118.925 96.534C119.669 96.8762 120.465 97.0301 121.252 97.0301C122.253 97.0301 123.211 96.8762 124.083 96.5683C125.041 96.2261 125.999 95.6702 127.043 94.8918L127.034 94.9089ZM137.812 85.962C136.401 85.962 135.314 86.5864 134.613 87.8523C134.074 88.8445 133.783 90.119 133.783 91.6671C133.783 93.5575 134.159 94.9773 134.827 95.9353C135.537 96.8676 136.529 97.3295 137.82 97.3295C139.112 97.3295 140.113 96.8676 140.78 95.9353C141.439 94.9773 141.772 93.5575 141.772 91.6671C141.772 90.0848 141.524 88.8189 141.02 87.8523C140.318 86.5864 139.275 85.962 137.812 85.962ZM137.812 85.3804C140.062 85.3804 141.935 85.9278 143.474 87.0483C145.014 88.2287 145.81 89.7768 145.81 91.6671C145.81 93.5575 145.057 95.003 143.56 96.1834C142.063 97.3637 140.147 97.9539 137.812 97.9539C135.477 97.9539 133.569 97.3637 132.072 96.1834C130.575 95.003 129.823 93.4976 129.823 91.6671C129.823 89.8367 130.61 88.2287 132.149 87.0483C133.689 85.9364 135.562 85.3804 137.812 85.3804ZM147.093 97.569V97.1413C147.674 97.0473 148.051 97.0216 148.171 96.9788C148.342 96.9532 148.419 96.9189 148.504 96.8933C148.752 96.7735 148.923 96.5854 149.009 96.3715C149.086 96.1491 149.137 95.8669 149.137 95.4991V87.6984C149.137 87.0141 148.975 86.5864 148.641 86.364C148.393 86.2357 147.888 86.116 147.101 86.0561V85.6541H154.971C156.587 85.6541 157.93 85.8166 158.923 86.1587C160.582 86.6891 161.42 87.5786 161.42 88.9129C161.42 89.3406 161.301 89.7768 161.044 90.1446C160.676 90.7348 160.052 91.1967 159.213 91.5389C158.504 91.8468 157.717 92.0349 156.921 92.0948C156.083 92.1804 154.842 92.2146 153.14 92.2146V95.4991C153.14 96.1748 153.26 96.611 153.551 96.7992C153.756 96.9617 154.338 97.0473 155.304 97.1413V97.569H147.101H147.093ZM153.123 86.8943V91.6073L153.371 91.6415C154.74 91.6415 155.741 91.4533 156.322 91.0855C156.904 90.6835 157.203 89.9736 157.203 88.9472C157.203 87.9208 156.955 87.245 156.493 86.8772C156.074 86.4752 155.339 86.2528 154.295 86.2528C153.884 86.2528 153.585 86.3127 153.423 86.4154C153.26 86.5009 153.132 86.6634 153.132 86.9114L153.123 86.8943ZM180.632 97.1413V97.569H172.309V97.1413C173.096 97.0473 173.635 96.9788 173.849 96.8933C174.268 96.7051 174.516 96.3715 174.516 95.9011V91.8211H168.563V95.9011C168.563 96.3715 168.768 96.6795 169.187 96.8676C169.435 96.9617 169.974 97.0473 170.77 97.1499V97.5776H162.532V97.1499C163.285 97.09 163.773 96.9874 164.029 96.8676C164.406 96.688 164.568 96.3715 164.568 95.9011V87.3562C164.568 86.8345 164.363 86.4838 163.944 86.3042C163.696 86.1759 163.234 86.1245 162.532 86.0561V85.6541H170.77V86.0561C170.017 86.116 169.521 86.1759 169.273 86.2785C168.811 86.4581 168.563 86.8345 168.563 87.322V90.9829H174.516V87.322C174.516 86.8345 174.268 86.4838 173.806 86.3042C173.558 86.1759 173.053 86.1245 172.309 86.0561V85.6541H180.632V86.0561C179.879 86.116 179.383 86.1759 179.178 86.2785C178.716 86.4581 178.468 86.8345 178.468 87.3562V95.9011C178.468 96.3715 178.673 96.7051 179.05 96.8676C179.255 96.9617 179.802 97.0473 180.632 97.1499V97.1413ZM198.065 97.1756V97.5776H190.161V97.1756C190.914 97.1756 191.401 97.1157 191.692 97.0216C191.94 96.9617 192.111 96.7735 192.111 96.4913C192.111 96.2432 191.94 95.8669 191.692 95.3195C191.572 95.0971 191.316 94.6951 190.982 94.0878H185.405C185.114 94.7036 184.866 95.1997 184.661 95.6017C184.447 96.0294 184.327 96.3117 184.327 96.3972C184.327 96.6538 184.49 96.8334 184.789 96.9617C185.08 97.1157 185.619 97.1756 186.372 97.1756V97.5776H181.419V97.1499C182.001 97.0558 182.505 96.8676 182.83 96.5597C183.036 96.3459 183.369 95.8498 183.789 95.08L189.246 85.3889H189.947L195.396 94.7036C195.978 95.6958 196.397 96.3117 196.688 96.5939C197.064 96.9959 197.483 97.1841 197.979 97.1841H198.056L198.065 97.1756ZM185.833 93.4206H190.572L188.125 89.0926L185.833 93.4206ZM205.891 86.9884V91.479C207.594 91.479 208.723 91.325 209.347 90.9829C210.057 90.6065 210.391 89.8966 210.391 88.7846C210.391 87.9122 210.143 87.2707 209.647 86.8601C209.142 86.4581 208.398 86.2357 207.397 86.2357C206.773 86.2357 206.405 86.2956 206.234 86.3982C206.105 86.4838 205.986 86.6805 205.9 86.9884H205.891ZM216.669 97.1413V97.569H211.631L206.55 92.0264H205.883V95.4905C205.883 96.1406 206.054 96.5768 206.345 96.7907C206.593 96.919 207.14 97.0387 208.047 97.1328V97.5605H199.767V97.1328C200.682 97.0387 201.221 96.9532 201.435 96.7907C201.76 96.611 201.888 96.1662 201.888 95.4905V87.6898C201.888 87.0055 201.726 86.5522 201.349 86.2956C201.093 86.1416 200.554 86.0476 199.767 86.0476V85.6455H207.628C209.878 85.6455 211.623 85.9021 212.794 86.4496C213.958 86.9799 214.548 87.7582 214.548 88.7419C214.548 89.6742 214.086 90.4183 213.171 90.9401C212.632 91.248 211.845 91.4961 210.759 91.7441L215.626 96.7907C215.797 96.9532 215.959 97.0387 216.088 97.0729C216.259 97.1071 216.421 97.1328 216.669 97.1328V97.1413Z" fill="white"/>
<path fill-rule="evenodd" clip-rule="evenodd" d="M101.852 104.35H103.143L99.6448 109.739H98.5243L97.7373 104.35H99.0289L99.4481 108.405L101.86 104.35H101.852ZM103.597 105.744H104.846L103.845 109.739H102.639L103.597 105.744ZM103.306 104.222H104.435L104.769 105.334H104.144L103.306 104.222ZM112.176 107.224H111.013C111.013 106.916 110.927 106.728 110.807 106.643C110.688 106.583 110.517 106.548 110.269 106.548H110.226C109.807 106.548 109.524 106.762 109.268 107.139C109.182 107.318 109.097 107.541 109.063 107.729C108.977 107.943 108.943 108.105 108.943 108.251V108.336C108.943 108.618 109.028 108.807 109.148 108.892C109.276 108.986 109.439 109.02 109.687 109.02H109.73C109.892 109.02 110.063 108.986 110.226 108.892C110.397 108.772 110.602 108.584 110.722 108.336H111.894C111.851 108.559 111.68 108.807 111.389 109.08C111.227 109.268 111.056 109.431 110.85 109.551C110.645 109.679 110.431 109.765 110.226 109.833C110.021 109.893 109.764 109.927 109.388 109.927H109.268C108.686 109.927 108.267 109.739 108.019 109.405C107.771 109.157 107.685 108.841 107.685 108.473V108.345C107.685 108.131 107.728 107.883 107.814 107.575C107.933 107.293 108.062 107.019 108.224 106.805C108.601 106.309 108.977 106.001 109.388 105.813C109.644 105.727 110.012 105.65 110.508 105.65H110.594C110.799 105.65 111.004 105.685 111.218 105.719C111.423 105.744 111.552 105.804 111.671 105.873C111.834 105.992 111.962 106.146 112.091 106.394C112.133 106.583 112.176 106.771 112.176 106.985V107.233V107.224ZM117.668 105.744L116.675 109.739H115.427L115.546 109.243C115.341 109.457 115.127 109.645 114.879 109.739C114.708 109.833 114.46 109.867 114.212 109.927C113.801 109.927 113.459 109.867 113.254 109.765C112.878 109.611 112.715 109.303 112.715 108.892V108.712C112.715 108.653 112.758 108.593 112.758 108.499L113.459 105.744H114.665L114.041 108.225C113.998 108.345 113.998 108.473 113.955 108.601C113.955 108.721 114.041 108.815 114.118 108.875C114.203 108.969 114.366 109.003 114.614 109.003H114.699C115.033 108.969 115.324 108.875 115.486 108.755C115.615 108.627 115.692 108.507 115.786 108.328L116.41 105.753H117.659L117.668 105.744ZM119.832 109.927C119.541 109.927 119.25 109.867 118.959 109.799C118.703 109.705 118.497 109.585 118.335 109.397C118.087 109.174 117.958 108.832 117.958 108.405C117.958 108.225 118.001 108.003 118.044 107.78C118.121 107.447 118.249 107.13 118.455 106.856C118.626 106.574 118.874 106.326 119.156 106.138C119.37 105.984 119.652 105.864 119.986 105.77C120.277 105.685 120.567 105.642 120.901 105.642C121.192 105.642 121.483 105.676 121.731 105.77C122.022 105.864 122.235 105.984 122.398 106.138C122.526 106.266 122.603 106.386 122.646 106.574C122.723 106.754 122.774 106.976 122.774 107.164C122.774 107.25 122.731 107.318 122.731 107.378C122.731 107.438 122.731 107.558 122.697 107.78C122.612 108.122 122.441 108.43 122.278 108.712C122.116 108.995 121.859 109.234 121.568 109.397C121.363 109.576 121.072 109.705 120.773 109.765C120.439 109.859 120.148 109.927 119.815 109.927H119.832ZM120.661 106.548C120.499 106.548 120.328 106.583 120.157 106.643C119.986 106.702 119.823 106.822 119.695 107.01C119.618 107.07 119.532 107.199 119.447 107.318C119.361 107.472 119.276 107.626 119.233 107.78V108.336C119.233 108.43 119.276 108.49 119.276 108.558C119.361 108.712 119.447 108.832 119.609 108.892C119.729 108.952 119.9 108.986 120.063 108.986C120.225 108.986 120.396 108.952 120.559 108.892C120.721 108.832 120.892 108.712 121.012 108.558C121.14 108.43 121.217 108.276 121.303 108.156C121.389 108.003 121.431 107.874 121.431 107.78L121.474 107.412C121.474 107.352 121.474 107.25 121.431 107.164V107.002C121.346 106.814 121.217 106.72 121.098 106.634C120.969 106.574 120.807 106.54 120.644 106.54L120.661 106.548ZM121.038 104.222H121.962L122.586 105.334H121.919L121.38 104.632L120.507 105.334H119.84L121.046 104.222H121.038ZM119.25 111.048L119.498 110.115H120.704L120.499 111.048H119.25ZM128.112 107.224H126.949C126.949 106.916 126.863 106.728 126.743 106.643C126.615 106.583 126.452 106.548 126.196 106.548H126.162C125.742 106.548 125.452 106.762 125.238 107.139C125.118 107.318 125.032 107.541 124.99 107.729C124.904 107.943 124.904 108.105 124.904 108.251V108.336C124.904 108.618 124.938 108.807 125.109 108.892C125.195 108.986 125.357 109.02 125.606 109.02H125.691C125.862 109.02 125.982 108.986 126.153 108.892C126.358 108.772 126.529 108.584 126.649 108.336H127.812C127.77 108.559 127.607 108.807 127.351 109.08C127.145 109.268 126.974 109.431 126.769 109.551C126.564 109.679 126.358 109.765 126.144 109.833C125.973 109.893 125.683 109.927 125.315 109.927H125.195C124.648 109.927 124.194 109.739 123.938 109.405C123.732 109.157 123.604 108.841 123.604 108.473V108.345C123.604 108.131 123.647 107.883 123.732 107.575C123.861 107.293 123.98 107.019 124.151 106.805C124.528 106.309 124.904 106.001 125.315 105.813C125.563 105.727 125.939 105.65 126.435 105.65H126.512C126.718 105.65 126.931 105.685 127.137 105.719C127.342 105.744 127.513 105.804 127.599 105.873C127.77 105.992 127.889 106.146 128.018 106.394C128.06 106.583 128.103 106.771 128.103 106.985V107.233L128.112 107.224ZM130.858 108.567H132.064C132.064 108.747 132.141 108.901 132.354 108.995C132.431 109.029 132.645 109.08 132.979 109.114L133.064 109.149C133.313 109.149 133.484 109.08 133.646 108.986C133.774 108.858 133.851 108.738 133.851 108.61C133.851 108.55 133.809 108.49 133.766 108.456C133.723 108.396 133.689 108.362 133.603 108.328L132.192 107.994C131.901 107.9 131.687 107.806 131.568 107.686C131.448 107.558 131.396 107.404 131.396 107.25L131.439 107.002C131.482 106.788 131.602 106.574 131.773 106.352C131.901 106.189 132.064 106.069 132.226 105.95C132.431 105.864 132.645 105.796 132.851 105.736C133.099 105.676 133.355 105.642 133.603 105.642H133.689C133.937 105.642 134.185 105.676 134.399 105.736C134.604 105.77 134.818 105.821 134.981 105.95C135.143 106.044 135.271 106.164 135.357 106.292C135.442 106.412 135.442 106.54 135.442 106.694V106.779C135.442 106.908 135.4 106.959 135.4 106.993H134.236L134.271 106.805C134.271 106.745 134.236 106.685 134.194 106.625C134.108 106.566 134.022 106.531 133.903 106.497C133.86 106.463 133.774 106.463 133.697 106.463C133.612 106.437 133.526 106.437 133.449 106.437C133.278 106.437 133.116 106.463 132.91 106.523C132.868 106.557 132.791 106.617 132.748 106.685C132.671 106.745 132.671 106.805 132.671 106.865C132.671 106.985 132.748 107.045 132.876 107.079L134.544 107.481C134.707 107.541 134.878 107.609 134.998 107.763C135.117 107.926 135.203 108.08 135.203 108.268L135.16 108.447C135.117 108.695 134.998 108.943 134.784 109.157C134.536 109.44 134.202 109.662 133.826 109.747C133.492 109.842 133.073 109.91 132.62 109.91C132.414 109.91 132.243 109.876 132.081 109.85C131.918 109.816 131.747 109.79 131.619 109.722C131.328 109.636 131.123 109.474 130.994 109.26C130.917 109.14 130.875 108.952 130.875 108.798V108.55L130.858 108.567ZM137.812 109.927C137.478 109.927 137.187 109.867 136.939 109.799C136.691 109.705 136.443 109.585 136.272 109.397C136.024 109.174 135.896 108.832 135.896 108.405C135.896 108.225 135.939 108.003 135.981 107.78C136.067 107.447 136.229 107.13 136.4 106.856C136.606 106.574 136.811 106.326 137.102 106.138C137.35 105.984 137.607 105.864 137.932 105.77C138.222 105.685 138.556 105.642 138.847 105.642C139.18 105.642 139.471 105.676 139.728 105.77C139.976 105.864 140.181 105.984 140.352 106.138C140.472 106.266 140.558 106.386 140.609 106.574C140.694 106.754 140.729 106.976 140.729 107.164V107.378C140.694 107.438 140.694 107.558 140.643 107.78C140.558 108.122 140.438 108.43 140.233 108.712C140.061 108.995 139.813 109.234 139.523 109.397C139.317 109.576 139.018 109.705 138.736 109.765C138.445 109.859 138.111 109.927 137.82 109.927H137.812ZM138.642 106.548C138.436 106.548 138.265 106.583 138.103 106.643C137.932 106.702 137.812 106.822 137.641 107.01C137.555 107.07 137.478 107.199 137.435 107.318C137.307 107.472 137.264 107.626 137.222 107.78L137.187 108.097V108.336C137.222 108.43 137.222 108.49 137.273 108.558C137.316 108.712 137.444 108.832 137.564 108.892C137.684 108.952 137.855 108.986 138.026 108.986C138.197 108.986 138.359 108.952 138.522 108.892C138.684 108.832 138.855 108.712 138.984 108.558C139.103 108.43 139.232 108.276 139.275 108.156C139.36 108.003 139.394 107.874 139.394 107.78L139.437 107.412V107.164C139.394 107.07 139.394 107.036 139.394 107.002C139.317 106.814 139.232 106.72 139.061 106.634C138.941 106.574 138.813 106.54 138.65 106.54L138.642 106.548ZM138.975 104.222H139.933L140.558 105.334H139.848L139.309 104.632L138.428 105.334H137.76L138.967 104.222H138.975ZM140.429 104.632L141.096 103.486H142.303L141.054 104.632H140.429ZM141.473 109.739L142.474 105.744H143.68L143.56 106.335C143.936 105.873 144.39 105.65 144.894 105.65C145.348 105.65 145.724 105.744 146.015 105.898C146.263 106.052 146.391 106.3 146.391 106.643C146.391 106.762 146.391 106.891 146.349 107.045L145.681 109.739H144.475L145.057 107.352L145.1 107.045C145.1 106.925 145.057 106.796 144.937 106.711C144.852 106.617 144.646 106.583 144.39 106.583C144.056 106.583 143.765 106.643 143.603 106.796C143.474 106.891 143.355 107.045 143.312 107.258L142.687 109.739H141.481H141.473ZM150.839 105.744H151.968L150.968 109.833C150.891 110.081 150.762 110.329 150.591 110.543C150.386 110.731 150.181 110.919 149.924 111.048C149.719 111.133 149.462 111.227 149.214 111.296C148.966 111.33 148.632 111.355 148.213 111.355C147.674 111.355 147.255 111.27 146.964 111.107C146.631 110.919 146.502 110.68 146.502 110.397L146.545 110.209H147.794V110.269C147.794 110.363 147.88 110.457 147.999 110.551C148.119 110.611 148.29 110.646 148.538 110.646C148.829 110.646 149.077 110.586 149.325 110.432C149.582 110.303 149.744 110.124 149.787 109.901L149.915 109.311C149.667 109.525 149.454 109.688 149.291 109.739C149.077 109.867 148.795 109.927 148.538 109.927C148.205 109.927 147.914 109.893 147.751 109.799C147.58 109.739 147.418 109.645 147.289 109.457C147.041 109.209 146.956 108.866 146.956 108.499C146.956 108.062 147.033 107.635 147.289 107.199C147.495 106.728 147.786 106.386 148.162 106.138C148.333 106.027 148.496 105.924 148.701 105.83C148.992 105.719 149.24 105.65 149.496 105.65H149.616C149.864 105.65 150.078 105.685 150.198 105.779C150.283 105.839 150.454 106.035 150.66 106.335L150.831 105.744H150.839ZM149.548 106.617C149.385 106.617 149.214 106.651 149.043 106.711C148.88 106.771 148.709 106.891 148.547 107.045C148.461 107.173 148.342 107.327 148.299 107.447C148.222 107.601 148.179 107.695 148.179 107.78C148.136 107.874 148.136 107.968 148.136 108.037C148.093 108.122 148.093 108.191 148.093 108.191C148.093 108.285 148.093 108.345 148.136 108.405C148.136 108.499 148.136 108.567 148.179 108.618C148.265 108.772 148.35 108.866 148.47 108.961C148.641 109.02 148.761 109.055 148.932 109.055C149.103 109.055 149.265 109.02 149.428 108.961C149.599 108.901 149.761 108.772 149.924 108.618C150.01 108.533 150.095 108.405 150.172 108.251C150.258 108.122 150.292 107.968 150.335 107.814C150.335 107.754 150.377 107.66 150.377 107.506C150.377 107.447 150.335 107.352 150.335 107.258C150.335 107.139 150.292 107.079 150.292 107.045C150.249 106.891 150.121 106.762 150.001 106.711C149.881 106.651 149.71 106.617 149.539 106.617H149.548ZM155.244 105.804H155.826L156.117 104.718H157.323L157.032 105.804H157.699L157.537 106.48H156.87L156.322 108.747L156.279 108.961C156.279 109.055 156.322 109.08 156.408 109.08H156.861L156.699 109.799C156.613 109.833 156.528 109.859 156.408 109.859C156.279 109.893 156.194 109.893 156.117 109.918C156.031 109.918 155.954 109.918 155.869 109.884C155.741 109.884 155.664 109.884 155.535 109.85C155.373 109.79 155.244 109.722 155.159 109.602C155.039 109.474 154.996 109.345 154.996 109.166V109.072L155.664 106.471H155.039L155.244 105.796V105.804ZM159.701 109.927C159.367 109.927 159.111 109.867 158.82 109.799C158.572 109.705 158.358 109.585 158.196 109.397C157.939 109.174 157.819 108.832 157.819 108.405C157.819 108.225 157.853 108.003 157.905 107.78C157.982 107.447 158.11 107.13 158.315 106.856C158.478 106.574 158.726 106.326 158.974 106.138C159.231 105.984 159.521 105.864 159.812 105.77C160.146 105.685 160.437 105.642 160.779 105.642C161.07 105.642 161.36 105.676 161.608 105.77C161.908 105.864 162.113 105.984 162.276 106.138C162.361 106.266 162.481 106.386 162.532 106.574C162.609 106.754 162.609 106.976 162.609 107.164V107.378C162.609 107.438 162.609 107.558 162.566 107.78C162.481 108.122 162.318 108.43 162.156 108.712C161.985 108.995 161.737 109.234 161.446 109.397C161.189 109.576 160.941 109.705 160.65 109.765C160.317 109.859 160.026 109.927 159.692 109.927H159.701ZM160.531 106.548C160.368 106.548 160.206 106.583 160.035 106.643C159.863 106.702 159.701 106.822 159.573 107.01C159.487 107.07 159.402 107.199 159.316 107.318C159.239 107.472 159.154 107.626 159.111 107.78V108.336C159.111 108.43 159.154 108.49 159.154 108.558C159.239 108.712 159.316 108.832 159.487 108.892C159.607 108.952 159.778 108.986 159.949 108.986C160.12 108.986 160.283 108.952 160.445 108.892C160.616 108.832 160.736 108.712 160.907 108.558C161.027 108.43 161.121 108.276 161.198 108.156C161.249 108.003 161.292 107.874 161.326 107.78L161.369 107.412C161.369 107.352 161.369 107.25 161.326 107.164V107.002C161.249 106.814 161.121 106.72 160.993 106.634C160.864 106.574 160.702 106.54 160.531 106.54V106.548ZM160.907 104.222H161.831L162.455 105.334H161.788L161.249 104.632L160.377 105.334H159.71L160.907 104.222ZM162.318 104.632L162.994 103.486H164.234L162.943 104.632H162.318ZM163.944 105.804H164.525L164.816 104.718H166.022L165.731 105.804H166.441L166.236 106.48H165.569L165.03 108.747L164.987 108.961C164.987 109.055 165.03 109.08 165.107 109.08H165.603L165.398 109.799C165.312 109.833 165.227 109.859 165.107 109.859C164.987 109.893 164.902 109.893 164.816 109.918C164.731 109.918 164.654 109.918 164.568 109.884C164.491 109.884 164.363 109.884 164.234 109.85C164.072 109.79 163.944 109.722 163.858 109.602C163.73 109.474 163.696 109.345 163.696 109.166V109.072L164.363 106.471H163.781L163.952 105.796L163.944 105.804ZM172.891 105.402H171.728L171.941 104.692H173.062L173.182 104.35H174.388L174.302 104.692H174.764L174.593 105.402H174.14L173.062 109.773H171.813L171.941 109.345C171.728 109.525 171.522 109.688 171.266 109.773C171.026 109.867 170.812 109.936 170.607 109.936H170.479C170.06 109.936 169.769 109.842 169.563 109.688C169.358 109.525 169.187 109.311 169.11 109.003C169.067 108.875 169.067 108.755 169.025 108.627C168.982 108.473 168.982 108.379 168.982 108.293C168.982 108.233 168.982 108.165 169.025 108.114V107.866C169.067 107.677 169.144 107.464 169.23 107.241C169.358 107.027 169.487 106.814 169.649 106.591C169.94 106.215 170.273 105.967 170.65 105.821C170.906 105.736 171.197 105.659 171.531 105.659H171.616C171.95 105.659 172.198 105.727 172.403 105.839C172.532 105.967 172.66 106.087 172.703 106.275L172.908 105.411L172.891 105.402ZM171.608 106.548C171.437 106.548 171.266 106.583 171.146 106.677C170.975 106.737 170.812 106.831 170.684 107.01C170.607 107.104 170.522 107.199 170.479 107.318C170.393 107.472 170.308 107.626 170.273 107.78C170.273 107.849 170.273 107.908 170.231 108.003V108.37C170.273 108.43 170.273 108.499 170.273 108.558C170.359 108.712 170.436 108.832 170.564 108.892C170.684 108.986 170.812 109.02 170.975 109.02C171.137 109.02 171.317 108.986 171.437 108.926C171.608 108.832 171.77 108.712 171.899 108.558C171.976 108.464 172.07 108.37 172.147 108.216C172.224 108.097 172.266 107.934 172.309 107.78L172.352 107.412V107.164C172.309 107.07 172.309 107.036 172.309 107.002C172.266 106.848 172.147 106.72 172.018 106.668C171.899 106.574 171.77 106.54 171.608 106.54V106.548ZM178.631 108.037H175.508C175.508 108.097 175.466 108.156 175.466 108.251C175.423 108.336 175.423 108.405 175.423 108.439C175.423 108.499 175.466 108.593 175.5 108.721C175.585 108.841 175.671 108.901 175.791 108.969C175.953 109.029 176.081 109.063 176.253 109.063H176.458C176.629 109.029 176.791 109.003 176.92 108.901C177.082 108.815 177.211 108.721 177.253 108.593H178.459C178.246 108.961 177.921 109.268 177.373 109.551C176.877 109.799 176.415 109.927 175.962 109.927C175.756 109.927 175.551 109.893 175.38 109.833C175.166 109.773 175.004 109.705 174.841 109.619C174.627 109.465 174.465 109.311 174.379 109.157C174.26 108.995 174.208 108.815 174.208 108.653V108.473C174.208 108.413 174.208 108.293 174.251 108.165C174.294 107.977 174.337 107.857 174.337 107.763C174.379 107.609 174.456 107.455 174.499 107.293C174.79 106.617 175.252 106.146 175.825 105.898C176.158 105.744 176.578 105.65 177.031 105.65C177.484 105.65 177.826 105.744 178.117 105.898C178.331 106.035 178.536 106.206 178.613 106.463C178.699 106.548 178.699 106.677 178.742 106.796C178.784 106.925 178.784 107.045 178.784 107.173C178.784 107.301 178.784 107.421 178.742 107.541C178.742 107.703 178.699 107.857 178.613 108.045L178.631 108.037ZM175.688 107.352H177.553L177.595 107.104C177.595 106.942 177.553 106.822 177.467 106.728C177.347 106.574 177.176 106.514 176.928 106.514H176.843C176.552 106.514 176.261 106.608 176.056 106.796C175.851 106.95 175.722 107.139 175.688 107.352ZM175.175 111.013L175.431 110.081H176.637L176.424 111.013H175.175ZM180.418 105.744H181.624L181.462 106.335C181.667 106.172 181.872 106.027 182.043 105.873C182.292 105.719 182.591 105.65 182.873 105.65H182.959C183.207 105.65 183.463 105.719 183.669 105.83C183.831 105.89 183.96 106.027 184.079 106.138C184.285 106.386 184.413 106.728 184.413 107.199C184.413 107.626 184.327 108.037 184.122 108.464C183.917 108.866 183.669 109.209 183.292 109.457C183.087 109.611 182.83 109.739 182.625 109.799C182.42 109.859 182.172 109.927 181.838 109.927C181.624 109.927 181.419 109.893 181.257 109.799C181.128 109.739 180.923 109.585 180.718 109.303L180.213 111.347H179.007L180.418 105.744ZM182.42 106.583C182.249 106.583 182.129 106.617 181.958 106.677C181.795 106.737 181.624 106.856 181.496 107.045C181.419 107.104 181.376 107.224 181.291 107.352C181.205 107.506 181.12 107.66 181.085 107.814C181.085 107.874 181.085 107.943 181.043 108.037V108.191C181.043 108.251 181.043 108.319 181.085 108.405C181.085 108.464 181.085 108.533 181.12 108.593C181.162 108.747 181.248 108.832 181.376 108.926C181.496 108.986 181.667 109.02 181.795 109.02C181.958 109.02 182.129 108.986 182.249 108.926C182.42 108.866 182.591 108.747 182.753 108.593C182.83 108.464 182.916 108.37 182.959 108.285C183.044 108.105 183.087 107.943 183.13 107.814C183.13 107.754 183.173 107.695 183.173 107.635V107.455C183.173 107.267 183.173 107.147 183.13 107.053C183.087 106.873 182.959 106.771 182.839 106.685C182.719 106.625 182.599 106.591 182.428 106.591L182.42 106.583ZM187.287 109.739L188.664 104.35H189.87L189.374 106.275C189.579 106.087 189.785 105.933 189.998 105.813C190.247 105.727 190.503 105.65 190.708 105.65C191.213 105.65 191.538 105.744 191.829 105.898C192.077 106.052 192.24 106.3 192.24 106.643C192.24 106.762 192.205 106.891 192.163 107.045L191.495 109.739H190.289L190.871 107.352L190.914 107.045C190.914 106.925 190.871 106.796 190.785 106.711C190.657 106.617 190.452 106.583 190.204 106.583C189.87 106.583 189.622 106.643 189.417 106.796C189.289 106.891 189.203 107.045 189.126 107.258L188.502 109.739H187.296H187.287ZM197.449 106.394C197.492 106.523 197.569 106.651 197.569 106.796C197.611 106.95 197.654 107.104 197.654 107.258L197.569 107.789C197.449 108.131 197.321 108.439 197.149 108.721C196.944 109.003 196.73 109.243 196.439 109.405C196.191 109.585 195.943 109.713 195.61 109.773C195.319 109.867 195.028 109.936 194.695 109.936C194.361 109.936 194.07 109.876 193.813 109.807C193.565 109.713 193.36 109.593 193.189 109.405C192.941 109.183 192.813 108.841 192.813 108.413C192.813 108.233 192.813 108.011 192.898 107.789C192.984 107.455 193.104 107.139 193.275 106.865C193.48 106.583 193.694 106.335 193.985 106.146C194.233 105.992 194.523 105.873 194.823 105.779C195.156 105.693 195.447 105.65 195.738 105.65C196.072 105.65 196.363 105.685 196.611 105.744C196.816 105.83 197.03 105.924 197.192 106.078C197.321 106.078 197.44 106.027 197.569 105.898C197.697 105.813 197.774 105.719 197.774 105.616H197.321L197.526 105.086H198.441L198.279 105.616C198.236 105.719 198.15 105.83 197.988 105.992C197.825 106.146 197.611 106.275 197.449 106.394ZM195.533 106.548C195.362 106.548 195.191 106.583 195.028 106.643C194.866 106.702 194.695 106.822 194.566 107.01C194.481 107.07 194.404 107.199 194.318 107.318C194.233 107.472 194.156 107.626 194.113 107.78L194.07 108.097C194.07 108.182 194.07 108.251 194.113 108.336C194.113 108.43 194.156 108.49 194.156 108.558C194.19 108.712 194.318 108.832 194.446 108.892C194.609 108.952 194.737 108.986 194.9 108.986C195.071 108.986 195.233 108.952 195.404 108.892C195.576 108.832 195.738 108.712 195.909 108.558C196.029 108.43 196.114 108.276 196.2 108.156C196.234 108.003 196.286 107.874 196.32 107.78L196.363 107.412C196.363 107.352 196.32 107.25 196.32 107.164C196.32 107.07 196.32 107.036 196.277 107.002C196.234 106.814 196.106 106.72 195.986 106.634C195.858 106.574 195.695 106.54 195.533 106.54V106.548ZM198.031 109.739L199.031 105.744H200.237L200.109 106.335C200.485 105.873 200.947 105.65 201.443 105.65C201.897 105.65 202.282 105.744 202.564 105.898C202.812 106.052 202.94 106.3 202.94 106.643C202.94 106.762 202.94 106.891 202.898 107.045L202.23 109.739H201.024L201.606 107.352L201.649 107.045C201.649 106.925 201.606 106.796 201.478 106.711C201.392 106.617 201.187 106.583 200.939 106.583C200.605 106.583 200.314 106.643 200.143 106.796C200.015 106.891 199.887 107.045 199.852 107.258L199.228 109.739H198.022H198.031Z" fill="white"/>
<path fill-rule="evenodd" clip-rule="evenodd" d="M122.783 68.3756C119.113 64.7318 108.797 56.5462 110.337 53.5183C113.254 50.9522 124.322 54.8783 128.189 54.8526C122.612 51.1062 113.459 48.352 105.547 50.1739C104.007 56.991 115.247 67.5117 122.783 68.3756ZM177.886 68.3756C181.59 64.7318 191.872 56.5462 190.375 53.5183C187.415 50.9522 176.346 54.8783 172.514 54.8526C178.091 51.1062 187.21 48.352 195.113 50.1739C196.662 56.991 185.413 67.5117 177.886 68.3756Z" fill="white"/>
</svg>
