<svg width="300" height="173" viewBox="0 0 300 173" fill="none" xmlns="http://www.w3.org/2000/svg">
<rect width="300" height="173" rx="16" fill="white"/>
<path fill-rule="evenodd" clip-rule="evenodd" d="M85.4573 59.9584C83.0551 62.8298 79.211 65.0943 75.3668 64.7707C74.8861 60.8884 76.7678 56.7639 78.9706 54.2167C81.3728 51.2645 85.5775 49.1615 88.9814 49C89.3818 53.0438 87.8202 57.0068 85.4573 59.9584ZM88.941 65.5391C85.5547 65.3423 82.4646 66.5676 79.9684 67.5573C78.3624 68.1944 77.0018 68.7337 75.967 68.7337C74.8058 68.7337 73.3894 68.1654 71.7994 67.5272C69.7155 66.6916 67.3333 65.736 64.8348 65.7815C59.109 65.8628 53.783 69.1381 50.8597 74.3542C44.8531 84.7876 49.2981 100.235 55.1042 108.727C57.9478 112.932 61.3512 117.542 65.836 117.38C67.8094 117.305 69.2286 116.697 70.6974 116.067C72.3882 115.343 74.1452 114.59 76.8879 114.59C79.5361 114.59 81.2162 115.323 82.8285 116.027C84.3616 116.696 85.8343 117.339 88.0201 117.299C92.6656 117.219 95.5883 113.094 98.4319 108.888C101.5 104.374 102.848 99.9695 103.053 99.3011L103.077 99.2238C103.077 99.2238 103.034 99.201 102.967 99.1703C101.941 98.6959 94.1019 95.0719 94.0267 85.3536C93.9516 77.1966 100.245 73.0635 101.236 72.4128C101.296 72.373 101.336 72.3463 101.355 72.3326C97.3504 66.348 91.1034 65.7007 88.941 65.5391ZM121.096 116.854V53.8123H144.522C156.615 53.8123 165.064 62.2229 165.064 74.5163C165.064 86.8092 156.455 95.3012 144.202 95.3012H130.787V116.854H121.096ZM130.787 62.0613H141.959C150.368 62.0613 155.173 66.5903 155.173 74.5567C155.173 82.5231 150.368 87.0925 141.919 87.0925H130.787V62.0613ZM197.059 109.293C194.496 114.226 188.85 117.34 182.764 117.34C173.753 117.34 167.467 111.921 167.467 103.753C167.467 95.6652 173.554 91.0151 184.806 90.3274L196.899 89.5993V86.122C196.899 80.9861 193.575 78.196 187.649 78.196C182.764 78.196 179.2 80.7438 178.479 84.6255H169.749C170.029 76.4572 177.638 70.5129 187.929 70.5129C199.021 70.5129 206.229 76.3764 206.229 85.4747V116.854H197.259V109.293H197.059ZM185.366 109.859C180.201 109.859 176.917 107.352 176.917 103.51C176.917 99.5474 180.081 97.242 186.127 96.8785L196.899 96.1908V99.7494C196.899 105.653 191.933 109.859 185.366 109.859ZM235.981 119.321C232.097 130.361 227.652 134 218.202 134C217.481 134 215.079 133.919 214.518 133.758V126.196C215.119 126.277 216.6 126.357 217.361 126.357C221.646 126.357 224.048 124.538 225.53 119.807L226.411 117.016L209.993 71.1193H220.124L231.536 108.363H231.737L243.149 71.1193H253L235.981 119.321Z" fill="black"/>
</svg>
