<svg width="51" height="51" viewBox="0 0 51 51" fill="none" xmlns="http://www.w3.org/2000/svg">
<path d="M30.3032 9.13759C31.1178 9.89602 31.2864 11.9887 32.0308 12.5084C32.7751 13.028 35.3173 12.3398 36.2723 13.5196C37.2274 14.6994 35.6543 16.8342 36.0617 18.1404C36.469 19.4466 38.4212 19.6432 38.7864 20.9915C39.3622 23.2106 36.3145 23.7584 36.0476 24.9382C35.7807 26.1179 37.4521 28.3089 36.2021 29.5589C35.1909 30.5702 32.6487 29.896 31.9605 30.4719C31.2723 31.0477 31.0897 32.7472 30.6543 33.4213C28.997 35.9213 26.9886 32.5646 25.4718 32.5646C23.9549 32.5646 23.1263 34.3342 21.8903 34.3342C19.8397 34.3342 20.0504 31.3427 19.0532 30.5421C18.0982 29.7837 15.8088 30.7528 14.7414 29.3904C13.6178 27.9578 15.3594 26.1601 14.9661 24.8679C14.5729 23.5758 12.115 23.2949 12.1712 21.455C12.2133 19.7134 14.6712 19.0955 14.9661 18.1545C15.4015 16.75 13.3369 14.6011 15.0645 13.3089C16.2723 12.4101 18.056 13.1404 18.997 12.5224C19.9381 11.9044 19.7976 8.56175 21.9886 8.68816C23.1403 8.74434 24.5448 10.4016 25.4718 10.4438C26.7498 10.514 28.6038 7.56456 30.3032 9.13759ZM24.4184 13.8567C18.5055 14.4887 15.7386 21.8202 19.4465 26.3427C24.3903 32.3679 34.1515 28.2106 33.1543 20.514C32.5785 16.0618 28.8285 13.3932 24.4184 13.8567Z" fill="white"/>
<path d="M29.1799 35.486V41.7501C29.1237 42.2136 28.7867 42.4242 28.3372 42.2697C27.6209 42.0029 26.3147 40.5282 25.5282 40.1209C25.2895 40.0787 23.1265 42.0872 22.649 42.2697C22.1715 42.4523 21.8625 42.2136 21.8063 41.7501V35.486C23.2389 35.5563 24.2923 34.4748 25.458 33.8287C26.6799 34.3905 27.7192 35.5422 29.1799 35.486Z" fill="white"/>
<path d="M36.6376 37.9016V40.6825C36.6376 41.1179 36.0196 41.4831 35.6264 41.1601L29.9101 35.4297C30.6826 35.1629 31.2725 34.587 31.6938 33.8988C31.9326 33.5056 32.1292 33.0842 32.2837 32.6488C32.4382 32.2134 32.4382 32.2134 32.5225 31.9887C32.5786 31.8202 32.5786 31.6095 32.7191 31.469C32.9298 31.2584 33.2809 31.1741 33.5618 31.1881C34.0393 31.2162 34.3343 31.5393 34.6573 31.8623C34.9803 32.1853 35.4859 32.6769 35.9073 33.0842C36.7359 33.8988 37.5786 34.7134 38.4073 35.528C38.8708 35.9775 39.3343 36.4409 39.7977 36.8904C40.0225 37.087 39.882 37.9016 39.6292 37.9016H36.6376Z" fill="white"/>
<path d="M11.3566 37.9017C11.0616 37.8174 10.9914 37.1292 11.188 36.8905L16.5954 31.4831C16.7498 31.427 16.9886 31.3567 17.2836 31.3427C17.3678 31.3427 17.8594 31.3146 18.1824 31.4831C18.7161 31.764 18.6178 32.5646 18.8706 33.1124C19.3622 34.1657 19.924 35.0225 21.0616 35.4438L15.3454 41.1742C14.9661 41.4972 14.3341 41.132 14.3341 40.6966V37.9157H11.3425L11.3566 37.9017Z" fill="white"/>
<path d="M24.6292 15.0225C33.6602 13.9972 34.6292 27.5927 25.8652 28.0281C17.3399 28.4635 16.6658 15.9354 24.6292 15.0225ZM28.8287 18.5899L24.3764 22.9719C23.8849 23.0562 21.7781 19.4045 21.3287 21.6095C21.75 22.059 23.8006 24.3764 24.1798 24.4466C24.559 24.5169 24.4467 24.4607 24.5731 24.4185L29.4888 19.5449C29.868 19.0112 29.5028 18.3652 28.8287 18.5618V18.5899Z" fill="white"/>
<path d="M25.5 50.5C39.3071 50.5 50.5 39.3071 50.5 25.5C50.5 11.6929 39.3071 0.5 25.5 0.5C11.6929 0.5 0.5 11.6929 0.5 25.5C0.5 39.3071 11.6929 50.5 25.5 50.5Z" stroke="white" stroke-miterlimit="10"/>
</svg>
