<svg width="51" height="51" viewBox="0 0 51 51" fill="none" xmlns="http://www.w3.org/2000/svg">
<path d="M24.6433 11.9045C28.4073 11.455 32.4944 13.927 34.0675 17.3399C34.545 18.3792 35.5 21.8904 34.7416 22.8034C33.1405 23.7022 31.6236 24.8258 29.9242 25.5421C28.2248 26.2584 28.5478 26.132 28.3512 26.1601C27.9439 26.1882 26.9748 25.7107 26.3427 25.7247C25.3175 25.7528 24.7557 26.1601 24.8259 27.2275C24.8961 28.2949 27.0029 28.0702 27.9298 27.8034L33.6882 25.2331C33.8287 25.0365 34.0815 25.2331 34.1096 25.3455C34.1377 25.4579 33.0984 27.059 32.9158 27.2977C29.0675 32.1432 21.3287 32.0309 17.8034 26.8904C13.618 20.7949 17.354 12.8174 24.6433 11.9326V11.9045Z" fill="white"/>
<path d="M27.5366 41.5674C27.3681 40.4719 26.8906 39.0393 27.0732 37.9438C27.3119 36.455 29.0114 35.5562 29.84 34.4185L29.6153 31.6938C31.1041 31.1741 32.5366 30.5281 33.2529 29.0393C36.1743 29.9101 38.5198 32.2135 39.3765 35.1629C39.826 36.7359 39.7838 38.9269 39.5872 40.5702C39.4889 41.3708 39.4187 41.6938 38.59 41.7781C36.0057 42.0309 30.9917 41.9747 28.3653 41.7781C28.0844 41.75 27.7895 41.75 27.5366 41.5814V41.5674Z" fill="white"/>
<path d="M12.2978 41.5534C11.441 36.7781 12.5646 31.0197 17.5085 29.0253C18.5337 30.5843 20.0506 31.0477 21.6096 31.8343C21.8764 32.5786 21.4691 33.8427 21.7641 34.5028C22.059 35.1629 23.4635 36.0758 23.8849 36.6236C24.3062 37.1713 24.6012 37.7893 24.6433 37.9298C24.7837 38.4916 24.5169 39.2079 24.3905 39.7416C24.3062 40.0786 24.2219 40.4298 24.1798 40.7668C24.1377 41.1039 24.2219 41.4972 23.8989 41.6376C23.5197 41.8062 23.0281 41.764 22.6208 41.7921C22.2135 41.8202 21.8764 41.8343 21.5113 41.8483C20.6686 41.8764 19.8399 41.8904 18.9972 41.9045C17.3259 41.9045 15.6686 41.8764 13.9972 41.7921C12.3259 41.7079 13.4073 41.764 13.1264 41.7359C12.8455 41.7079 12.5506 41.7079 12.2978 41.5393V41.5534Z" fill="white"/>
<path d="M38.0843 19.6855C38.2388 19.9242 38.8006 20.3456 39.0393 20.6967C40.191 22.4242 39.6573 24.0394 38.1966 25.3315C37.9298 25.5703 36.4831 26.5534 36.2303 26.5113C35.7528 26.413 36.1461 25.3737 36.1601 25.0225C36.1882 24.2501 36.0899 23.4214 36.1601 22.663C36.2163 21.8484 36.6657 20.7107 36.5955 19.868C36.4972 18.6883 34.6011 15.472 33.8006 14.4888C28.9691 8.61804 19.6573 9.51691 16.0758 16.2444C14.5169 19.1658 14.6854 21.6237 14.7837 24.868C14.882 28.1124 15.1629 26.1742 14.7978 26.4411C11.9888 26.1742 10.5843 23.9411 11.6376 21.2304C12.691 18.5197 12.5225 19.9242 12.8174 19.2641C13.7444 17.2276 14.0393 15.5422 15.5 13.618C21.0899 6.25849 34.1517 8.1686 37.368 17.0169C40.5843 25.8652 37.8736 19.3765 38.0843 19.6855Z" fill="white"/>
<path d="M22.0029 31.8483C23.6461 32.073 25.2894 32.2415 26.9467 32.1573C27.4523 32.1292 29.0534 31.6236 29.2079 32.1011C29.4186 32.7612 29.2079 33.4494 29.5169 34.1095C29.5591 34.2359 27.7894 35.6123 27.5787 35.7809L25.8512 33.7303C25.7248 33.7303 24.4327 35.5561 24.2079 35.6966C24.0394 35.7949 23.8568 35.823 23.6742 35.7528C23.5619 35.7106 22.0731 34.0533 22.031 33.9269C21.8624 33.3651 22.0872 32.4522 22.0029 31.8342V31.8483Z" fill="white"/>
<path d="M26.8764 41.75L24.5871 41.5955C24.4888 41.4691 24.9522 38.6461 25.1348 38.5197C25.3174 38.3933 26.4972 38.3793 26.6517 38.604L26.8764 41.7641V41.75Z" fill="white"/>
<path d="M24.8961 35.6826C25.0366 35.5001 25.6405 34.7978 25.8371 34.84L27.1714 36.4551C26.5674 37.2416 26.9045 38.4074 25.5422 38.1405C24.9663 38.0282 24.7276 36.8765 24.3905 36.4551C24.3624 36.2725 24.7697 35.8652 24.9101 35.6826H24.8961Z" fill="white"/>
<path d="M25.5 50.5C39.3071 50.5 50.5 39.3071 50.5 25.5C50.5 11.6929 39.3071 0.5 25.5 0.5C11.6929 0.5 0.5 11.6929 0.5 25.5C0.5 39.3071 11.6929 50.5 25.5 50.5Z" stroke="white" stroke-miterlimit="10"/>
</svg>
