<svg width="51" height="51" viewBox="0 0 51 51" fill="none" xmlns="http://www.w3.org/2000/svg">
<path d="M25.5 50.5C39.3071 50.5 50.5 39.3071 50.5 25.5C50.5 11.6929 39.3071 0.5 25.5 0.5C11.6929 0.5 0.5 11.6929 0.5 25.5C0.5 39.3071 11.6929 50.5 25.5 50.5Z" stroke="white" stroke-miterlimit="10"/>
<path d="M25.3877 9.82582C25.5 9.79773 25.5843 9.85391 25.6826 9.882C26.2304 10.0786 26.8764 10.4578 27.4382 10.6966C31.104 12.2696 34.9101 13.4635 38.9129 13.8146C39.6012 14.0955 39.6292 14.6011 39.6152 15.2612C39.5309 19.1797 39.6152 23.4213 38.8849 27.2696C37.6629 33.646 32.4804 39.1798 26.3006 41.0618C25.3455 41.3567 24.854 41.0618 23.9691 40.7387C17.9719 38.5056 13.0843 33.3511 12.0871 26.9045C11.4972 23.0842 11.4691 18.8427 11.3708 14.9663C11.3568 14.2781 11.6658 13.8567 12.354 13.7444C13.0422 13.632 13.604 13.618 14.2079 13.5196C18.0983 12.9157 21.8483 11.4691 25.3877 9.79773V9.82582ZM25.0927 17.6629C19.1377 17.9859 15.6545 24.6011 18.8427 29.6854C21.9186 34.573 29.0534 34.573 32.1433 29.6854C35.2332 24.7977 31.3989 17.3118 25.0927 17.6629Z" fill="white"/>
<path d="M21.0621 26.5955C20.8795 26.3708 20.9216 26.132 21.0621 25.9073C21.2025 25.6826 21.8065 25.0787 21.9329 24.9944C22.1435 24.8539 22.3121 24.8961 22.5087 25.0365C23.0143 25.3877 23.5761 26.0478 24.0677 26.4691C24.5593 26.8905 24.4329 26.7781 24.4609 26.7781L28.6744 22.1573C28.7727 22.073 28.9834 21.9747 29.0958 21.9747C29.2924 21.9888 29.8542 22.5084 30.0227 22.677C30.2896 22.9438 30.5705 23.1826 30.2896 23.5758L24.9666 29.4466C24.7559 29.6573 24.461 29.6714 24.2222 29.4888L21.0621 26.6096V26.5955Z" fill="white"/>
</svg>
