<svg width="51" height="51" viewBox="0 0 51 51" fill="none" xmlns="http://www.w3.org/2000/svg">
<path d="M25.5 50.5C39.3071 50.5 50.5 39.3071 50.5 25.5C50.5 11.6929 39.3071 0.5 25.5 0.5C11.6929 0.5 0.5 11.6929 0.5 25.5C0.5 39.3071 11.6929 50.5 25.5 50.5Z" stroke="white" stroke-miterlimit="10"/>
<path d="M19.6011 12.8595C26.0336 12.8174 26.9606 22.1151 20.7668 23.4213C13.1825 25.0224 11.8342 12.9157 19.6011 12.8595ZM21.8342 16.0056C21.4129 16.1179 19.2499 18.7865 18.9269 18.8427C18.4353 18.6741 17.8595 17.6208 17.3679 17.5505C16.8763 17.4803 16.5112 18.0281 16.7359 18.5196C16.9606 19.0112 18.4353 20.2752 18.5477 20.3314C18.7584 20.4297 18.969 20.4157 19.1797 20.3033L22.4943 17.0168C22.8454 16.5533 22.3679 15.8511 21.8202 16.0056H21.8342Z" fill="white"/>
<path d="M42.8034 27.3118H34.5449V23.6882H40.4438L42.8034 27.3118Z" fill="white"/>
<path d="M31.0898 19.573V29.0253H7.87354V19.573C7.87354 18.4635 8.77241 17.5646 9.88196 17.5646H12.8735C12.8735 17.691 12.8735 17.8034 12.8735 17.9298C12.8735 21.7079 15.9353 24.7697 19.7134 24.7697C23.4915 24.7697 26.5533 21.7079 26.5533 17.9298C26.5533 14.1517 26.5533 17.691 26.5533 17.5646H29.1095C30.219 17.5646 31.1179 18.4635 31.1179 19.573H31.0898Z" fill="white"/>
<path d="M43.0703 28.5898C43.1124 28.5898 43.1405 28.6179 43.1405 28.66V33.7022C43.1405 34.6151 42.4664 35.3595 41.5956 35.4859C40.7248 35.6123 41.5113 35.4578 41.5113 35.4016C41.5113 35.2893 41.5113 35.1769 41.5113 35.0645C41.5113 32.6348 39.531 30.6544 37.1012 30.6544C34.6714 30.6544 32.6911 32.6348 32.6911 35.0645C32.6911 37.4943 32.6911 35.3033 32.7051 35.4297C32.7192 35.5561 32.677 35.514 32.6349 35.514H32.1855C32.1433 35.514 32.1152 35.4859 32.1152 35.4437V19.7134C32.1152 19.6713 32.1433 19.6432 32.1855 19.6432H37.3961C38.8147 19.6432 39.9664 20.7949 39.9664 22.2134C39.9664 22.2556 39.9383 22.2836 39.8961 22.2836H34.7838C33.8849 22.2836 33.1405 23.014 33.1405 23.9269V26.9747C33.1405 27.8735 33.8709 28.6179 34.7838 28.6179H43.0703V28.5898Z" fill="white"/>
<path d="M31.0898 30.3456V35.0085C31.0898 35.4439 30.7387 35.781 30.3174 35.781H18.8426C18.8707 35.5703 18.8988 35.3456 18.8988 35.1209C18.8988 32.7332 16.9606 30.781 14.5589 30.781C12.1572 30.781 10.219 32.7192 10.219 35.1209C10.219 37.5225 10.2331 35.5703 10.2752 35.781H9.50275C8.60387 35.781 7.87354 35.0506 7.87354 34.1518V30.3456H31.0898Z" fill="white"/>
<path d="M14.5448 38.1404C16.2125 38.1404 17.5645 36.7885 17.5645 35.1207C17.5645 33.453 16.2125 32.1011 14.5448 32.1011C12.8771 32.1011 11.5251 33.453 11.5251 35.1207C11.5251 36.7885 12.8771 38.1404 14.5448 38.1404Z" fill="white"/>
<path d="M37.0448 38.1404C38.7125 38.1404 40.0645 36.7885 40.0645 35.1207C40.0645 33.453 38.7125 32.1011 37.0448 32.1011C35.3771 32.1011 34.0251 33.453 34.0251 35.1207C34.0251 36.7885 35.3771 38.1404 37.0448 38.1404Z" fill="white"/>
</svg>
