<svg width="300" height="173" viewBox="0 0 300 173" fill="none" xmlns="http://www.w3.org/2000/svg">
<rect width="300" height="173" rx="16" fill="white"/>
<path fill-rule="evenodd" clip-rule="evenodd" d="M104.063 86.9681C104.063 98.1839 113.021 106.88 124.549 106.88C127.807 106.88 130.599 106.25 134.04 104.657V95.8958C131.015 98.8737 128.333 100.075 124.901 100.075C117.277 100.075 111.865 94.6397 111.865 86.9121C111.865 79.5867 117.448 73.8077 124.549 73.8077C128.16 73.8077 130.893 75.0744 134.04 78.1005V69.3441C130.718 67.6871 127.986 67 124.728 67C113.258 67 104.063 75.8731 104.063 86.9681ZM84.6357 77.701C84.6357 79.7631 85.9689 80.8525 90.5123 82.5054C99.1234 85.6027 101.675 88.3459 101.675 94.4092C101.675 101.795 96.1562 106.938 88.2901 106.938C82.5289 106.938 78.3397 104.708 74.8521 99.6737L79.743 95.0434C81.4854 98.357 84.3942 100.133 88.0052 100.133C91.3835 100.133 93.8831 97.8426 93.8831 94.7513C93.8831 93.1489 93.1259 91.7734 91.6129 90.8021C90.8524 90.3419 89.344 89.658 86.3795 88.6288C79.2693 86.1138 76.8313 83.4221 76.8313 78.1653C76.8313 71.9206 82.0688 67.2324 88.9362 67.2324C93.1918 67.2324 97.0858 68.6626 100.341 71.4618L96.3795 76.5611C94.4077 74.3883 92.5424 73.4711 90.2754 73.4711C87.0125 73.4711 84.6357 75.2981 84.6357 77.701ZM64.4303 106.021H72.0011V67.863H64.4303V106.021ZM48.9561 96.5273C46.578 98.6399 43.4876 99.5612 38.5964 99.5612H36.5647V74.3272H38.5964C43.4876 74.3272 46.4565 75.1883 48.9561 77.4144C51.5741 79.7052 53.1486 83.2581 53.1486 86.9125C53.1486 90.5761 51.5741 94.2365 48.9561 96.5273ZM40.1124 67.863H29V106.019H40.0539C45.9317 106.019 50.1752 104.657 53.9013 101.615C58.3291 98.0135 60.9471 92.584 60.9471 86.9685C60.9471 75.7073 52.3898 67.863 40.1124 67.863ZM183.716 67.863L194.065 93.4934L204.55 67.863H212.756L195.989 107H191.915L175.445 67.863H183.716ZM216.179 106.02H237.648V99.5603H223.744V89.2603H237.137V82.797H223.744V74.3281H237.648V67.862H216.179V106.02ZM250.224 85.4295H252.435C257.271 85.4295 259.834 83.3642 259.834 79.5284C259.834 75.8152 257.271 73.8734 252.555 73.8734H250.224V85.4295ZM253.888 67.8616C262.618 67.8616 267.623 71.9835 267.623 79.1274C267.623 84.9698 264.483 88.8056 258.781 89.9451L271 106.02H261.69L251.212 90.6909H250.224V106.02H242.662V67.8616H253.888Z" fill="#1D1D1B"/>
<path fill-rule="evenodd" clip-rule="evenodd" d="M174.767 98.3125C180.867 88.541 178.081 75.5599 168.544 69.3116C159.006 63.0634 146.332 65.9157 140.231 75.6872C134.133 85.4558 136.92 98.4412 146.457 104.69C155.995 110.938 168.668 108.081 174.767 98.3125Z" fill="url(#paint0_linear_635_281)"/>
<defs>
<linearGradient id="paint0_linear_635_281" x1="185.81" y1="80.6233" x2="150.796" y2="58.7641" gradientUnits="userSpaceOnUse">
<stop stop-color="#F6A000"/>
<stop offset="0.623918" stop-color="#E47E02"/>
<stop offset="1" stop-color="#D36002"/>
</linearGradient>
</defs>
</svg>
