<svg width="22" height="22" viewBox="0 0 22 22" fill="none" xmlns="http://www.w3.org/2000/svg">
<path d="M4.84018 10.78C4.47567 10.78 4.18018 11.0755 4.18018 11.44C4.18018 11.8045 4.47567 12.1 4.84018 12.1V10.78ZM17.1602 12.1C17.5247 12.1 17.8202 11.8045 17.8202 11.44C17.8202 11.0755 17.5247 10.78 17.1602 10.78V12.1ZM4.84018 7.26001C4.47567 7.26001 4.18018 7.5555 4.18018 7.92001C4.18018 8.28451 4.47567 8.58001 4.84018 8.58001V7.26001ZM13.0532 8.58001C13.4177 8.58001 13.7132 8.28451 13.7132 7.92001C13.7132 7.5555 13.4177 7.26001 13.0532 7.26001V8.58001ZM4.84018 14.3C4.47567 14.3 4.18018 14.5955 4.18018 14.96C4.18018 15.3245 4.47567 15.62 4.84018 15.62V14.3ZM13.0532 15.62C13.4177 15.62 13.7132 15.3245 13.7132 14.96C13.7132 14.5955 13.4177 14.3 13.0532 14.3V15.62ZM4.84018 12.1H17.1602V10.78H4.84018V12.1ZM4.84018 8.58001H13.0532V7.26001H4.84018V8.58001ZM4.84018 15.62H13.0532V14.3H4.84018V15.62Z" fill="#0DB061"/>
</svg>
