<svg width="106" height="60" viewBox="0 0 106 60" fill="none" xmlns="http://www.w3.org/2000/svg">
<path fill-rule="evenodd" clip-rule="evenodd" d="M48.9739 29.6527C45.2009 25.1442 40.8218 21.1192 42.4427 16.8558C43.5732 13.8456 49.2327 8.74461 52.815 6.44949C56.3905 8.74461 62.0568 13.8456 63.1873 16.8558C64.815 21.1192 60.4359 25.1442 56.6561 29.6527C63.1532 27.9501 70.4404 22.0318 68.4518 17.5233C65.8706 11.7276 57.4529 5.81612 52.815 0C48.1771 5.81612 39.7594 11.7344 37.2123 17.5233C35.1896 22.0318 42.4767 27.9569 48.9739 29.6527Z" fill="url(#paint0_linear_526_259)"/>
<path fill-rule="evenodd" clip-rule="evenodd" d="M6.16345 19.9342C12.5244 25.0079 21.7321 26.7378 30.6811 28.1203C39.6232 29.496 45.9228 32.3155 48.5108 36.9739C41.2849 32.2883 32.874 34.454 23.3939 32.9762C15.4052 31.7162 9.77299 25.9273 6.16345 19.9342ZM99.4733 19.9342C93.1124 25.0079 83.9319 26.7378 74.9489 28.1203C66.0068 29.496 59.7072 32.3155 57.1192 36.9739C64.3451 32.2883 72.7628 34.454 82.2361 32.9762C90.2588 31.7162 95.857 25.9273 99.4733 19.9342Z" fill="url(#paint1_linear_526_259)"/>
<path fill-rule="evenodd" clip-rule="evenodd" d="M13.3893 39.5278V39.8479C12.8922 39.9228 12.4904 40.025 12.2588 40.168C12.0953 40.3178 11.8638 40.5902 11.6322 41.0125L7.19183 49.294H6.62656L1.65494 40.8354C1.42338 40.4404 1.19183 40.1952 0.994325 40.0999C0.796822 39.9977 0.46311 39.9296 0 39.8547V39.5346H6.55846V39.8547C5.89784 39.8547 5.46879 39.9024 5.23723 39.9501C5.00568 40.0318 4.86947 40.1952 4.86947 40.4472C4.86947 40.5971 5.00568 40.8422 5.20318 41.2168C5.30534 41.3598 5.36663 41.5369 5.46879 41.6799L8.05676 46.1203L10.5085 41.4892C10.6379 41.2372 10.7741 41.067 10.8082 40.9171C10.8763 40.7946 10.9035 40.6447 10.9035 40.4949C10.9035 40.2497 10.7741 40.0727 10.5085 39.9977C10.2429 39.9024 9.81385 39.8479 9.21453 39.8479V39.5278H13.3893ZM20.9694 48.681V49.0216H14.1453V48.681C14.7787 48.681 15.2077 48.6334 15.4393 48.5108C15.8002 48.361 15.9705 48.0885 15.9705 47.6935V40.8899C15.9705 40.4745 15.7662 40.1952 15.4052 40.0522C15.1737 39.9501 14.7787 39.9092 14.1453 39.8547V39.5346H20.9694V39.8547C20.3768 39.8547 19.975 39.9024 19.7162 40.0045C19.3485 40.1476 19.151 40.4472 19.151 40.8899V47.6935C19.151 48.0136 19.2531 48.2384 19.4166 48.3882C19.6822 48.5857 20.1793 48.681 20.9694 48.681ZM34.2633 46.9035L34.8218 47.2236C34.025 47.9115 33.2282 48.4018 32.5062 48.7015C31.58 49.1237 30.5176 49.3144 29.3598 49.3144C27.2077 49.3144 25.4847 48.8173 24.1907 47.8093C22.9648 46.8967 22.3723 45.7321 22.3723 44.3496C22.3723 42.9671 23.0329 41.714 24.3269 40.7333C25.6209 39.7662 27.2758 39.3031 29.2985 39.3031C29.8979 39.3031 30.4904 39.3507 31.1237 39.4938C31.7503 39.6708 32.4109 39.8139 33.0443 39.9909C33.3031 39.9909 33.5074 39.9228 33.6368 39.7934C33.7049 39.7253 33.8002 39.5687 33.9364 39.3235H34.5017V42.6538H33.9705C33.6027 41.9183 33.0443 41.2713 32.3156 40.7333C31.4234 40.0931 30.4631 39.7662 29.462 39.7662C28.1339 39.7662 27.1737 40.2429 26.5812 41.1215C26.084 41.857 25.8184 42.9262 25.8184 44.3087C25.8184 44.8944 25.8865 45.3916 25.9546 45.8139C26.1181 46.454 26.3496 46.9648 26.6833 47.3871C26.9489 47.7276 27.3439 48 27.807 48.1975C28.3996 48.4699 29.0329 48.5925 29.6595 48.5925C30.4563 48.5925 31.2191 48.4699 31.9137 48.2248C32.6765 47.9523 33.4393 47.5097 34.2702 46.8899L34.2633 46.9035ZM42.8445 39.7798C41.7208 39.7798 40.8559 40.277 40.2974 41.2849C39.8683 42.0749 39.6368 43.0897 39.6368 44.3224C39.6368 45.8275 39.9364 46.958 40.4677 47.7208C41.0329 48.4631 41.8229 48.8309 42.8513 48.8309C43.8797 48.8309 44.6765 48.4631 45.2077 47.7208C45.7321 46.958 45.9977 45.8275 45.9977 44.3224C45.9977 43.0624 45.8002 42.0545 45.3984 41.2849C44.84 40.277 44.0091 39.7798 42.8445 39.7798ZM42.8445 39.3167C44.6357 39.3167 46.1271 39.7526 47.353 40.6447C48.5789 41.5846 49.2123 42.8173 49.2123 44.3224C49.2123 45.8275 48.6129 46.9784 47.4211 47.9183C46.2293 48.8581 44.7038 49.328 42.8445 49.328C40.9853 49.328 39.4665 48.8581 38.2747 47.9183C37.0829 46.9784 36.4835 45.7798 36.4835 44.3224C36.4835 42.8649 37.1101 41.5846 38.336 40.6447C39.5619 39.7594 41.0534 39.3167 42.8445 39.3167ZM50.2338 49.0216V48.681C50.6969 48.6061 50.9966 48.5857 51.0919 48.5517C51.2282 48.5312 51.2895 48.504 51.3576 48.4835C51.5551 48.3882 51.6913 48.2384 51.7594 48.0681C51.8207 47.891 51.8615 47.6663 51.8615 47.3734V41.1623C51.8615 40.6175 51.7321 40.277 51.4665 40.0999C51.269 39.9977 50.8672 39.9024 50.2406 39.8547V39.5346H56.5063C57.7934 39.5346 58.8627 39.664 59.6527 39.9364C60.9739 40.3587 61.6413 41.067 61.6413 42.1294C61.6413 42.4699 61.546 42.8173 61.3417 43.1101C61.0488 43.58 60.5517 43.9478 59.8842 44.2202C59.319 44.4654 58.6924 44.6152 58.059 44.6629C57.3916 44.731 56.4041 44.7582 55.0488 44.7582V47.3734C55.0488 47.9115 55.1442 48.2588 55.3757 48.4086C55.5392 48.538 56.0023 48.6061 56.7719 48.681V49.0216H50.2406H50.2338ZM55.0352 40.5221V44.2747L55.2327 44.3019C56.3224 44.3019 57.1192 44.1521 57.5823 43.8593C58.0454 43.5392 58.2838 42.9739 58.2838 42.1566C58.2838 41.3394 58.0863 40.8014 57.7185 40.5085C57.3848 40.1884 56.7991 40.0114 55.9682 40.0114C55.6413 40.0114 55.403 40.059 55.2736 40.1408C55.1442 40.2089 55.042 40.3383 55.042 40.5358L55.0352 40.5221ZM76.9376 48.681V49.0216H70.311V48.681C70.9376 48.6061 71.3666 48.5517 71.5369 48.4835C71.8706 48.3337 72.0681 48.0681 72.0681 47.6935V44.445H67.328V47.6935C67.328 48.0681 67.4915 48.3133 67.8252 48.4631C68.0227 48.538 68.4518 48.6061 69.0851 48.6879V49.0284H62.5267V48.6879C63.126 48.6402 63.5142 48.5585 63.7185 48.4631C64.0182 48.3201 64.1476 48.0681 64.1476 47.6935V40.8899C64.1476 40.4745 63.9841 40.1952 63.6504 40.0522C63.4529 39.9501 63.0851 39.9092 62.5267 39.8547V39.5346H69.0851V39.8547C68.4858 39.9024 68.0908 39.9501 67.8933 40.0318C67.5256 40.1748 67.328 40.4745 67.328 40.8627V43.7775H72.0681V40.8627C72.0681 40.4745 71.8706 40.1952 71.5029 40.0522C71.3053 39.9501 70.9035 39.9092 70.311 39.8547V39.5346H76.9376V39.8547C76.3383 39.9024 75.9433 39.9501 75.7798 40.0318C75.412 40.1748 75.2145 40.4745 75.2145 40.8899V47.6935C75.2145 48.0681 75.378 48.3337 75.6777 48.4631C75.8411 48.538 76.277 48.6061 76.9376 48.6879V48.681ZM90.8173 48.7083V49.0284H84.5244V48.7083C85.1237 48.7083 85.5119 48.6606 85.7435 48.5857C85.941 48.538 86.0772 48.3882 86.0772 48.1635C86.0772 47.966 85.941 47.6663 85.7435 47.2304C85.6481 47.0534 85.4438 46.7333 85.1782 46.2497H80.7378C80.5063 46.7401 80.3088 47.1351 80.1453 47.4552C79.975 47.7957 79.8797 48.0204 79.8797 48.0885C79.8797 48.2929 80.0091 48.4359 80.2475 48.538C80.479 48.6606 80.9081 48.7083 81.5074 48.7083V49.0284H77.5641V48.6879C78.0273 48.6129 78.4291 48.4631 78.6879 48.2179C78.8513 48.0477 79.1169 47.6527 79.4506 47.0397L83.7957 39.3235H84.3542L88.6924 46.7401C89.1555 47.5301 89.4892 48.0204 89.7208 48.2452C90.0205 48.5653 90.3542 48.7151 90.7492 48.7151H90.8105L90.8173 48.7083ZM81.0783 45.7185H84.8513L82.9035 42.2724L81.0783 45.7185ZM97.0488 40.5971V44.1725C98.4041 44.1725 99.3031 44.0499 99.8002 43.7775C100.366 43.4779 100.631 42.9126 100.631 42.0272C100.631 41.3326 100.434 40.8218 100.039 40.4949C99.6368 40.1748 99.0443 39.9977 98.2475 39.9977C97.7503 39.9977 97.4575 40.0454 97.3212 40.1271C97.2191 40.1952 97.1237 40.3519 97.0556 40.5971H97.0488ZM105.63 48.681V49.0216H101.619L97.5732 44.6084H97.042V47.3666C97.042 47.8842 97.1782 48.2316 97.4098 48.4018C97.6073 48.504 98.0432 48.5993 98.7651 48.6742V49.0148H92.1725V48.6742C92.9013 48.5993 93.3303 48.5312 93.5006 48.4018C93.7594 48.2588 93.8615 47.9047 93.8615 47.3666V41.1555C93.8615 40.6107 93.7321 40.2497 93.4325 40.0454C93.2282 39.9228 92.7991 39.8479 92.1725 39.8479V39.5278H98.4313C100.222 39.5278 101.612 39.7321 102.545 40.168C103.471 40.5902 103.941 41.21 103.941 41.9932C103.941 42.7355 103.573 43.328 102.845 43.7435C102.415 43.9887 101.789 44.1862 100.924 44.3837L104.799 48.4018C104.935 48.5312 105.065 48.5993 105.167 48.6266C105.303 48.6538 105.432 48.6742 105.63 48.6742V48.681Z" fill="#02509E"/>
<path fill-rule="evenodd" clip-rule="evenodd" d="M14.2134 54.4222H15.2418L12.4563 58.7128H11.5641L10.9376 54.4222H11.966L12.2997 57.6504L14.2202 54.4222H14.2134ZM15.6027 55.5323H16.5971L15.8002 58.7128H14.84L15.6027 55.5323ZM15.3712 54.3201H16.2702L16.5358 55.2054H16.0386L15.3712 54.3201ZM22.4336 56.7106H21.5074C21.5074 56.4654 21.4393 56.3155 21.3439 56.2474C21.2486 56.1998 21.1124 56.1725 20.9149 56.1725H20.8808C20.5471 56.1725 20.3224 56.3428 20.1181 56.6424C20.05 56.7855 19.9818 56.9625 19.9546 57.1124C19.8865 57.2826 19.8593 57.412 19.8593 57.5278V57.5959C19.8593 57.8207 19.9274 57.9705 20.0227 58.0386C20.1249 58.1135 20.2543 58.1407 20.4518 58.1407H20.4858C20.6152 58.1407 20.7514 58.1135 20.8808 58.0386C21.017 57.9432 21.1805 57.7934 21.2758 57.5959H22.2089C22.1748 57.773 22.0386 57.9705 21.807 58.1884C21.6776 58.3382 21.5414 58.4676 21.378 58.563C21.2145 58.6651 21.0443 58.7333 20.8808 58.7877C20.7174 58.8354 20.5131 58.8627 20.2134 58.8627H20.1181C19.6549 58.8627 19.3212 58.7128 19.1237 58.4472C18.9262 58.2497 18.8581 57.9977 18.8581 57.7049V57.6027C18.8581 57.4325 18.8922 57.235 18.9603 56.9898C19.0556 56.765 19.1578 56.5471 19.2872 56.3768C19.5868 55.9818 19.8865 55.7367 20.2134 55.5868C20.4177 55.5187 20.7106 55.4574 21.1056 55.4574H21.1737C21.3371 55.4574 21.5006 55.4847 21.6708 55.5119C21.8343 55.5323 21.9364 55.58 22.0318 55.6345C22.1612 55.7298 22.2633 55.8524 22.3655 56.0499C22.3996 56.1998 22.4336 56.3496 22.4336 56.5199V56.7174V56.7106ZM26.8059 55.5323L26.0159 58.7128H25.0216L25.1169 58.3178C24.9535 58.4881 24.7832 58.6379 24.5857 58.7128C24.4495 58.7877 24.252 58.815 24.0545 58.8627C23.7276 58.8627 23.4552 58.815 23.2917 58.7333C22.9921 58.6107 22.8627 58.3655 22.8627 58.0386V57.8956C22.8627 57.8479 22.8967 57.8002 22.8967 57.7253L23.4552 55.5323H24.4154L23.9183 57.5074C23.8842 57.6027 23.8842 57.7049 23.8502 57.807C23.8502 57.9024 23.9183 57.9773 23.9796 58.025C24.0477 58.0999 24.1771 58.1271 24.3746 58.1271H24.4427C24.7083 58.0999 24.9399 58.025 25.0692 57.9296C25.1714 57.8275 25.2327 57.7321 25.3076 57.5891L25.8048 55.5392H26.7991L26.8059 55.5323ZM28.529 58.8627C28.2974 58.8627 28.0658 58.815 27.8343 58.7605C27.63 58.6856 27.4665 58.5902 27.3371 58.4404C27.1396 58.2633 27.0375 57.9909 27.0375 57.6504C27.0375 57.5074 27.0715 57.3303 27.1056 57.1532C27.1669 56.8876 27.269 56.6356 27.4325 56.4177C27.5687 56.193 27.7662 55.9955 27.9909 55.8456C28.1612 55.723 28.3859 55.6277 28.6515 55.5528C28.8831 55.4847 29.1147 55.4506 29.3803 55.4506C29.6118 55.4506 29.8434 55.4779 30.0409 55.5528C30.2724 55.6277 30.4427 55.723 30.5721 55.8456C30.6742 55.9478 30.7355 56.0431 30.7696 56.193C30.8309 56.336 30.8717 56.513 30.8717 56.6629C30.8717 56.731 30.8377 56.7855 30.8377 56.8331C30.8377 56.8808 30.8377 56.9762 30.8105 57.1532C30.7423 57.4256 30.6061 57.6708 30.4767 57.8956C30.3473 58.1203 30.143 58.311 29.9115 58.4404C29.748 58.5834 29.5165 58.6856 29.2781 58.7333C29.0125 58.8082 28.7809 58.8627 28.5153 58.8627H28.529ZM29.1896 56.1725C29.0602 56.1725 28.924 56.1998 28.7878 56.2474C28.6515 56.2951 28.5221 56.3905 28.42 56.5403C28.3587 56.588 28.2906 56.6901 28.2225 56.7855C28.1544 56.9081 28.0863 57.0306 28.0522 57.1532V57.5959C28.0522 57.6708 28.0863 57.7185 28.0863 57.773C28.1544 57.8956 28.2225 57.9909 28.3519 58.0386C28.4472 58.0863 28.5834 58.1135 28.7128 58.1135C28.8422 58.1135 28.9784 58.0863 29.1078 58.0386C29.2372 57.9909 29.3734 57.8956 29.4688 57.773C29.571 57.6708 29.6322 57.5482 29.7003 57.4529C29.7685 57.3303 29.8025 57.2281 29.8025 57.1532L29.8366 56.8604C29.8366 56.8127 29.8366 56.731 29.8025 56.6629V56.5335C29.7344 56.3836 29.6322 56.3087 29.5369 56.2406C29.4347 56.193 29.3053 56.1657 29.1759 56.1657L29.1896 56.1725ZM29.4892 54.3201H30.2248L30.7219 55.2054H30.1907L29.7616 54.647L29.067 55.2054H28.5358L29.496 54.3201H29.4892ZM28.0658 59.7548L28.2633 59.0125H29.2236L29.0602 59.7548H28.0658ZM35.1215 56.7106H34.1952C34.1952 56.4654 34.1271 56.3155 34.0318 56.2474C33.9296 56.1998 33.8002 56.1725 33.5959 56.1725H33.5687C33.235 56.1725 33.0034 56.3428 32.8332 56.6424C32.7378 56.7855 32.6697 56.9625 32.6357 57.1124C32.5675 57.2826 32.5675 57.412 32.5675 57.5278V57.5959C32.5675 57.8207 32.5948 57.9705 32.731 58.0386C32.7991 58.1135 32.9285 58.1407 33.126 58.1407H33.1941C33.3303 58.1407 33.4257 58.1135 33.5619 58.0386C33.7253 57.9432 33.8615 57.7934 33.9569 57.5959H34.8831C34.849 57.773 34.7196 57.9705 34.5153 58.1884C34.3519 58.3382 34.2157 58.4676 34.0522 58.563C33.8888 58.6651 33.7253 58.7333 33.5551 58.7877C33.4189 58.8354 33.1873 58.8627 32.8944 58.8627H32.7991C32.3632 58.8627 32.0023 58.7128 31.798 58.4472C31.6345 58.2497 31.5324 57.9977 31.5324 57.7049V57.6027C31.5324 57.4325 31.5664 57.235 31.6345 56.9898C31.7367 56.765 31.832 56.5471 31.9682 56.3768C32.2679 55.9818 32.5675 55.7367 32.8944 55.5868C33.0919 55.5187 33.3916 55.4574 33.7866 55.4574H33.8479C34.0114 55.4574 34.1816 55.4847 34.3451 55.5119C34.5085 55.5323 34.6447 55.58 34.7128 55.6345C34.849 55.7298 34.9444 55.8524 35.0465 56.0499C35.0806 56.1998 35.1147 56.3496 35.1147 56.5199V56.7174L35.1215 56.7106ZM37.3076 57.7798H38.2679C38.2679 57.9228 38.3292 58.0454 38.4994 58.1203C38.5607 58.1476 38.731 58.1884 38.9966 58.2157L39.0647 58.2429C39.2622 58.2429 39.3984 58.1884 39.5278 58.1135C39.63 58.0113 39.6913 57.916 39.6913 57.8138C39.6913 57.7662 39.6572 57.7185 39.6232 57.6913C39.5891 57.6436 39.5619 57.6163 39.4938 57.5891L38.37 57.3235C38.1385 57.2486 37.9682 57.1737 37.8729 57.0783C37.7775 56.9762 37.7367 56.8536 37.7367 56.731L37.7707 56.5335C37.8048 56.3632 37.9001 56.193 38.0363 56.0159C38.1385 55.8865 38.2679 55.7911 38.3973 55.6958C38.5607 55.6277 38.731 55.5732 38.8945 55.5255C39.092 55.4779 39.2963 55.4506 39.4938 55.4506H39.5619C39.7594 55.4506 39.9569 55.4779 40.1271 55.5255C40.2906 55.5528 40.4609 55.5936 40.5903 55.6958C40.7196 55.7707 40.8218 55.8661 40.8899 55.9682C40.958 56.0636 40.958 56.1657 40.958 56.2883V56.3564C40.958 56.4586 40.924 56.4994 40.924 56.5267H39.9977L40.025 56.3768C40.025 56.3292 39.9977 56.2815 39.9637 56.2338C39.8956 56.1861 39.8275 56.1589 39.7321 56.1317C39.6981 56.1044 39.63 56.1044 39.5687 56.1044C39.5006 56.084 39.4325 56.084 39.3712 56.084C39.235 56.084 39.1056 56.1044 38.9421 56.1521C38.9081 56.1793 38.8468 56.227 38.8127 56.2815C38.7514 56.3292 38.7514 56.3768 38.7514 56.4245C38.7514 56.5199 38.8127 56.5675 38.9149 56.5948L40.2429 56.9149C40.3723 56.9625 40.5085 57.017 40.6039 57.1396C40.6992 57.269 40.7673 57.3916 40.7673 57.5414L40.7333 57.6844C40.6992 57.8819 40.6039 58.0795 40.4336 58.2497C40.2361 58.4745 39.9705 58.6515 39.6708 58.7196C39.4052 58.7945 39.0715 58.849 38.7106 58.849C38.5471 58.849 38.4109 58.8218 38.2815 58.8014C38.1521 58.7741 38.0159 58.7537 37.9137 58.6992C37.6822 58.6311 37.5187 58.5017 37.4166 58.3314C37.3553 58.2361 37.3212 58.0863 37.3212 57.9637V57.7662L37.3076 57.7798ZM42.8445 58.8627C42.5789 58.8627 42.3473 58.815 42.1498 58.7605C41.9523 58.6856 41.7548 58.5902 41.6186 58.4404C41.4211 58.2633 41.319 57.9909 41.319 57.6504C41.319 57.5074 41.353 57.3303 41.3871 57.1532C41.4552 56.8876 41.5846 56.6356 41.7208 56.4177C41.8842 56.193 42.0477 55.9955 42.2792 55.8456C42.4767 55.723 42.6811 55.6277 42.9398 55.5528C43.1714 55.4847 43.437 55.4506 43.6686 55.4506C43.9342 55.4506 44.1657 55.4779 44.37 55.5528C44.5676 55.6277 44.731 55.723 44.8672 55.8456C44.9626 55.9478 45.0307 56.0431 45.0715 56.193C45.1396 56.336 45.1669 56.513 45.1669 56.6629V56.8331C45.1396 56.8808 45.1396 56.9762 45.0988 57.1532C45.0307 57.4256 44.9353 57.6708 44.7719 57.8956C44.6357 58.1203 44.4382 58.311 44.2066 58.4404C44.0431 58.5834 43.8048 58.6856 43.58 58.7333C43.3485 58.8082 43.0829 58.8627 42.8513 58.8627H42.8445ZM43.5051 56.1725C43.3417 56.1725 43.2055 56.1998 43.0761 56.2474C42.9399 56.2951 42.8445 56.3905 42.7083 56.5403C42.6402 56.588 42.5789 56.6901 42.5448 56.7855C42.4427 56.9081 42.4086 57.0306 42.3746 57.1532L42.3473 57.4052V57.5959C42.3746 57.6708 42.3746 57.7185 42.4154 57.773C42.4495 57.8956 42.5517 57.9909 42.647 58.0386C42.7423 58.0863 42.8786 58.1135 43.0148 58.1135C43.151 58.1135 43.2804 58.0863 43.4098 58.0386C43.5392 57.9909 43.6754 57.8956 43.7775 57.773C43.8729 57.6708 43.975 57.5482 44.0091 57.4529C44.0772 57.3303 44.1044 57.2281 44.1044 57.1532L44.1385 56.8604V56.6629C44.1044 56.588 44.1044 56.5607 44.1044 56.5335C44.0431 56.3836 43.975 56.3087 43.8388 56.2406C43.7435 56.193 43.6413 56.1657 43.5119 56.1657L43.5051 56.1725ZM43.7707 54.3201H44.5335L45.0307 55.2054H44.4654L44.0363 54.647L43.3349 55.2054H42.8036L43.7639 54.3201H43.7707ZM44.9285 54.647L45.4597 53.7344H46.42L45.4257 54.647H44.9285ZM45.7594 58.7128L46.5562 55.5323H47.5165L47.4211 56.0023C47.7208 55.6345 48.0817 55.4574 48.4836 55.4574C48.8445 55.4574 49.1442 55.5323 49.3757 55.6549C49.5732 55.7775 49.6754 55.975 49.6754 56.2474C49.6754 56.3428 49.6754 56.4449 49.6413 56.5675L49.1101 58.7128H48.1498L48.613 56.8127L48.647 56.5675C48.647 56.4722 48.613 56.37 48.5176 56.3019C48.4495 56.227 48.2861 56.1998 48.0817 56.1998C47.8161 56.1998 47.5846 56.2474 47.4552 56.37C47.353 56.4449 47.2577 56.5675 47.2236 56.7378L46.7265 58.7128H45.7662H45.7594ZM53.2168 55.5323H54.1158L53.319 58.7877C53.2577 58.9852 53.1555 59.1827 53.0193 59.353C52.8559 59.5028 52.6924 59.6527 52.4881 59.7548C52.3246 59.8229 52.1203 59.8978 51.9228 59.9523C51.7253 59.9796 51.4597 60 51.126 60C50.6969 60 50.3632 59.9319 50.1317 59.8025C49.8661 59.6527 49.7639 59.462 49.7639 59.2372L49.798 59.0874H50.7923V59.1351C50.7923 59.21 50.8604 59.2849 50.9557 59.3598C51.0511 59.4075 51.1873 59.4347 51.3848 59.4347C51.6164 59.4347 51.8139 59.3871 52.0114 59.2645C52.2157 59.1623 52.3451 59.0193 52.3791 58.8422L52.4813 58.3723C52.2838 58.5426 52.1135 58.672 51.9841 58.7128C51.8139 58.815 51.5891 58.8627 51.3848 58.8627C51.1192 58.8627 50.8876 58.8354 50.7582 58.7605C50.622 58.7128 50.4926 58.6379 50.3905 58.4881C50.193 58.2906 50.1249 58.0182 50.1249 57.7253C50.1249 57.378 50.1862 57.0375 50.3905 56.6901C50.5539 56.3155 50.7855 56.0431 51.0851 55.8456C51.2214 55.7571 51.3508 55.6754 51.5142 55.6005C51.7458 55.5119 51.9433 55.4574 52.1476 55.4574H52.2429C52.4404 55.4574 52.6107 55.4847 52.706 55.5596C52.7741 55.6073 52.9103 55.7639 53.0738 56.0023L53.21 55.5323H53.2168ZM52.1884 56.227C52.059 56.227 51.9228 56.2543 51.7866 56.3019C51.6572 56.3496 51.521 56.4449 51.3916 56.5675C51.3235 56.6697 51.2282 56.7923 51.1941 56.8876C51.1328 57.0102 51.0988 57.0851 51.0988 57.1532C51.0647 57.2281 51.0647 57.3031 51.0647 57.3575C51.0307 57.4257 51.0307 57.4801 51.0307 57.4801C51.0307 57.555 51.0307 57.6027 51.0647 57.6504C51.0647 57.7253 51.0647 57.7798 51.0988 57.8207C51.1669 57.9432 51.235 58.0182 51.3303 58.0931C51.4665 58.1407 51.5619 58.168 51.6981 58.168C51.8343 58.168 51.9637 58.1407 52.0931 58.0931C52.2293 58.0454 52.3587 57.9432 52.4881 57.8207C52.5562 57.7526 52.6243 57.6504 52.6856 57.5278C52.7537 57.4257 52.7809 57.3031 52.815 57.1805C52.815 57.1328 52.849 57.0579 52.849 56.9353C52.849 56.8876 52.815 56.8127 52.815 56.7378C52.815 56.6424 52.7809 56.5948 52.7809 56.5675C52.7469 56.4449 52.6447 56.3428 52.5494 56.3019C52.454 56.2543 52.3178 56.227 52.1816 56.227H52.1884ZM56.7242 55.58H57.1873L57.4189 54.7151H58.3791L58.1476 55.58H58.6788L58.5494 56.118H58.0182L57.5823 57.9228L57.5483 58.0931C57.5483 58.168 57.5823 58.1884 57.6504 58.1884H58.0114L57.882 58.7605C57.8139 58.7877 57.7458 58.8082 57.6504 58.8082C57.5483 58.8354 57.4802 58.8354 57.4189 58.8558C57.3508 58.8558 57.2895 58.8558 57.2214 58.8286C57.1192 58.8286 57.0579 58.8286 56.9557 58.8014C56.8263 58.7537 56.7242 58.6992 56.6561 58.6039C56.5607 58.5017 56.5267 58.3995 56.5267 58.2565V58.1816L57.0579 56.1112H56.5607L56.7242 55.5732V55.58ZM60.2724 58.8627C60.0068 58.8627 59.8025 58.815 59.571 58.7605C59.3735 58.6856 59.2032 58.5902 59.0738 58.4404C58.8695 58.2633 58.7741 57.9909 58.7741 57.6504C58.7741 57.5074 58.8014 57.3303 58.8422 57.1532C58.9035 56.8876 59.0057 56.6356 59.1691 56.4177C59.2985 56.193 59.496 55.9955 59.6935 55.8456C59.8979 55.723 60.1294 55.6277 60.361 55.5528C60.6266 55.4847 60.8581 55.4506 61.1306 55.4506C61.3621 55.4506 61.5937 55.4779 61.7912 55.5528C62.0295 55.6277 62.193 55.723 62.3224 55.8456C62.3905 55.9478 62.4858 56.0431 62.5267 56.193C62.588 56.336 62.588 56.513 62.588 56.6629V56.8331C62.588 56.8808 62.588 56.9762 62.5539 57.1532C62.4858 57.4256 62.3564 57.6708 62.227 57.8956C62.0908 58.1203 61.8933 58.311 61.6618 58.4404C61.4575 58.5834 61.2599 58.6856 61.0284 58.7333C60.7628 58.8082 60.5312 58.8627 60.2656 58.8627H60.2724ZM60.933 56.1725C60.8036 56.1725 60.6743 56.1998 60.538 56.2474C60.4018 56.2951 60.2724 56.3905 60.1703 56.5403C60.1022 56.588 60.0341 56.6901 59.966 56.7855C59.9047 56.9081 59.8366 57.0306 59.8025 57.1532V57.5959C59.8025 57.6708 59.8366 57.7185 59.8366 57.773C59.9047 57.8956 59.966 57.9909 60.1022 58.0386C60.1975 58.0863 60.3337 58.1135 60.4699 58.1135C60.6061 58.1135 60.7355 58.0863 60.8649 58.0386C61.0012 57.9909 61.0965 57.8956 61.2327 57.773C61.3281 57.6708 61.403 57.5482 61.4643 57.4529C61.5051 57.3303 61.5392 57.2281 61.5664 57.1532L61.6005 56.8604C61.6005 56.8127 61.6005 56.731 61.5664 56.6629V56.5335C61.5051 56.3836 61.403 56.3087 61.3008 56.2406C61.1987 56.193 61.0693 56.1657 60.933 56.1657V56.1725ZM61.2327 54.3201H61.9682L62.4654 55.2054H61.9342L61.5051 54.647L60.8105 55.2054H60.2792L61.2327 54.3201ZM62.3564 54.647L62.8945 53.7344H63.882L62.8536 54.647H62.3564ZM63.6504 55.58H64.1135L64.3451 54.7151H65.3054L65.0738 55.58H65.6391L65.4756 56.118H64.9444L64.5153 57.9228L64.4813 58.0931C64.4813 58.168 64.5153 58.1884 64.5766 58.1884H64.9716L64.8082 58.7605C64.7401 58.7877 64.672 58.8082 64.5766 58.8082C64.4813 58.8354 64.4132 58.8354 64.3451 58.8558C64.277 58.8558 64.2157 58.8558 64.1476 58.8286C64.0863 58.8286 63.9841 58.8286 63.882 58.8014C63.7526 58.7537 63.6504 58.6992 63.5823 58.6039C63.4802 58.5017 63.4529 58.3995 63.4529 58.2565V58.1816L63.9841 56.1112H63.521L63.6572 55.5732L63.6504 55.58ZM70.7741 55.2599H69.8479L70.0182 54.6947H70.9104L71.0057 54.4222H71.966L71.8979 54.6947H72.2656L72.1294 55.2599H71.7685L70.9104 58.7401H69.916L70.0182 58.3995C69.8479 58.5426 69.6845 58.672 69.4802 58.7401C69.2895 58.815 69.1192 58.8695 68.9557 58.8695H68.8536C68.5199 58.8695 68.2883 58.7945 68.1249 58.672C67.9614 58.5426 67.8252 58.3723 67.7639 58.1271C67.7299 58.025 67.7299 57.9296 67.6958 57.8275C67.6618 57.7049 67.6618 57.63 67.6618 57.5619C67.6618 57.5142 67.6618 57.4597 67.6958 57.4188V57.2213C67.7299 57.0715 67.7912 56.9012 67.8593 56.7242C67.9614 56.5539 68.0636 56.3837 68.193 56.2066C68.4245 55.9069 68.6901 55.7094 68.9898 55.5936C69.1941 55.5255 69.4257 55.4642 69.6913 55.4642H69.7594C70.025 55.4642 70.2225 55.5187 70.3859 55.6073C70.4881 55.7094 70.5903 55.8048 70.6243 55.9546L70.7878 55.2667L70.7741 55.2599ZM69.7526 56.1725C69.6164 56.1725 69.4802 56.1998 69.3848 56.2747C69.2486 56.3224 69.1192 56.3973 69.017 56.5403C68.9557 56.6152 68.8876 56.6901 68.8536 56.7855C68.7855 56.9081 68.7174 57.0306 68.6901 57.1532C68.6901 57.2077 68.6901 57.2554 68.6561 57.3303V57.6232C68.6901 57.6708 68.6901 57.7253 68.6901 57.773C68.7582 57.8956 68.8195 57.9909 68.9217 58.0386C69.017 58.1135 69.1192 58.1407 69.2486 58.1407C69.378 58.1407 69.521 58.1135 69.6164 58.0658C69.7526 57.9909 69.882 57.8956 69.9841 57.773C70.0454 57.6981 70.1203 57.6232 70.1816 57.5006C70.2429 57.4052 70.277 57.2758 70.311 57.1532L70.3451 56.8604V56.6629C70.311 56.588 70.311 56.5607 70.311 56.5335C70.277 56.4109 70.1816 56.3087 70.0795 56.2679C69.9841 56.193 69.882 56.1657 69.7526 56.1657V56.1725ZM75.3439 57.3575H72.8581C72.8581 57.4052 72.8241 57.4529 72.8241 57.5278C72.79 57.5959 72.79 57.6504 72.79 57.6776C72.79 57.7253 72.8241 57.8002 72.8513 57.9024C72.9194 57.9977 72.9875 58.0454 73.0829 58.0999C73.2123 58.1476 73.3144 58.1748 73.4506 58.1748H73.6141C73.7503 58.1476 73.8797 58.1271 73.9819 58.0454C74.1113 57.9773 74.2134 57.9024 74.2475 57.8002H75.2077C75.0375 58.0931 74.7787 58.3382 74.3428 58.563C73.9478 58.7605 73.58 58.8627 73.2191 58.8627C73.0556 58.8627 72.8922 58.8354 72.756 58.7877C72.5857 58.7401 72.4563 58.6856 72.3269 58.6175C72.1567 58.4949 72.0273 58.3723 71.9592 58.2497C71.8638 58.1203 71.8229 57.9773 71.8229 57.8479V57.7049C71.8229 57.6572 71.8229 57.5619 71.857 57.4597C71.8911 57.3099 71.9251 57.2145 71.9251 57.1396C71.9592 57.017 72.0205 56.8944 72.0545 56.765C72.2861 56.227 72.6538 55.8524 73.1101 55.6549C73.3757 55.5323 73.7094 55.4574 74.0704 55.4574C74.4313 55.4574 74.7038 55.5323 74.9353 55.6549C75.1056 55.7639 75.269 55.9001 75.3303 56.1044C75.3984 56.1725 75.3984 56.2747 75.4325 56.37C75.4665 56.4722 75.4665 56.5675 75.4665 56.6697C75.4665 56.7718 75.4665 56.8672 75.4325 56.9625C75.4325 57.0919 75.3984 57.2145 75.3303 57.3644L75.3439 57.3575ZM73.0012 56.8127H74.4858L74.5199 56.6152C74.5199 56.4858 74.4858 56.3905 74.4177 56.3155C74.3224 56.193 74.1862 56.1453 73.9887 56.1453H73.9206C73.689 56.1453 73.4575 56.2202 73.294 56.37C73.1306 56.4926 73.0284 56.6424 73.0012 56.8127ZM72.5925 59.7276L72.7968 58.9852H73.7571L73.5869 59.7276H72.5925ZM76.7673 55.5323H77.7276L77.5982 56.0023C77.7617 55.8729 77.9251 55.7571 78.0613 55.6345C78.2588 55.5119 78.4972 55.4574 78.7219 55.4574H78.79C78.9875 55.4574 79.1918 55.5119 79.3553 55.6005C79.4847 55.6481 79.5869 55.7571 79.6822 55.8456C79.8456 56.0431 79.9478 56.3155 79.9478 56.6901C79.9478 57.0306 79.8797 57.3575 79.7163 57.6981C79.5528 58.0182 79.3553 58.2906 79.0556 58.4881C78.8922 58.6107 78.6879 58.7128 78.5244 58.7605C78.361 58.8082 78.1635 58.8627 77.8979 58.8627C77.7276 58.8627 77.5641 58.8354 77.4348 58.7605C77.3326 58.7128 77.1691 58.5902 77.0057 58.3655L76.6039 59.9932H75.6436L76.7673 55.5323ZM78.361 56.1998C78.2248 56.1998 78.1294 56.227 77.9932 56.2747C77.8638 56.3224 77.7276 56.4177 77.6255 56.5675C77.5642 56.6152 77.5301 56.7106 77.462 56.8127C77.3939 56.9353 77.3258 57.0579 77.2985 57.1805C77.2985 57.2281 77.2985 57.2826 77.2645 57.3575V57.4801C77.2645 57.5278 77.2645 57.5823 77.2985 57.6504C77.2985 57.6981 77.2985 57.7525 77.3258 57.8002C77.3598 57.9228 77.4279 57.9909 77.5301 58.0658C77.6254 58.1135 77.7617 58.1407 77.8638 58.1407C77.9932 58.1407 78.1294 58.1135 78.2248 58.0658C78.361 58.0182 78.4972 57.9228 78.6266 57.8002C78.6879 57.6981 78.756 57.6231 78.79 57.555C78.8581 57.412 78.8922 57.2826 78.9262 57.1805C78.9262 57.1328 78.9603 57.0851 78.9603 57.0375V56.8944C78.9603 56.7446 78.9603 56.6493 78.9262 56.5743C78.8922 56.4313 78.79 56.3496 78.6947 56.2815C78.5993 56.2338 78.504 56.2066 78.3678 56.2066L78.361 56.1998ZM82.2361 58.7128L83.3326 54.4222H84.2929L83.8979 55.9546C84.0613 55.8048 84.2248 55.6822 84.395 55.5868C84.5925 55.5187 84.7968 55.4574 84.9603 55.4574C85.3621 55.4574 85.6209 55.5323 85.8525 55.6549C86.05 55.7775 86.1794 55.975 86.1794 56.2474C86.1794 56.3428 86.1521 56.4449 86.1181 56.5675L85.5869 58.7128H84.6266L85.0897 56.8127L85.1237 56.5675C85.1237 56.4722 85.0897 56.37 85.0216 56.3019C84.9194 56.227 84.756 56.1998 84.5585 56.1998C84.2929 56.1998 84.0954 56.2474 83.9319 56.37C83.8298 56.4449 83.7617 56.5675 83.7004 56.7378L83.2032 58.7128H82.2429H82.2361ZM90.3269 56.0499C90.361 56.1521 90.4223 56.2543 90.4223 56.37C90.4563 56.4926 90.4904 56.6152 90.4904 56.7378L90.4223 57.16C90.3269 57.4325 90.2248 57.6776 90.0886 57.9024C89.9251 58.1271 89.7548 58.3178 89.5233 58.4472C89.3258 58.5902 89.1283 58.6924 88.8627 58.7401C88.6311 58.815 88.3996 58.8695 88.134 58.8695C87.8684 58.8695 87.6368 58.8218 87.4325 58.7673C87.235 58.6924 87.0715 58.597 86.9353 58.4472C86.7378 58.2701 86.6357 57.9977 86.6357 57.6572C86.6357 57.5142 86.6357 57.3371 86.7038 57.16C86.7719 56.8944 86.8672 56.6424 87.0034 56.4245C87.1669 56.1998 87.3371 56.0023 87.5687 55.8524C87.7662 55.7298 87.9977 55.6345 88.2361 55.5596C88.5017 55.4915 88.7333 55.4574 88.9648 55.4574C89.2304 55.4574 89.462 55.4847 89.6595 55.5323C89.8229 55.6005 89.9932 55.6754 90.1226 55.798C90.2248 55.798 90.3201 55.7571 90.4223 55.6549C90.5244 55.5868 90.5857 55.5119 90.5857 55.4302H90.2248L90.3882 55.0079H91.1169L90.9875 55.4302C90.9535 55.5119 90.8854 55.6004 90.756 55.7298C90.6266 55.8524 90.4563 55.9546 90.3269 56.0499ZM88.8014 56.1725C88.6652 56.1725 88.529 56.1998 88.3996 56.2474C88.2702 56.2951 88.134 56.3905 88.0318 56.5403C87.9637 56.588 87.9024 56.6901 87.8343 56.7855C87.7662 56.9081 87.7049 57.0306 87.6708 57.1532L87.6368 57.4052C87.6368 57.4733 87.6368 57.5278 87.6708 57.5959C87.6708 57.6708 87.7049 57.7185 87.7049 57.773C87.7321 57.8956 87.8343 57.9909 87.9365 58.0386C88.0658 58.0863 88.168 58.1135 88.2974 58.1135C88.4336 58.1135 88.563 58.0863 88.6992 58.0386C88.8354 57.9909 88.9648 57.8956 89.101 57.773C89.1964 57.6708 89.2645 57.5482 89.3326 57.4529C89.3598 57.3303 89.4007 57.2281 89.4279 57.1532L89.462 56.8604C89.462 56.8127 89.4279 56.731 89.4279 56.6629C89.4279 56.588 89.4279 56.5607 89.3939 56.5335C89.3598 56.3836 89.2577 56.3087 89.1623 56.2406C89.0602 56.193 88.9308 56.1657 88.8014 56.1657V56.1725ZM90.79 58.7128L91.5869 55.5323H92.5471L92.445 56.0023C92.7446 55.6345 93.1124 55.4574 93.5074 55.4574C93.8684 55.4574 94.1748 55.5323 94.3996 55.6549C94.5971 55.7775 94.6992 55.975 94.6992 56.2474C94.6992 56.3428 94.6992 56.4449 94.6652 56.5675L94.134 58.7128H93.1737L93.6368 56.8127L93.6708 56.5675C93.6708 56.4722 93.6368 56.37 93.5346 56.3019C93.4665 56.227 93.3031 56.1998 93.1056 56.1998C92.84 56.1998 92.6084 56.2474 92.4722 56.37C92.3701 56.4449 92.2679 56.5675 92.2407 56.7378L91.7435 58.7128H90.7832H90.79Z" fill="url(#paint2_linear_526_259)"/>
<path fill-rule="evenodd" clip-rule="evenodd" d="M30.8786 25.7775C27.9569 22.8763 19.7435 16.3587 20.9694 13.9478C23.2917 11.9047 32.1044 15.0306 35.1828 15.0102C30.7423 12.0272 23.4552 9.83428 17.1555 11.2849C15.9296 16.7128 24.8786 25.0897 30.8786 25.7775ZM74.7514 25.7775C77.7004 22.8763 85.8865 16.3587 84.6947 13.9478C82.3383 11.9047 73.5256 15.0306 70.4745 15.0102C74.9149 12.0272 82.1748 9.83428 88.4677 11.2849C89.7003 16.7128 80.7446 25.0897 74.7514 25.7775Z" fill="url(#paint3_linear_526_259)"/>
<defs>
<linearGradient id="paint0_linear_526_259" x1="52.3042" y1="-3.8479" x2="53.2781" y2="38.7923" gradientUnits="userSpaceOnUse">
<stop stop-color="#E92629"/>
<stop offset="0.8" stop-color="#BE1E2D"/>
</linearGradient>
<linearGradient id="paint1_linear_526_259" x1="53.4552" y1="0.0272315" x2="51.9024" y2="48.3201" gradientUnits="userSpaceOnUse">
<stop offset="0.49" stop-color="#00A551"/>
<stop offset="0.8" stop-color="#006838"/>
</linearGradient>
<linearGradient id="paint2_linear_526_259" x1="52.7878" y1="57.8138" x2="53.5573" y2="-10.2838" gradientUnits="userSpaceOnUse">
<stop offset="0.47" stop-color="#F4831F"/>
<stop offset="1" stop-color="#F6AE1A"/>
</linearGradient>
<linearGradient id="paint3_linear_526_259" x1="52.3042" y1="57.807" x2="52.8627" y2="8.16572" gradientUnits="userSpaceOnUse">
<stop offset="0.47" stop-color="#F4831F"/>
<stop offset="1" stop-color="#F6AE1A"/>
</linearGradient>
</defs>
</svg>
