<svg width="300" height="173" viewBox="0 0 300 173" fill="none" xmlns="http://www.w3.org/2000/svg">
<rect width="300" height="173" rx="16" fill="white"/>
<path fill-rule="evenodd" clip-rule="evenodd" d="M118.366 130.462V136.423V142.384H115.753V140.936C114.925 142.01 113.668 142.683 111.959 142.683C108.589 142.683 105.948 140.066 105.948 136.423C105.948 132.783 108.589 130.162 111.959 130.162C113.668 130.162 114.925 130.836 115.753 131.909V130.462H118.366ZM112.284 132.606C110.022 132.606 108.638 134.327 108.638 136.423C108.638 138.518 110.022 140.24 112.284 140.24C114.445 140.24 115.903 138.592 115.903 136.423C115.903 134.253 114.445 132.606 112.284 132.606ZM206.652 136.423C206.652 134.327 208.036 132.606 210.298 132.606C212.462 132.606 213.917 134.253 213.917 136.423C213.917 138.592 212.462 140.24 210.298 140.24C208.036 140.24 206.652 138.518 206.652 136.423ZM216.383 125.674V136.423V142.384H213.768V140.936C212.939 142.01 211.682 142.683 209.973 142.683C206.603 142.683 203.962 140.066 203.962 136.423C203.962 132.783 206.603 130.162 209.973 130.162C211.682 130.162 212.939 130.836 213.768 131.909V125.674H216.383ZM150.796 132.483C152.479 132.483 153.561 133.531 153.837 135.375H147.602C147.881 133.654 148.934 132.483 150.796 132.483ZM144.863 136.423C144.863 132.706 147.326 130.162 150.848 130.162C154.214 130.162 156.527 132.706 156.553 136.423C156.553 136.771 156.527 137.097 156.502 137.419H147.579C147.956 139.566 149.49 140.34 151.173 140.34C152.378 140.34 153.662 139.888 154.669 139.092L155.949 141.013C154.49 142.235 152.833 142.683 151.023 142.683C147.427 142.683 144.863 140.214 144.863 136.423ZM182.394 136.423C182.394 134.327 183.778 132.606 186.04 132.606C188.2 132.606 189.659 134.253 189.659 136.423C189.659 138.592 188.2 140.24 186.04 140.24C183.778 140.24 182.394 138.518 182.394 136.423ZM192.122 130.462V136.423V142.384H189.51V140.936C188.678 142.01 187.424 142.683 185.714 142.683C182.345 142.683 179.704 140.066 179.704 136.423C179.704 132.783 182.345 130.162 185.714 130.162C187.424 130.162 188.678 130.836 189.51 131.909V130.462H192.122ZM167.639 136.423C167.639 140.04 170.177 142.683 174.05 142.683C175.86 142.683 177.065 142.284 178.372 141.262L177.117 139.166C176.136 139.866 175.106 140.24 173.972 140.24C171.886 140.214 170.353 138.718 170.353 136.423C170.353 134.128 171.886 132.631 173.972 132.606C175.106 132.606 176.136 132.98 177.117 133.679L178.372 131.584C177.065 130.562 175.86 130.162 174.05 130.162C170.177 130.162 167.639 132.806 167.639 136.423ZM198.156 131.909C198.835 130.862 199.816 130.162 201.324 130.162C201.853 130.162 202.607 130.262 203.185 130.487L202.38 132.931C201.827 132.706 201.275 132.631 200.745 132.631C199.036 132.631 198.182 133.728 198.182 135.701V142.384H195.566V130.462H198.156V131.909ZM131.288 131.41C130.031 130.588 128.299 130.162 126.388 130.162C123.344 130.162 121.384 131.609 121.384 133.979C121.384 135.923 122.843 137.122 125.531 137.496L126.765 137.67C128.198 137.87 128.874 138.244 128.874 138.918C128.874 139.84 127.919 140.365 126.135 140.365C124.325 140.365 123.019 139.792 122.138 139.118L120.907 141.136C122.34 142.184 124.149 142.683 126.109 142.683C129.579 142.683 131.59 141.062 131.59 138.792C131.59 136.697 130.008 135.6 127.392 135.227L126.161 135.049C125.03 134.901 124.124 134.679 124.124 133.879C124.124 133.006 124.978 132.483 126.411 132.483C127.945 132.483 129.429 133.057 130.157 133.505L131.288 131.41ZM161.833 131.909C162.509 130.862 163.491 130.162 164.998 130.162C165.528 130.162 166.282 130.262 166.86 130.487L166.054 132.931C165.502 132.706 164.949 132.631 164.42 132.631C162.711 132.631 161.856 133.728 161.856 135.701V142.384H159.244V130.462H161.833V131.909ZM142.702 130.462H138.429V126.845H135.788V130.462H133.351V132.831H135.788V138.27C135.788 141.036 136.87 142.683 139.96 142.683C141.094 142.683 142.4 142.335 143.229 141.761L142.475 139.54C141.695 139.989 140.841 140.214 140.162 140.214C138.855 140.214 138.429 139.415 138.429 138.218V132.831H142.702V130.462ZM103.637 134.901V142.384H100.996V135.749C100.996 133.728 100.142 132.606 98.3577 132.606C96.6226 132.606 95.417 133.705 95.417 135.775V142.384H92.7757V135.749C92.7757 133.728 91.8983 132.606 90.1631 132.606C88.3763 132.606 87.22 133.705 87.22 135.775V142.384H84.5815V130.462H87.197V131.932C88.1782 130.536 89.4326 130.162 90.7157 130.162C92.5513 130.162 93.8578 130.962 94.6864 132.283C95.794 130.611 97.3765 130.136 98.9103 130.162C101.828 130.188 103.637 132.083 103.637 134.901Z" fill="#231F20"/>
<path d="M170.019 110.204H130.422V39.5991H170.019V110.204Z" fill="#FF5F00"/>
<path d="M132.934 74.9034C132.934 60.5807 139.693 47.8225 150.218 39.6007C142.521 33.5885 132.807 30 122.251 30C97.259 30 77 50.1037 77 74.9034C77 99.7031 97.259 119.807 122.251 119.807C132.807 119.807 142.521 116.218 150.218 110.206C139.693 101.984 132.934 89.2261 132.934 74.9034Z" fill="#EB001B"/>
<path d="M223.439 74.9034C223.439 99.7031 203.18 119.807 178.188 119.807C167.631 119.807 157.918 116.218 150.218 110.206C160.746 101.984 167.505 89.2261 167.505 74.9034C167.505 60.5807 160.746 47.8225 150.218 39.6007C157.918 33.5885 167.631 30 178.188 30C203.18 30 223.439 50.1037 223.439 74.9034Z" fill="#F79E1B"/>
</svg>
