<svg width="131" height="115" viewBox="0 0 131 115" fill="none" xmlns="http://www.w3.org/2000/svg">
<path d="M0.0055119 56.3909C1.88814 54.2988 3.63846 52.0716 5.67269 50.1393C15.2567 41.0377 25.9047 33.4741 38.1101 28.2534C56.7848 20.2654 75.3851 20.6237 93.8034 29.0528C107.089 35.1334 118.545 43.7941 128.603 54.3429C130.538 56.3716 130.615 58.3562 128.771 60.2802C117.09 72.469 103.773 82.2984 87.8054 88.1695C72.2786 93.8781 56.7159 93.7127 41.2883 87.8195C25.7449 81.8821 12.7098 72.2154 1.28173 60.2664C0.771793 59.7316 0.424487 59.0425 0 58.4251C0 57.747 0 57.0689 0 56.3936L0.0055119 56.3909ZM64.919 84.7736C79.9855 84.9087 92.574 72.6537 92.7119 57.7139C92.8524 42.5509 80.523 30.1746 65.1505 30.0423C50.0785 29.9128 37.4872 42.1733 37.3576 57.0993C37.2281 72.2733 49.541 84.6358 64.9162 84.7736H64.919ZM94.4263 76.962C104.432 71.7579 113.096 65.2031 120.973 57.408C113.079 49.6018 104.418 43.0498 94.4181 37.854C102.326 50.98 102.299 63.858 94.4263 76.9647V76.962ZM35.6514 76.962C27.746 63.8304 27.7653 50.9552 35.6404 37.8595C25.6401 43.0526 16.9712 49.6129 9.10167 57.408C16.996 65.2004 25.6429 71.7551 35.6514 76.962Z" fill="white"/>
<path d="M61.2447 107.037C61.2447 105.727 61.2116 104.418 61.2502 103.112C61.3136 100.962 62.9784 99.3243 65.0485 99.3243C67.1186 99.3243 68.8082 100.956 68.8468 103.109C68.8937 105.769 68.902 108.429 68.8413 111.086C68.7945 113.222 67.0524 114.846 64.9851 114.81C62.9647 114.777 61.3246 113.17 61.2502 111.086C61.2033 109.738 61.2419 108.385 61.2391 107.034L61.2447 107.037Z" fill="white"/>
<path d="M41.506 95.9092C44.9046 95.9395 46.7735 98.8062 45.5028 101.306C44.2045 103.859 42.7326 106.328 41.2028 108.754C40.1719 110.386 37.9033 110.772 36.244 109.81C34.5984 108.856 33.8211 106.684 34.7279 104.969C36.0648 102.436 37.5257 99.9639 39.0169 97.5162C39.695 96.4026 40.8279 95.9147 41.5087 95.9119L41.506 95.9092Z" fill="white"/>
<path d="M99.2665 92.2047C100.137 92.2295 101.248 92.7973 101.948 93.9578C103.34 96.2704 104.705 98.6023 105.998 100.97C107.023 102.85 106.323 105.138 104.531 106.13C102.748 107.117 100.545 106.577 99.4484 104.768C98.0481 102.461 96.6672 100.138 95.4102 97.7534C94.0403 95.1541 95.8926 92.1827 99.2692 92.2047H99.2665Z" fill="white"/>
<path d="M68.8687 7.61613C68.8687 8.88132 68.899 10.1493 68.8604 11.4145C68.7971 13.5782 67.1625 15.2156 65.0924 15.2348C62.9728 15.2541 61.2886 13.5865 61.2583 11.3538C61.2224 8.86478 61.2252 6.37299 61.2583 3.88119C61.2886 1.6485 62.9672 -0.0191291 65.0897 0.00016573C67.2094 0.0167042 68.8219 1.68709 68.866 3.94183C68.8908 5.16568 68.8715 6.38953 68.8687 7.61337V7.61613Z" fill="white"/>
<path d="M41.3681 21.5C39.8797 21.5137 38.7551 20.8494 38.0081 19.5953C36.7126 17.4122 35.4281 15.2264 34.207 13.0019C33.1678 11.1083 33.8321 8.82874 35.6265 7.81714C37.4099 6.81105 39.6178 7.33752 40.7286 9.15124C42.0958 11.3867 43.4437 13.6414 44.662 15.9596C46.0044 18.5148 44.1962 21.4696 41.3681 21.5027V21.5Z" fill="white"/>
<path d="M98.8642 22.3848C96.0803 22.382 94.1866 19.5126 95.4601 17.0098C96.7032 14.5621 98.1145 12.1943 99.5644 9.86241C100.601 8.19754 102.814 7.74824 104.509 8.67715C106.188 9.5978 107.031 11.7533 106.136 13.4871C104.837 16.0009 103.385 18.4404 101.905 20.8522C101.249 21.919 100.138 22.3903 98.8642 22.382V22.3848Z" fill="white"/>
<path d="M76.3913 58.976C73.5853 61.8096 71.0081 64.4254 68.417 67.0275C65.9721 69.4807 64.0592 69.4641 61.5922 66.9944C60.225 65.6245 58.8661 64.2435 57.3611 62.722C55.6962 64.4227 54.1554 66.0379 52.5649 67.6036C51.4486 68.7006 50.0869 69.0534 48.5902 68.5352C47.1431 68.0363 46.3106 66.9586 46.0763 65.4591C45.8806 64.2022 46.3079 63.1106 47.1872 62.2231C49.6569 59.7258 52.1239 57.2257 54.6377 54.7752C56.3109 53.1462 58.4857 53.1682 60.1892 54.8221C61.7906 56.3767 63.3204 58.003 64.8061 59.5245C66.8459 57.482 68.7423 55.5829 70.7269 53.5955C70.0985 53.5955 69.4479 53.6175 68.7974 53.5927C66.6474 53.5073 65.0101 51.8369 65.0211 49.7641C65.0322 47.6913 66.6805 46.0126 68.8415 45.9878C72.6068 45.9492 76.3748 45.9547 80.1401 45.985C82.4444 46.0016 84.0376 47.6031 84.0597 49.9157C84.09 53.1738 84.0817 56.4318 84.0624 59.6899C84.0486 62.0494 82.4389 63.7474 80.2641 63.7529C78.1361 63.7584 76.576 62.1541 76.4465 59.8332C76.4382 59.6679 76.4244 59.4997 76.3858 58.9732L76.3913 58.976Z" fill="white"/>
</svg>
