<svg width="300" height="173" viewBox="0 0 300 173" fill="none" xmlns="http://www.w3.org/2000/svg">
<rect width="300" height="173" rx="16" fill="white"/>
<path d="M77.956 60.8346C75.2093 58.9464 71.6251 58 67.2035 58H50.0851C48.7296 58 47.9808 58.6779 47.8385 60.0321L40.8844 103.684C40.8121 104.113 40.9194 104.505 41.2052 104.862C41.4894 105.219 41.8468 105.396 42.2749 105.396H50.406C51.8321 105.396 52.616 104.72 52.7599 103.364L54.6854 91.5957C54.7557 91.0253 55.0065 90.5616 55.4346 90.2045C55.8623 89.848 56.3973 89.6149 57.0393 89.5079C57.6812 89.402 58.2865 89.3487 58.8582 89.3487C59.4282 89.3487 60.1054 89.3847 60.8913 89.4556C61.6751 89.5269 62.1748 89.5616 62.389 89.5616C68.5227 89.5616 73.3371 87.8333 76.8326 84.373C80.3265 80.9141 82.0754 76.1177 82.0754 69.9827C82.0754 65.775 80.7013 62.7258 77.956 60.8346ZM69.1296 73.9417C68.7719 76.4385 67.8457 78.0782 66.348 78.863C64.8499 79.6489 62.7102 80.0393 59.9288 80.0393L56.398 80.1466L58.2172 68.6985C58.3591 67.9147 58.8225 67.5222 59.6077 67.5222H61.6411C64.4928 67.5222 66.5625 67.9333 67.8464 68.7522C69.1296 69.573 69.5577 71.3036 69.1296 73.9417Z" fill="#003087"/>
<path d="M258.608 58H250.692C249.905 58 249.442 58.3924 249.301 59.177L242.346 103.684L242.239 103.898C242.239 104.257 242.382 104.594 242.667 104.915C242.951 105.235 243.309 105.396 243.737 105.396H250.799C252.152 105.396 252.901 104.72 253.046 103.364L260 59.604V59.4978C260 58.4994 259.535 58 258.608 58Z" fill="#009CDE"/>
<path d="M162.959 75.2253C162.959 74.8695 162.816 74.5301 162.532 74.2096C162.246 73.8888 161.925 73.7275 161.569 73.7275H153.331C152.545 73.7275 151.903 74.086 151.405 74.7972L140.064 91.4884L135.357 75.4398C134.999 74.2992 134.215 73.7275 133.003 73.7275H124.978C124.621 73.7275 124.299 73.8884 124.016 74.2096C123.73 74.5301 123.588 74.8698 123.588 75.2253C123.588 75.3692 124.283 77.4723 125.674 81.5378C127.064 85.604 128.563 89.9907 130.168 94.6988C131.773 99.4057 132.61 101.903 132.682 102.187C126.833 110.176 123.909 114.456 123.909 115.026C123.909 115.954 124.372 116.417 125.3 116.417H133.538C134.322 116.417 134.964 116.061 135.464 115.347L162.746 75.9742C162.888 75.8323 162.959 75.5837 162.959 75.2253Z" fill="#003087"/>
<path d="M239.671 73.7277H231.54C230.541 73.7277 229.936 74.9047 229.722 77.2586C227.865 74.4069 224.479 72.9785 219.557 72.9785C214.422 72.9785 210.052 74.9047 206.451 78.7563C202.849 82.6083 201.048 87.1383 201.048 92.3444C201.048 96.5535 202.278 99.9055 204.739 102.401C207.2 104.899 210.498 106.146 214.636 106.146C216.704 106.146 218.808 105.717 220.948 104.862C223.088 104.006 224.763 102.865 225.977 101.438C225.977 101.51 225.905 101.83 225.763 102.401C225.619 102.972 225.549 103.401 225.549 103.685C225.549 104.827 226.011 105.396 226.94 105.396H234.323C235.676 105.396 236.462 104.72 236.675 103.364L241.062 75.4397C241.133 75.0116 241.026 74.6198 240.741 74.2627C240.455 73.9066 240.099 73.7277 239.671 73.7277ZM225.709 94.805C223.891 96.5882 221.698 97.4794 219.13 97.4794C217.06 97.4794 215.386 96.9097 214.101 95.7677C212.817 94.6284 212.175 93.059 212.175 91.0602C212.175 88.4228 213.066 86.1925 214.85 84.3736C216.631 82.5547 218.844 81.6453 221.484 81.6453C223.479 81.6453 225.137 82.2339 226.458 83.4105C227.777 84.5875 228.438 86.2108 228.438 88.2792C228.438 90.8467 227.528 93.0227 225.709 94.805Z" fill="#009CDE"/>
<path d="M118.131 73.7277H110C109 73.7277 108.395 74.9047 108.181 77.2586C106.255 74.4069 102.867 72.9785 98.0169 72.9785C92.8814 72.9785 88.512 74.9047 84.9106 78.7563C81.3081 82.6083 79.5078 87.1383 79.5078 92.3444C79.5078 96.5535 80.7384 99.9055 83.1992 102.401C85.6601 104.899 88.9581 106.146 93.0956 106.146C95.0917 106.146 97.1615 105.717 99.3008 104.862C101.441 104.006 103.153 102.865 104.436 101.438C104.15 102.294 104.008 103.043 104.008 103.685C104.008 104.827 104.472 105.396 105.399 105.396H112.781C114.136 105.396 114.921 104.72 115.135 103.364L119.522 75.4397C119.592 75.0116 119.485 74.6198 119.201 74.2627C118.915 73.9066 118.559 73.7277 118.131 73.7277ZM104.169 94.8579C102.35 96.6075 100.12 97.4794 97.4826 97.4794C95.4129 97.4794 93.7545 96.9097 92.5073 95.7677C91.2584 94.6284 90.6347 93.059 90.6347 91.0602C90.6347 88.4228 91.5259 86.1925 93.3098 84.3736C95.0917 82.5547 97.3031 81.6453 99.9431 81.6453C101.939 81.6453 103.598 82.2339 104.918 83.4105C106.237 84.5875 106.898 86.2108 106.898 88.2792C106.898 90.9183 105.988 93.1123 104.169 94.8579Z" fill="#003087"/>
<path d="M199.496 60.8346C196.75 58.9464 193.166 58 188.744 58H171.732C170.305 58 169.52 58.6779 169.379 60.0321L162.424 103.684C162.352 104.113 162.459 104.505 162.745 104.861C163.028 105.218 163.387 105.396 163.815 105.396H172.588C173.443 105.396 174.014 104.933 174.3 104.005L176.226 91.5953C176.296 91.025 176.546 90.5613 176.975 90.2042C177.403 89.8477 177.937 89.6145 178.58 89.5076C179.221 89.4017 179.827 89.3484 180.399 89.3484C180.969 89.3484 181.646 89.3843 182.431 89.4553C183.215 89.5266 183.716 89.5612 183.928 89.5612C190.063 89.5612 194.877 87.8329 198.372 84.3727C201.867 80.9138 203.615 76.1174 203.615 69.9824C203.615 65.775 202.241 62.7258 199.496 60.8346ZM188.53 78.435C186.96 79.5047 184.606 80.0393 181.469 80.0393L178.045 80.1466L179.864 68.6985C180.005 67.9147 180.469 67.5222 181.254 67.5222H183.18C184.748 67.5222 185.997 67.5935 186.925 67.7358C187.851 67.8797 188.744 68.3241 189.6 69.073C190.456 69.8222 190.884 70.9102 190.884 72.3367C190.884 75.3322 190.098 77.3646 188.53 78.435Z" fill="#009CDE"/>
</svg>
