<svg width="500" height="91" viewBox="0 0 500 91" fill="none" xmlns="http://www.w3.org/2000/svg">
<path d="M500 38.8271L483.634 8.3256C481.323 4.01397 477.271 1.85815 473.219 1.85815H26.7815C22.7293 1.85815 18.6858 4.01397 16.3665 8.3256L0 38.8271H500Z" fill="url(#paint0_linear_526_345)"/>
<g filter="url(#filter0_d_526_345)">
<path d="M473.202 2H26.7805C30.8326 2 34.8759 4.17263 37.1952 8.51788L69.6644 69.4842C71.9749 73.8295 76.2545 76.505 80.8755 76.505H419.107C423.737 76.505 428.008 73.8295 430.318 69.4842L462.787 8.51788C465.098 4.17263 469.15 2 473.202 2Z" fill="#0DB061"/>
</g>
<path d="M0 39.257L9.49572 21.2972L14.248 12.3221C15.0531 10.8326 15.8058 9.32407 16.646 7.84403C17.5211 6.38296 18.6501 5.10215 19.9804 4.12495C22.6409 2.15156 26.0367 1.42102 29.1961 2.11361C32.3642 2.76824 35.2523 4.88394 36.9939 7.83454C40.2409 13.7927 43.409 19.7603 46.6122 25.7279L65.7436 61.562L68.1329 66.0401L69.3319 68.2791C69.7345 69.0286 70.1108 69.7781 70.5746 70.4517C72.3775 73.2031 75.1606 75.1955 78.2062 75.888C79.729 76.277 81.2956 76.1916 82.8972 76.2011H87.6757L97.2239 76.1821L249.996 76.0398L402.767 76.2011H412.316L417.094 76.2201C418.696 76.2201 420.271 76.296 421.794 75.907C424.848 75.2144 427.631 73.2221 429.434 70.4707C429.889 69.7876 430.274 69.0381 430.677 68.2886L431.876 66.0496L434.265 61.5715L453.397 25.7374L463.015 7.84403C464.756 4.89343 467.636 2.78722 470.804 2.13258C473.963 1.44 477.359 2.17053 480.011 4.13443C481.341 5.11164 482.479 6.39245 483.345 7.84403C484.186 9.32407 484.938 10.8326 485.743 12.3221L490.496 21.2972L500 39.257L490.408 21.3542L485.612 12.4075C484.807 10.9275 484.028 9.40946 483.197 7.94839C482.33 6.51578 481.21 5.26344 479.897 4.3147C477.28 2.39823 473.946 1.70565 470.856 2.39823C467.758 3.05286 464.966 5.13062 463.286 8.0148L453.773 25.9556L434.711 61.8371L432.331 66.3247L431.141 68.5637C430.747 69.3037 430.362 70.0722 429.88 70.7933C428.008 73.668 425.111 75.7457 421.934 76.4763C420.341 76.8842 418.696 76.7988 417.12 76.8083H412.342L402.794 76.8273L250.022 76.9886L97.2502 76.8463H87.7019L82.9235 76.8273C81.3481 76.8178 79.7028 76.9032 78.11 76.4952C74.9243 75.7647 72.0275 73.687 70.1546 70.8123C69.6732 70.0912 69.2881 69.3227 68.8943 68.5827L67.7041 66.3437L65.3236 61.8561L46.2621 25.9746L36.7401 8.04326C35.0598 5.15908 32.2679 3.09081 29.1786 2.42669C26.0979 1.73411 22.7635 2.42669 20.1467 4.33367C18.8339 5.28242 17.7137 6.53476 16.8472 7.95788C16.0158 9.40946 15.2369 10.9275 14.4317 12.417L9.63575 21.3636L0 39.257Z" fill="url(#paint1_linear_526_345)"/>
<defs>
<filter id="filter0_d_526_345" x="18.7805" y="0" width="462.421" height="90.5049" filterUnits="userSpaceOnUse" color-interpolation-filters="sRGB">
<feFlood flood-opacity="0" result="BackgroundImageFix"/>
<feColorMatrix in="SourceAlpha" type="matrix" values="0 0 0 0 0 0 0 0 0 0 0 0 0 0 0 0 0 0 127 0" result="hardAlpha"/>
<feOffset dy="6"/>
<feGaussianBlur stdDeviation="4"/>
<feComposite in2="hardAlpha" operator="out"/>
<feColorMatrix type="matrix" values="0 0 0 0 0 0 0 0 0 0.407843 0 0 0 0 0.219608 0 0 0 0.3 0"/>
<feBlend mode="normal" in2="BackgroundImageFix" result="effect1_dropShadow_526_345"/>
<feBlend mode="normal" in="SourceGraphic" in2="effect1_dropShadow_526_345" result="shape"/>
</filter>
<linearGradient id="paint0_linear_526_345" x1="250" y1="38.8271" x2="250" y2="1.85816" gradientUnits="userSpaceOnUse">
<stop stop-color="#006838"/>
<stop offset="1" stop-color="#019D4E"/>
</linearGradient>
<linearGradient id="paint1_linear_526_345" x1="249.996" y1="1.52538" x2="249.996" y2="76.9791" gradientUnits="userSpaceOnUse">
<stop stop-color="#016B3A"/>
<stop offset="1" stop-color="#019A4D"/>
</linearGradient>
</defs>
</svg>
