<svg width="137" height="129" viewBox="0 0 137 129" fill="none" xmlns="http://www.w3.org/2000/svg">
<path d="M136.991 69.0573C136.36 70.6285 135.147 71.2129 133.513 71.1687C132.093 71.1302 130.671 71.1963 129.251 71.1495C127.377 71.0888 126.247 70.0496 126.25 68.462C126.25 66.855 127.377 65.8516 129.265 65.813C130.597 65.7882 131.933 65.8764 133.259 65.7882C134.927 65.6807 136.211 66.1769 136.991 67.7177V69.0546V69.0573Z" fill="white"/>
<path d="M121.302 64.0601C116.632 56.8383 111.921 49.6386 107.291 42.392C105.7 39.903 103.572 38.7673 100.609 38.7866C89.9942 38.8473 79.3793 38.8114 68.7671 38.8114C58.1549 38.8114 47.3608 38.8445 36.6577 38.7894C33.7524 38.7756 31.6521 39.8947 30.0837 42.3369C25.4143 49.6138 20.6678 56.8411 15.9653 64.0932C13.9228 67.241 14.1158 69.9037 16.6324 72.7346C32.2557 90.2901 47.8873 107.84 63.5299 125.379C66.6778 128.907 70.6139 128.894 73.7811 125.346C89.4264 107.81 105.058 90.2598 120.681 72.7042C123.192 69.8844 123.361 67.2438 121.302 64.0601ZM98.4564 44.2636C94.2694 50.7384 90.1706 57.0726 85.9919 63.5309C81.7912 57.0368 77.7062 50.7274 73.5247 44.2636H98.4564ZM81.0579 65.7581H56.2337C60.3932 59.3301 64.4534 53.051 68.6431 46.5735C72.8163 53.0207 76.8655 59.2778 81.0607 65.7581H81.0579ZM63.7505 44.2664C59.5883 50.7053 55.5281 56.9844 51.3273 63.4841C47.1624 57.0506 43.0719 50.7329 38.8849 44.2664H63.7505ZM33.8682 46.364C38.0828 52.8774 42.1816 59.2116 46.4209 65.7636H21.2632C25.4942 59.2502 29.6206 52.8994 33.8682 46.364ZM63.1192 116.881C49.6211 101.726 36.123 86.5717 22.4622 71.2351H49.3372C53.9983 86.365 58.6787 101.558 63.3618 116.754C63.2819 116.796 63.2019 116.84 63.122 116.881H63.1192ZM68.8085 115.172C68.7037 115.189 68.6017 115.205 68.497 115.225C63.993 100.61 59.489 85.9957 54.941 71.2351H82.3452C77.8109 85.9516 73.3125 100.563 68.8112 115.172H68.8085ZM74.1724 116.867C74.0897 116.821 74.007 116.774 73.9244 116.73C78.5965 101.567 83.2658 86.4036 87.9462 71.213H114.835C101.177 86.5497 87.6761 101.707 74.1752 116.867H74.1724ZM90.9645 65.7112C95.1625 59.2199 99.2585 52.8884 103.47 46.375C107.685 52.8829 111.781 59.2144 115.987 65.7112H90.9645Z" fill="white"/>
<path d="M71.2042 11.3931C71.2042 14.111 71.218 16.8288 71.1987 19.5466C71.1849 21.5092 70.1402 22.7413 68.547 22.7358C66.9565 22.733 65.8678 21.4981 65.8595 19.5439C65.8347 14.0641 65.8319 8.58436 65.8595 3.10462C65.8705 1.16411 66.9979 -0.0376874 68.6132 0.000902324C70.1954 0.0394921 71.1794 1.19167 71.1932 3.10738C71.2152 5.8693 71.1987 8.63122 71.1987 11.3931H71.2042Z" fill="white"/>
<path d="M117.735 22.3639C117.489 22.7718 117.195 23.5464 116.663 24.0894C113.928 26.9009 111.15 29.6739 108.349 32.422C106.999 33.7478 105.433 33.8057 104.311 32.6866C103.192 31.5703 103.25 29.9909 104.567 28.6485C107.316 25.848 110.102 23.086 112.886 20.3214C113.807 19.4062 114.879 18.9432 116.158 19.5413C117.181 20.0182 117.674 20.8726 117.732 22.3639H117.735Z" fill="white"/>
<path d="M21.877 18.8824C22.8363 19.4585 23.6053 19.7507 24.1456 20.2772C26.9571 23.0116 29.7245 25.7928 32.4782 28.585C33.7792 29.9026 33.8729 31.5233 32.7897 32.6259C31.6623 33.7726 30.1104 33.7257 28.7543 32.3944C25.9234 29.6132 23.134 26.7961 20.3335 23.9846C19.4404 23.0887 18.9828 21.9448 19.6471 20.8423C20.1157 20.0649 21.0611 19.5716 21.8743 18.8852L21.877 18.8824Z" fill="white"/>
<path d="M5.21977 71.2239C4.1999 71.155 3.12215 71.1743 2.08574 70.9869C0.762659 70.747 -0.0890484 69.5397 0.00742597 68.2911C0.106657 67.0094 1.08243 65.9233 2.41928 65.8654C4.37082 65.7772 6.33064 65.7772 8.28218 65.8599C9.66865 65.9178 10.6113 66.9487 10.7078 68.247C10.8098 69.661 10.0435 70.7553 8.57985 71.0062C7.49659 71.1936 6.37195 71.1578 5.21977 71.2239Z" fill="white"/>
<path d="M68.6036 26.4931C70.0534 26.5207 71.2056 27.7253 71.178 29.1834C71.1505 30.614 69.9074 31.8213 68.4988 31.7855C67.0958 31.7469 65.8582 30.4651 65.8913 29.0787C65.9244 27.6701 67.1895 26.4656 68.6036 26.4931Z" fill="white"/>
</svg>
