<svg width="300" height="173" viewBox="0 0 300 173" fill="none" xmlns="http://www.w3.org/2000/svg">
<rect width="300" height="173" rx="16" fill="white"/>
<path d="M138.966 113.531H124.952L133.718 62.7197H147.731L138.966 113.531Z" fill="#15195A"/>
<path d="M189.769 63.9622C187.005 62.9341 182.621 61.7988 177.2 61.7988C163.36 61.7988 153.615 68.7176 153.555 78.6091C153.44 85.9071 160.532 89.9606 165.837 92.394C171.259 94.8807 173.102 96.5037 173.102 98.7201C173.047 102.124 168.721 103.693 164.686 103.693C159.091 103.693 156.093 102.884 151.537 100.991L149.692 100.179L147.73 111.585C151.017 112.988 157.073 114.234 163.36 114.289C178.065 114.289 187.638 107.477 187.751 96.9363C187.807 91.152 184.062 86.7197 175.988 83.0981C171.086 80.7732 168.085 79.2053 168.085 76.8267C168.142 74.6641 170.624 72.4492 176.157 72.4492C180.713 72.3407 184.06 73.3674 186.596 74.3948L187.863 74.9345L189.769 63.9622Z" fill="#15195A"/>
<path fill-rule="evenodd" clip-rule="evenodd" d="M214.854 62.7197H225.694L237 113.531H224.024C224.024 113.531 222.754 107.693 222.352 105.909H204.359C203.839 107.259 201.417 113.531 201.417 113.531H186.713L207.529 66.9354C208.971 63.6379 211.511 62.7197 214.854 62.7197ZM213.99 81.3141C213.99 81.3141 209.549 92.6115 208.395 95.5305H220.044C219.467 92.9904 216.813 80.8274 216.813 80.8274L215.834 76.4495C215.422 77.5767 214.825 79.1268 214.423 80.1723C214.15 80.8808 213.967 81.3576 213.99 81.3141Z" fill="#15195A"/>
<path fill-rule="evenodd" clip-rule="evenodd" d="M64.2307 62.7197H86.778C89.8345 62.8268 92.3144 63.7457 93.1212 66.991L98.0213 90.3371L98.0228 90.3414L99.5224 97.3684L113.247 62.7197H128.066L106.038 113.478H91.2184L78.7275 69.3267C74.4178 66.9645 69.4992 65.0646 64 63.7464L64.2307 62.7197Z" fill="#15195A"/>
</svg>
